{
.appVersion = "1230";
copyright = "Copyright 2016 The Faustina Project Authors (https://github.com/Omnibus-Type/Faustina)";
customParameters = (
{
name = vendorID;
value = OMNI;
},
{
name = license;
value = "This Font Software is licensed under the SIL Open Font License, Version 1.1. This license is available with a FAQ at: http://scripts.sil.org/OFL";
},
{
name = licenseURL;
value = "http://scripts.sil.org/OFL";
},
{
name = fsType;
value = (
);
},
{
name = "Use Typo Metrics";
value = 1;
},
{
name = "Disable Last Change";
value = 1;
},
{
name = "Use Line Breaks";
value = 1;
},
{
name = Axes;
value = (
{
Name = Weight;
Tag = wght;
}
);
}
);
date = "2018-06-25 12:35:29 +0000";
designer = "Alfonso Garcia";
designerURL = "http://www.omnibus-type.com/garcia";
familyName = Faustina;
featurePrefixes = (
{
automatic = 1;
code = "languagesystem DFLT dflt;
languagesystem latn dflt;
languagesystem latn TRK;
languagesystem latn AZE;
languagesystem latn GUA;
languagesystem latn CRT;
languagesystem latn NLD;
languagesystem latn TAT;
languagesystem latn CAT;
languagesystem latn KAZ;
languagesystem latn MOL;
languagesystem latn ROM;
languagesystem latn PLK;
";
name = Languagesystems;
}
);
features = (
{
automatic = 1;
code = "feature ccmp;
feature locl;
feature sups;
feature frac;
feature ordn;
feature lnum;
feature onum;
feature case;
";
name = aalt;
},
{
automatic = 1;
code = "lookup latn_decomb {
	script latn;
@CombiningTopAccents = [acutecomb brevecomb breveinvertedcomb caroncomb circumflexcomb dblgravecomb dieresiscomb dotaccentcomb gravecomb hookabovecomb hungarumlautcomb macroncomb ringcomb tildecomb];
@CombiningNonTopAccents = [cedillacomb dotbelowcomb ogonekcomb horncomb];
	sub [i j]' @CombiningTopAccents by [idotless jdotless];
	sub [i j]' @CombiningNonTopAccents @CombiningTopAccents by [idotless jdotless];
} latn_decomb;

lookup latn_comb {
	script latn;
	lookupflag 0;
	sub brevecomb acutecomb by brevecomb_acutecomb;
	sub brevecomb gravecomb by brevecomb_gravecomb;

glyphs = (
{
glyphname = A;
layers = (
{
anchors = (
{
name = bottom;
position = "{304, 0}";
},
{
name = ogonek;
position = "{617, 10}";
},
{
name = top;
position = "{304, 648}";
}
);
layerId = "D905F18B-B0C6-4EFF-A833-0E5BFD426C49";
paths = (
{
closed = 1;
nodes = (
"-9 0 LINE",
"202 0 LINE",
"202 41 LINE",
"126 57 LINE",
"126 75 LINE",
"165 186 LINE",
"406 186 LINE",
"449 75 LINE",
"449 57 LINE",
"378 41 LINE",
"378 0 LINE",
"617 0 LINE",
"617 41 LINE",
"553 57 LINE",
"323 653 LINE",
"275 653 LINE",
"54 57 LINE",
"-9 41 LINE"
);
},
{
closed = 1;
nodes = (
"185 243 LINE",
"276 498 LINE",
"282 516 LINE",
"284 511 LINE",
"288 500 LINE",
"385 243 LINE"
);
}
);
width = 608;
},
{
anchors = (
{
name = bottom;
position = "{327, 0}";
},
{
name = ogonek;
position = "{666, 10}";
},
{
name = top;
position = "{327, 648}";
}
);
layerId = "4843E09C-13E2-4232-9E55-A4E7C049DCE9";
paths = (
{
closed = 1;
nodes = (
"-8 0 LINE",
"248 0 LINE",
"248 62 LINE",
"165 73 LINE",
"172 94 LINE",
"201 180 LINE",
"404 180 LINE",
"430 99 LINE",
"438 74 LINE",
"359 62 LINE",
"359 0 LINE",
"666 0 LINE",
"666 61 LINE",
"597 74 LINE",
"380 655 LINE",
"259 655 LINE",
"58 74 LINE",
"-8 62 LINE"
);
},
{
closed = 1;
nodes = (
"228 260 LINE",
"299 472 LINE",
"302 496 LINE",
"307 496 LINE",
"310 472 LINE",
"380 260 LINE"
);
}
);
width = 653;
}
);
leftKerningGroup = A;
unicode = 0041;
},
{
glyphname = Aacute;
layers = (
{
components = (
{
name = A;
}
);
layerId = "D905F18B-B0C6-4EFF-A833-0E5BFD426C49";
paths = (
{
closed = 1;
nodes = (
"231 681 LINE",
"424 767 LINE",
"420 814 OFFCURVE",
"401 836 OFFCURVE",
"382 836 CURVE SMOOTH",
"371 836 OFFCURVE",
"357 826 OFFCURVE",
"340 814 CURVE SMOOTH",
"209 716 LINE"
);
}
);
width = 608;
},
{
components = (
{
name = A;
}
);
layerId = "4843E09C-13E2-4232-9E55-A4E7C049DCE9";
paths = (
{
closed = 1;
nodes = (
"213 671 LINE",
"433 739 LINE",
"446 788 OFFCURVE",
"433 844 OFFCURVE",
"383 844 CURVE SMOOTH",
"368 844 OFFCURVE",
"349 830 OFFCURVE",
"331 820 CURVE",
"188 721 LINE"
);
}
);
width = 653;
}
);
leftKerningGroup = A;
unicode = 00C1;
},
{
glyphname = Abreve;
layers = (
{
components = (
{
name = A;
}
);
layerId = "D905F18B-B0C6-4EFF-A833-0E5BFD426C49";
paths = (
{
closed = 1;
nodes = (
"169 808 LINE",
"169 808 OFFCURVE",
"180 692 OFFCURVE",
"310 692 CURVE SMOOTH",
"423 692 OFFCURVE",
"448 813 OFFCURVE",
"448 813 CURVE",
"417 821 LINE",
"417 821 OFFCURVE",
"391 753 OFFCURVE",
"313 753 CURVE SMOOTH",
"247 753 OFFCURVE",
"229 821 OFFCURVE",
"229 821 CURVE"
);
}
);
width = 608;
},
{
components = (
{
name = A;
}
);
layerId = "4843E09C-13E2-4232-9E55-A4E7C049DCE9";
paths = (
{
closed = 1;
nodes = (
"138 796 LINE",
"138 796 OFFCURVE",
"183 696 OFFCURVE",
"333 696 CURVE SMOOTH",
"455 696 OFFCURVE",
"507 813 OFFCURVE",
"507 813 CURVE",
"462 845 LINE",
"462 845 OFFCURVE",
"423 789 OFFCURVE",
"333 789 CURVE SMOOTH",
"249 789 OFFCURVE",
"213 851 OFFCURVE",
"213 851 CURVE"
);
}
);
width = 653;
}
);
leftKerningGroup = A;
unicode = 0102;
},
{
glyphname = Acircumflex;
layers = (
{
components = (
{
name = A;
}
);
layerId = "D905F18B-B0C6-4EFF-A833-0E5BFD426C49";
paths = (
{
closed = 1;
nodes = (
"167 680 LINE",
"293 743 LINE",
"415 678 LINE",
"448 719 LINE",
"374 780 LINE SMOOTH",
"335 812 OFFCURVE",
"313 834 OFFCURVE",
"297 834 CURVE SMOOTH",
"283 834 OFFCURVE",
"267 817 OFFCURVE",
"221 780 CURVE SMOOTH",
"142 716 LINE"
);
}
);
width = 608;
},
{
components = (
{
name = A;
}
);
layerId = "4843E09C-13E2-4232-9E55-A4E7C049DCE9";
paths = (
{
closed = 1;
nodes = (
"175 671 LINE",
"316 733 LINE",
"464 671 LINE",
"495 721 LINE",
"374 814 LINE SMOOTH",
"358 826 OFFCURVE",
"339 844 OFFCURVE",
"324 844 CURVE SMOOTH",
"316 844 OFFCURVE",
"308 844 OFFCURVE",
"270 813 CURVE SMOOTH",
"148 712 LINE"
);
}
);
width = 653;
}
);
leftKerningGroup = A;
unicode = 00C2;
},
{
glyphname = Adieresis;
layers = (
{
components = (
{
name = A;
}
);
layerId = "D905F18B-B0C6-4EFF-A833-0E5BFD426C49";
paths = (
{
closed = 1;
nodes = (
"226 686 OFFCURVE",
"246 715 OFFCURVE",
"246 748 CURVE SMOOTH",
"246 781 OFFCURVE",
"226 802 OFFCURVE",
"195 802 CURVE SMOOTH",
"162 802 OFFCURVE",
"140 774 OFFCURVE",
"140 742 CURVE SMOOTH",
"140 709 OFFCURVE",
"160 686 OFFCURVE",
"191 686 CURVE SMOOTH"
);
},
{
closed = 1;
nodes = (
"437 686 OFFCURVE",
"457 715 OFFCURVE",
"457 748 CURVE SMOOTH",
"457 781 OFFCURVE",
"437 802 OFFCURVE",
"406 802 CURVE SMOOTH",
"373 802 OFFCURVE",
"351 774 OFFCURVE",
"351 742 CURVE SMOOTH",
"351 709 OFFCURVE",
"371 686 OFFCURVE",
"402 686 CURVE SMOOTH"
);
}
);
width = 608;
},
{
components = (
{
name = A;
}
);
layerId = "4843E09C-13E2-4232-9E55-A4E7C049DCE9";
paths = (
{
closed = 1;
nodes = (
"239 695 OFFCURVE",
"270 732 OFFCURVE",
"270 775 CURVE SMOOTH",
"270 820 OFFCURVE",
"239 847 OFFCURVE",
"199 847 CURVE SMOOTH",
"156 847 OFFCURVE",
"121 810 OFFCURVE",
"121 768 CURVE SMOOTH",
"121 725 OFFCURVE",
"151 695 OFFCURVE",
"191 695 CURVE SMOOTH"
);
},
{
closed = 1;
nodes = (
"484 695 OFFCURVE",
"515 732 OFFCURVE",
"515 775 CURVE SMOOTH",
"515 820 OFFCURVE",
"484 847 OFFCURVE",
"444 847 CURVE SMOOTH",
"401 847 OFFCURVE",
"366 810 OFFCURVE",
"366 768 CURVE SMOOTH",
"366 725 OFFCURVE",
"396 695 OFFCURVE",
"436 695 CURVE SMOOTH"
);
}
);
width = 653;
}
);
leftKerningGroup = A;
unicode = 00C4;
},
{
glyphname = Agrave;
layers = (
{
components = (
{
name = A;
}
);
layerId = "D905F18B-B0C6-4EFF-A833-0E5BFD426C49";
paths = (
{
closed = 1;
nodes = (
"357 681 LINE",
"379 716 LINE",
"248 814 LINE SMOOTH",
"231 826 OFFCURVE",
"217 836 OFFCURVE",
"206 836 CURVE SMOOTH",
"187 836 OFFCURVE",
"168 814 OFFCURVE",
"164 767 CURVE"
);
}
);
width = 608;
},
{
components = (
{
name = A;
}
);
layerId = "4843E09C-13E2-4232-9E55-A4E7C049DCE9";
paths = (
{
closed = 1;
nodes = (
"413 671 LINE",
"438 721 LINE",
"295 820 LINE",
"277 830 OFFCURVE",
"258 844 OFFCURVE",
"243 844 CURVE SMOOTH",
"195 844 OFFCURVE",
"179 791 OFFCURVE",
"193 739 CURVE"
);
}
);
width = 653;
}
);
leftKerningGroup = A;
unicode = 00C0;
},
{
glyphname = Amacron;
layers = (
{
components = (
{
name = A;
}
);
layerId = "D905F18B-B0C6-4EFF-A833-0E5BFD426C49";
paths = (
{
closed = 1;
nodes = (
"128 723 LINE",
"460 723 LINE",
"470 781 LINE",
"138 781 LINE"
);
}
);
width = 608;
},
{
components = (
{
name = A;
}
);
layerId = "4843E09C-13E2-4232-9E55-A4E7C049DCE9";
paths = (
{
closed = 1;
nodes = (
"139 723 LINE",
"485 723 LINE",
"498 806 LINE",
"152 806 LINE"
);
}
);
width = 653;
}
);
leftKerningGroup = A;
unicode = 0100;
},
{
glyphname = Aogonek;
layers = (
{
components = (
{
name = A;
}
);
layerId = "D905F18B-B0C6-4EFF-A833-0E5BFD426C49";
paths = (
{
closed = 1;
nodes = (
"387 6 LINE",
"345 -18 OFFCURVE",
"302 -58 OFFCURVE",
"302 -113 CURVE SMOOTH",
"302 -162 OFFCURVE",
"337 -187 OFFCURVE",
"385 -187 CURVE SMOOTH",
"442 -187 OFFCURVE",
"486 -136 OFFCURVE",
"486 -136 CURVE",
"468 -106 LINE",
"449 -117 OFFCURVE",
"427 -127 OFFCURVE",
"411 -127 CURVE SMOOTH",
"383 -127 OFFCURVE",
"368 -113 OFFCURVE",
"368 -83 CURVE SMOOTH",
"368 -45 OFFCURVE",
"409 -11 OFFCURVE",
"431 6 CURVE"
);
}
);
width = 608;
},
{
components = (
{
name = A;
}
);
layerId = "4843E09C-13E2-4232-9E55-A4E7C049DCE9";
paths = (
{
closed = 1;
nodes = (
"410 8 LINE",
"366 -16 OFFCURVE",
"320 -56 OFFCURVE",
"320 -113 CURVE SMOOTH",
"320 -162 OFFCURVE",
"361 -187 OFFCURVE",
"417 -187 CURVE SMOOTH",
"483 -187 OFFCURVE",
"524 -136 OFFCURVE",
"524 -136 CURVE",
"500 -95 LINE",
"482 -106 OFFCURVE",
"463 -115 OFFCURVE",
"448 -115 CURVE SMOOTH",
"422 -115 OFFCURVE",
"413 -100 OFFCURVE",
"413 -81 CURVE SMOOTH",
"413 -43 OFFCURVE",
"452 -7 OFFCURVE",
"472 7 CURVE"
);
}
);
width = 653;
}
);
leftKerningGroup = A;
rightMetricsKey = "=A";
unicode = 0104;
},
{
glyphname = Aring;
layers = (
{
components = (
{
name = A;
}
);
layerId = "D905F18B-B0C6-4EFF-A833-0E5BFD426C49";
paths = (
{
closed = 1;
nodes = (
"208 672 OFFCURVE",
"233 644 OFFCURVE",
"298 645 CURVE SMOOTH",
"364 646 OFFCURVE",
"390 678 OFFCURVE",
"390 738 CURVE SMOOTH",
"390 798 OFFCURVE",
"351 821 OFFCURVE",
"301 821 CURVE SMOOTH",
"250 821 OFFCURVE",
"208 792 OFFCURVE",
"208 731 CURVE SMOOTH"
);
},
{
closed = 1;
nodes = (
"261 690 OFFCURVE",
"256 706 OFFCURVE",
"256 735 CURVE SMOOTH",
"256 766 OFFCURVE",
"267 778 OFFCURVE",
"300 778 CURVE SMOOTH",
"337 778 OFFCURVE",
"342 761 OFFCURVE",
"342 733 CURVE SMOOTH",
"342 702 OFFCURVE",
"332 690 OFFCURVE",
"300 690 CURVE SMOOTH"
);
}
);
width = 608;
},
{
components = (
{
name = A;
}
);
layerId = "4843E09C-13E2-4232-9E55-A4E7C049DCE9";
paths = (
{
closed = 1;
nodes = (
"218 711 OFFCURVE",
"243 669 OFFCURVE",
"318 669 CURVE SMOOTH",
"393 669 OFFCURVE",
"424 716 OFFCURVE",
"424 762 CURVE SMOOTH",
"424 806 OFFCURVE",
"399 849 OFFCURVE",
"325 849 CURVE SMOOTH",
"247 849 OFFCURVE",
"218 801 OFFCURVE",
"218 756 CURVE SMOOTH"
);
},
{
closed = 1;
nodes = (
"300 724 OFFCURVE",
"289 724 OFFCURVE",
"289 760 CURVE SMOOTH",
"289 789 OFFCURVE",
"297 794 OFFCURVE",
"320 794 CURVE SMOOTH",
"344 794 OFFCURVE",
"353 792 OFFCURVE",
"353 760 CURVE SMOOTH",
"353 734 OFFCURVE",
"348 724 OFFCURVE",
"322 724 CURVE SMOOTH"
);
}
);
width = 653;
}
);
leftKerningGroup = A;
unicode = 00C5;
},
{
glyphname = Atilde;
layers = (
{
components = (
{
name = A;
}
);
layerId = "D905F18B-B0C6-4EFF-A833-0E5BFD426C49";
paths = (
{
closed = 1;
nodes = (
"147 702 LINE",
"227 738 LINE",
"306 713 LINE SMOOTH",
"331 705 OFFCURVE",
"356 698 OFFCURVE",
"376 698 CURVE SMOOTH",
"401 698 OFFCURVE",
"422 706 OFFCURVE",
"437 727 CURVE SMOOTH",
"474 776 LINE",
"451 802 LINE",
"371 766 LINE",
"292 791 LINE SMOOTH",
"267 799 OFFCURVE",
"242 806 OFFCURVE",
"222 806 CURVE SMOOTH",
"197 806 OFFCURVE",
"176 798 OFFCURVE",
"161 777 CURVE SMOOTH",
"124 728 LINE"
);
}
);
width = 608;
},
{
components = (
{
name = A;
}
);
layerId = "4843E09C-13E2-4232-9E55-A4E7C049DCE9";
paths = (
{
closed = 1;
nodes = (
"172 705 LINE",
"243 744 LINE",
"343 711 LINE SMOOTH",
"367 703 OFFCURVE",
"380 700 OFFCURVE",
"400 700 CURVE SMOOTH",
"428 700 OFFCURVE",
"458 706 OFFCURVE",
"487 750 CURVE SMOOTH",
"522 803 LINE",
"484 839 LINE",
"412 801 LINE",
"312 834 LINE SMOOTH",
"288 842 OFFCURVE",
"275 844 OFFCURVE",
"255 844 CURVE SMOOTH",
"226 844 OFFCURVE",
"197 839 OFFCURVE",
"168 795 CURVE SMOOTH",
"133 742 LINE"
);
}
);
width = 653;
}
);
leftKerningGroup = A;
unicode = 00C3;
},
{
glyphname = AE;
layers = (
{
anchors = (
{
name = top;
position = "{434, 648}";
}
);
layerId = "D905F18B-B0C6-4EFF-A833-0E5BFD426C49";
paths = (
{
closed = 1;
nodes = (
"-9 0 LINE",
"202 0 LINE",
"202 41 LINE",
"128 57 LINE",
"128 75 LINE",
"221 271 LINE",
"391 271 LINE",
"409 60 LINE",
"326 43 LINE",
"326 0 LINE",
"773 0 LINE",
"773 164 LINE",
"724 164 LINE",
"702 57 LINE",
"602 57 LINE SMOOTH",
"564 57 OFFCURVE",
"521 61 OFFCURVE",
"499 67 CURVE",
"480 271 LINE",
"617 271 LINE",
"634 222 LINE",
"676 222 LINE",
"676 377 LINE",
"634 377 LINE",
"617 328 LINE",
"475 328 LINE",
"454 587 LINE",
"548 593 LINE",
"642 593 LINE",
"663 484 LINE",
"712 484 LINE",
"712 648 LINE",
"334 648 LINE",
"54 57 LINE",
"-9 41 LINE"
);
},
{
closed = 1;
nodes = (
"250 328 LINE",
"365 583 LINE",
"386 328 LINE"
);
}
);
width = 793;
},
{
anchors = (
{
name = top;
position = "{495, 648}";
}
);
layerId = "4843E09C-13E2-4232-9E55-A4E7C049DCE9";
paths = (
{
closed = 1;
nodes = (
"-4 0 LINE",
"251 0 LINE",
"251 62 LINE",
"174 73 LINE",
"183 92 LINE",
"254 254 LINE",
"419 254 LINE",
"435 75 LINE",
"357 56 LINE",
"362 0 LINE",
"857 0 LINE",
"839 197 LINE",
"775 197 LINE",
"758 76 LINE",
"620 76 LINE SMOOTH",
"606 76 OFFCURVE",
"591 76 OFFCURVE",
"577 76 CURVE",
"561 258 LINE",
"652 258 LINE",
"681 182 LINE",
"734 182 LINE",
"714 403 LINE",
"661 403 LINE",
"645 334 LINE",
"554 334 LINE",
"534 565 LINE",
"577 572 LINE",
"698 572 LINE",
"735 460 LINE",
"801 460 LINE",
"785 648 LINE",
"338 648 LINE",
"70 74 LINE",
"-4 62 LINE"
);
},
{
closed = 1;
nodes = (
"289 334 LINE",
"391 565 LINE",
"412 334 LINE"
);
}
);
width = 882;
}
);
leftKerningGroup = A;
unicode = 00C6;
},
{
glyphname = B;
layers = (
{
anchors = (
{
name = bottom;
position = "{300, 0}";
},
{
name = top;
position = "{300, 648}";
}
);
layerId = "D905F18B-B0C6-4EFF-A833-0E5BFD426C49";
paths = (
{
closed = 1;
nodes = (
"336 0 LINE SMOOTH",
"476 0 OFFCURVE",
"559 66 OFFCURVE",
"559 178 CURVE SMOOTH",
"559 257 OFFCURVE",
"496 328 OFFCURVE",
"410 345 CURVE",
"490 373 OFFCURVE",
"525 418 OFFCURVE",
"525 492 CURVE SMOOTH",
"525 588 OFFCURVE",
"446 648 OFFCURVE",
"321 648 CURVE SMOOTH",
"59 648 LINE",
"59 605 LINE",
"142 588 LINE",
"142 60 LINE",
"59 43 LINE",
"59 0 LINE"
);
},
{
closed = 1;
nodes = (
"285 55 OFFCURVE",
"247 58 OFFCURVE",
"228 61 CURVE",
"228 302 LINE",
"296 302 LINE SMOOTH",
"412 302 OFFCURVE",
"460 267 OFFCURVE",
"460 181 CURVE SMOOTH",
"460 99 OFFCURVE",
"411 55 OFFCURVE",
"320 55 CURVE SMOOTH"
);
},
{
closed = 1;
nodes = (
"228 585 LINE",
"250 588 OFFCURVE",
"280 590 OFFCURVE",
"301 590 CURVE SMOOTH",
"390 590 OFFCURVE",
"434 557 OFFCURVE",
"434 491 CURVE SMOOTH",
"434 404 OFFCURVE",
"380 357 OFFCURVE",
"279 357 CURVE SMOOTH",
"228 357 LINE"
);
}
);
width = 600;
},
{
anchors = (
{
name = bottom;
position = "{319, 0}";
},
{
name = top;
position = "{319, 648}";
}
);
layerId = "4843E09C-13E2-4232-9E55-A4E7C049DCE9";
paths = (
{
closed = 1;
nodes = (
"360 0 LINE SMOOTH",
"507 0 OFFCURVE",
"597 77 OFFCURVE",
"597 204 CURVE SMOOTH",
"597 272 OFFCURVE",
"557 318 OFFCURVE",
"477 344 CURVE",
"539 381 OFFCURVE",
"573 430 OFFCURVE",
"573 481 CURVE SMOOTH",
"573 595 OFFCURVE",
"490 648 OFFCURVE",
"311 648 CURVE SMOOTH",
"35 648 LINE",
"35 592 LINE",
"115 573 LINE",
"115 75 LINE",
"35 56 LINE",
"35 0 LINE"
);
},
{
closed = 1;
nodes = (
"270 76 OFFCURVE",
"264 76 OFFCURVE",
"257 77 CURVE",
"257 291 LINE",
"293 291 LINE SMOOTH",
"395 291 OFFCURVE",
"445 256 OFFCURVE",
"445 186 CURVE SMOOTH",
"445 110 OFFCURVE",
"399 76 OFFCURVE",
"294 76 CURVE SMOOTH"
);
},
{
closed = 1;
nodes = (
"257 568 LINE",
"271 570 OFFCURVE",
"294 572 OFFCURVE",
"312 572 CURVE SMOOTH",
"385 572 OFFCURVE",
"423 538 OFFCURVE",
"423 472 CURVE SMOOTH",
"423 406 OFFCURVE",
"374 367 OFFCURVE",
"292 367 CURVE SMOOTH",
"257 367 LINE"
);
}
);
width = 637;
}
);
unicode = 0042;
},
{
glyphname = C;
layers = (
{
anchors = (
{
name = bottom;
position = "{366, 0}";
},
{
name = top;
position = "{355, 648}";
}
);
layerId = "D905F18B-B0C6-4EFF-A833-0E5BFD426C49";
paths = (
{
closed = 1;
nodes = (
"488 82 LINE",
"488 82 OFFCURVE",
"450 45 OFFCURVE",
"352 45 CURVE SMOOTH",
"220 45 OFFCURVE",
"146 156 OFFCURVE",
"146 319 CURVE SMOOTH",
"146 516 OFFCURVE",
"202 600 OFFCURVE",
"348 600 CURVE SMOOTH",
"427 600 OFFCURVE",
"483 584 OFFCURVE",
"483 584 CURVE",
"504 474 LINE",
"553 474 LINE",
"553 631 LINE",
"508 649 OFFCURVE",
"443 660 OFFCURVE",
"355 660 CURVE SMOOTH",
"164 660 OFFCURVE",
"45 498 OFFCURVE",
"45 316 CURVE SMOOTH",
"45 104 OFFCURVE",
"139 -11 OFFCURVE",
"340 -11 CURVE SMOOTH",
"460 -11 OFFCURVE",
"518 15 OFFCURVE",
"557 32 CURVE",
"557 184 LINE",
"508 184 LINE"
);
}
);
width = 612;
},
{
anchors = (
{
name = bottom;
position = "{358, 0}";
},
{
name = top;
position = "{358, 648}";
}
);
layerId = "4843E09C-13E2-4232-9E55-A4E7C049DCE9";
paths = (
{
closed = 1;
nodes = (
"469 88 LINE",
"447 78 OFFCURVE",
"410 65 OFFCURVE",
"361 65 CURVE SMOOTH",
"252 65 OFFCURVE",
"198 110 OFFCURVE",
"198 319 CURVE SMOOTH",
"198 516 OFFCURVE",
"239 582 OFFCURVE",
"360 582 CURVE SMOOTH",
"406 582 OFFCURVE",
"444 571 OFFCURVE",
"466 564 CURVE",
"487 459 LINE",
"562 459 LINE",
"562 639 LINE",
"525 649 OFFCURVE",
"446 666 OFFCURVE",
"358 666 CURVE SMOOTH",
"167 666 OFFCURVE",
"35 517 OFFCURVE",
"35 316 CURVE SMOOTH",
"35 104 OFFCURVE",
"134 -18 OFFCURVE",
"335 -18 CURVE SMOOTH",
"455 -18 OFFCURVE",
"527 10 OFFCURVE",
"566 27 CURVE",
"566 207 LINE",
"492 207 LINE"
);
}
);
width = 606;
}
);
leftKerningGroup = C;
unicode = 0043;
},
{
glyphname = Cacute;
layers = (
{
layerId = "D905F18B-B0C6-4EFF-A833-0E5BFD426C49";
paths = (
{
closed = 1;
nodes = (
"488 82 LINE",
"488 82 OFFCURVE",
"450 45 OFFCURVE",
"352 45 CURVE SMOOTH",
"220 45 OFFCURVE",
"146 156 OFFCURVE",
"146 319 CURVE SMOOTH",
"146 516 OFFCURVE",
"202 600 OFFCURVE",
"348 600 CURVE SMOOTH",
"427 600 OFFCURVE",
"483 584 OFFCURVE",
"483 584 CURVE",
"504 474 LINE",
"553 474 LINE",
"553 631 LINE",
"508 649 OFFCURVE",
"443 660 OFFCURVE",
"355 660 CURVE SMOOTH",
"164 660 OFFCURVE",
"45 498 OFFCURVE",
"45 316 CURVE SMOOTH",
"45 104 OFFCURVE",
"139 -11 OFFCURVE",
"340 -11 CURVE SMOOTH",
"460 -11 OFFCURVE",
"518 15 OFFCURVE",
"557 32 CURVE",
"557 184 LINE",
"508 184 LINE"
);
},
{
closed = 1;
nodes = (
"302 681 LINE",
"495 767 LINE",
"491 814 OFFCURVE",
"472 836 OFFCURVE",
"453 836 CURVE SMOOTH",
"442 836 OFFCURVE",
"428 826 OFFCURVE",
"411 814 CURVE SMOOTH",
"280 716 LINE"
);
}
);
width = 612;
},
{
layerId = "4843E09C-13E2-4232-9E55-A4E7C049DCE9";
paths = (
{
closed = 1;
nodes = (
"469 88 LINE",
"447 78 OFFCURVE",
"410 65 OFFCURVE",
"361 65 CURVE SMOOTH",
"252 65 OFFCURVE",
"198 110 OFFCURVE",
"198 319 CURVE SMOOTH",
"198 516 OFFCURVE",
"239 582 OFFCURVE",
"360 582 CURVE SMOOTH",
"406 582 OFFCURVE",
"444 571 OFFCURVE",
"466 564 CURVE",
"487 459 LINE",
"559 459 LINE",
"559 639 LINE",
"522 649 OFFCURVE",
"446 666 OFFCURVE",
"358 666 CURVE SMOOTH",
"167 666 OFFCURVE",
"35 517 OFFCURVE",
"35 316 CURVE SMOOTH",
"35 104 OFFCURVE",
"134 -18 OFFCURVE",
"335 -18 CURVE SMOOTH",
"455 -18 OFFCURVE",
"524 10 OFFCURVE",
"563 27 CURVE",
"563 207 LINE",
"492 207 LINE"
);
},
{
closed = 1;
nodes = (
"267 671 LINE",
"487 739 LINE",
"500 788 OFFCURVE",
"487 844 OFFCURVE",
"437 844 CURVE SMOOTH",
"422 844 OFFCURVE",
"403 830 OFFCURVE",
"385 820 CURVE",
"242 721 LINE"
);
}
);
width = 605;
}
);
leftKerningGroup = C;
unicode = 0106;
},
{
glyphname = Ccaron;
layers = (
{
layerId = "D905F18B-B0C6-4EFF-A833-0E5BFD426C49";
paths = (
{
closed = 1;
nodes = (
"488 82 LINE",
"488 82 OFFCURVE",
"450 45 OFFCURVE",
"352 45 CURVE SMOOTH",
"220 45 OFFCURVE",
"146 156 OFFCURVE",
"146 319 CURVE SMOOTH",
"146 516 OFFCURVE",
"202 600 OFFCURVE",
"348 600 CURVE SMOOTH",
"427 600 OFFCURVE",
"483 584 OFFCURVE",
"483 584 CURVE",
"504 474 LINE",
"553 474 LINE",
"553 631 LINE",
"508 649 OFFCURVE",
"443 660 OFFCURVE",
"355 660 CURVE SMOOTH",
"164 660 OFFCURVE",
"45 498 OFFCURVE",
"45 316 CURVE SMOOTH",
"45 104 OFFCURVE",
"139 -11 OFFCURVE",
"340 -11 CURVE SMOOTH",
"460 -11 OFFCURVE",
"518 15 OFFCURVE",
"557 32 CURVE",
"557 184 LINE",
"508 184 LINE"
);
},
{
closed = 1;
nodes = (
"191 793 LINE",
"265 732 LINE SMOOTH",
"304 700 OFFCURVE",
"326 678 OFFCURVE",
"342 678 CURVE SMOOTH",
"356 678 OFFCURVE",
"372 695 OFFCURVE",
"418 732 CURVE SMOOTH",
"497 796 LINE",
"472 832 LINE",
"346 769 LINE",
"224 834 LINE"
);
}
);
width = 612;
},
{
layerId = "4843E09C-13E2-4232-9E55-A4E7C049DCE9";
paths = (
{
closed = 1;
nodes = (
"469 88 LINE",
"447 78 OFFCURVE",
"410 65 OFFCURVE",
"361 65 CURVE SMOOTH",
"252 65 OFFCURVE",
"198 110 OFFCURVE",
"198 319 CURVE SMOOTH",
"198 516 OFFCURVE",
"239 582 OFFCURVE",
"360 582 CURVE SMOOTH",
"406 582 OFFCURVE",
"444 571 OFFCURVE",
"466 564 CURVE",
"487 459 LINE",
"559 459 LINE",
"559 639 LINE",
"522 649 OFFCURVE",
"446 666 OFFCURVE",
"358 666 CURVE SMOOTH",
"167 666 OFFCURVE",
"35 517 OFFCURVE",
"35 316 CURVE SMOOTH",
"35 104 OFFCURVE",
"134 -18 OFFCURVE",
"335 -18 CURVE SMOOTH",
"455 -18 OFFCURVE",
"524 10 OFFCURVE",
"563 27 CURVE",
"563 207 LINE",
"492 207 LINE"
);
},
{
closed = 1;
nodes = (
"172 792 LINE",
"295 701 LINE",
"312 690 OFFCURVE",
"333 671 OFFCURVE",
"347 671 CURVE SMOOTH",
"362 671 OFFCURVE",
"382 687 OFFCURVE",
"398 700 CURVE SMOOTH",
"521 802 LINE",
"492 844 LINE",
"353 782 LINE",
"206 844 LINE"
);
}
);
width = 605;
}
);
leftKerningGroup = C;
unicode = 010C;
},
{
glyphname = Ccedilla;
layers = (
{
layerId = "D905F18B-B0C6-4EFF-A833-0E5BFD426C49";
paths = (
{
closed = 1;
nodes = (
"257 -171 LINE",
"280 -181 OFFCURVE",
"300 -187 OFFCURVE",
"331 -187 CURVE SMOOTH",
"391 -187 OFFCURVE",
"454 -166 OFFCURVE",
"454 -96 CURVE SMOOTH",
"454 -52 OFFCURVE",
"420 -42 OFFCURVE",
"382 -33 CURVE SMOOTH",
"365 -29 LINE",
"365 -11 LINE",
"468 -7 OFFCURVE",
"521 16 OFFCURVE",
"557 32 CURVE",
"557 184 LINE",
"508 184 LINE",
"488 82 LINE",
"488 82 OFFCURVE",
"450 45 OFFCURVE",
"352 45 CURVE SMOOTH",
"220 45 OFFCURVE",
"146 156 OFFCURVE",
"146 319 CURVE SMOOTH",
"146 516 OFFCURVE",
"202 600 OFFCURVE",
"348 600 CURVE SMOOTH",
"427 600 OFFCURVE",
"483 584 OFFCURVE",
"483 584 CURVE",
"504 474 LINE",
"553 474 LINE",
"553 631 LINE",
"508 649 OFFCURVE",
"443 660 OFFCURVE",
"355 660 CURVE SMOOTH",
"164 660 OFFCURVE",
"45 498 OFFCURVE",
"45 316 CURVE SMOOTH",
"45 111 OFFCURVE",
"132 -3 OFFCURVE",
"319 -10 CURVE",
"299 -59 LINE",
"318 -78 LINE",
"355 -86 LINE SMOOTH",
"375 -90 OFFCURVE",
"386 -93 OFFCURVE",
"386 -115 CURVE SMOOTH",
"386 -135 OFFCURVE",
"366 -145 OFFCURVE",
"327 -145 CURVE SMOOTH",
"304 -145 OFFCURVE",
"288 -140 OFFCURVE",
"273 -134 CURVE"
);
}
);
width = 612;
},
{
layerId = "4843E09C-13E2-4232-9E55-A4E7C049DCE9";
paths = (
{
closed = 1;
nodes = (
"249 -175 LINE",
"274 -188 OFFCURVE",
"296 -194 OFFCURVE",
"333 -194 CURVE SMOOTH",
"415 -194 OFFCURVE",
"457 -163 OFFCURVE",
"457 -104 CURVE SMOOTH",
"457 -58 OFFCURVE",
"430 -45 OFFCURVE",
"389 -35 CURVE SMOOTH",
"368 -30 LINE",
"368 -17 LINE",
"467 -13 OFFCURVE",
"528 11 OFFCURVE",
"563 27 CURVE",
"563 207 LINE",
"492 207 LINE",
"469 88 LINE",
"447 78 OFFCURVE",
"410 65 OFFCURVE",
"361 65 CURVE SMOOTH",
"252 65 OFFCURVE",
"198 110 OFFCURVE",
"198 319 CURVE SMOOTH",
"198 516 OFFCURVE",
"239 582 OFFCURVE",
"360 582 CURVE SMOOTH",
"406 582 OFFCURVE",
"444 571 OFFCURVE",
"466 564 CURVE",
"487 459 LINE",
"559 459 LINE",
"559 639 LINE",
"522 649 OFFCURVE",
"446 666 OFFCURVE",
"358 666 CURVE SMOOTH",
"167 666 OFFCURVE",
"35 517 OFFCURVE",
"35 316 CURVE SMOOTH",
"35 112 OFFCURVE",
"126 -8 OFFCURVE",
"311 -17 CURVE",
"290 -64 LINE",
"313 -87 LINE",
"342 -93 LINE SMOOTH",
"358 -96 OFFCURVE",
"365 -102 OFFCURVE",
"365 -116 CURVE SMOOTH",
"365 -137 OFFCURVE",
"350 -141 OFFCURVE",
"330 -141 CURVE SMOOTH",
"308 -141 OFFCURVE",
"292 -138 OFFCURVE",
"269 -128 CURVE"
);
}
);
width = 605;
}
);
leftKerningGroup = C;
unicode = 00C7;
},
{
glyphname = D;
layers = (
{
anchors = (
{
name = bottom;
position = "{352, 0}";
},
{
name = center;
position = "{352, 324}";
},
{
name = top;
position = "{352, 648}";
}
);
layerId = "D905F18B-B0C6-4EFF-A833-0E5BFD426C49";
paths = (
{
closed = 1;
nodes = (
"310 0 LINE SMOOTH",
"539 0 OFFCURVE",
"658 116 OFFCURVE",
"658 340 CURVE SMOOTH",
"658 538 OFFCURVE",
"548 648 OFFCURVE",
"351 648 CURVE SMOOTH",
"55 648 LINE",
"55 605 LINE",
"138 587 LINE",
"138 60 LINE",
"55 43 LINE",
"55 0 LINE"
);
},
{
closed = 1;
nodes = (
"284 51 OFFCURVE",
"243 56 OFFCURVE",
"224 62 CURVE",
"224 583 LINE",
"250 588 OFFCURVE",
"282 590 OFFCURVE",
"320 590 CURVE SMOOTH",
"483 590 OFFCURVE",
"557 511 OFFCURVE",
"557 337 CURVE SMOOTH",
"557 134 OFFCURVE",
"488 51 OFFCURVE",
"319 51 CURVE SMOOTH"
);
}
);
width = 703;
},
{
anchors = (
{
name = bottom;
position = "{356, 0}";
},
{
name = center;
position = "{356, 324}";
},
{
name = top;
position = "{356, 648}";
}
);
layerId = "4843E09C-13E2-4232-9E55-A4E7C049DCE9";
paths = (
{
closed = 1;
nodes = (
"354 0 LINE SMOOTH",
"545 0 OFFCURVE",
"677 131 OFFCURVE",
"677 332 CURVE SMOOTH",
"677 544 OFFCURVE",
"557 648 OFFCURVE",
"348 648 CURVE SMOOTH",
"35 648 LINE",
"35 592 LINE",
"115 573 LINE",
"115 75 LINE",
"35 56 LINE",
"35 0 LINE"
);
},
{
closed = 1;
nodes = (
"278 76 OFFCURVE",
"268 76 OFFCURVE",
"257 76 CURVE",
"257 572 LINE",
"274 572 OFFCURVE",
"292 572 OFFCURVE",
"309 572 CURVE SMOOTH",
"418 572 OFFCURVE",
"514 545 OFFCURVE",
"514 343 CURVE SMOOTH",
"514 130 OFFCURVE",
"470 76 OFFCURVE",
"289 76 CURVE SMOOTH"
);
}
);
width = 712;
}
);
rightKerningGroup = D;
unicode = 0044;
},
{
glyphname = Eth;
layers = (
{
layerId = "D905F18B-B0C6-4EFF-A833-0E5BFD426C49";
paths = (
{
closed = 1;
nodes = (
"59 0 LINE",
"340 0 LINE SMOOTH",
"534 0 OFFCURVE",
"662 131 OFFCURVE",
"662 330 CURVE SMOOTH",
"662 534 OFFCURVE",
"556 648 OFFCURVE",
"367 648 CURVE SMOOTH",
"59 648 LINE",
"59 605 LINE",
"142 587 LINE",
"142 362 LINE",
"57 362 LINE",
"57 305 LINE",
"142 305 LINE",
"142 60 LINE",
"59 43 LINE"
);
},
{
closed = 1;
nodes = (
"228 305 LINE",
"404 305 LINE",
"404 362 LINE",
"228 362 LINE",
"228 583 LINE",
"263 588 OFFCURVE",
"296 590 OFFCURVE",
"336 590 CURVE SMOOTH",
"492 590 OFFCURVE",
"561 509 OFFCURVE",
"561 327 CURVE SMOOTH",
"561 131 OFFCURVE",
"494 51 OFFCURVE",
"329 51 CURVE SMOOTH",
"287 51 OFFCURVE",
"253 55 OFFCURVE",
"228 62 CURVE"
);
}
);
width = 712;
},
{
layerId = "4843E09C-13E2-4232-9E55-A4E7C049DCE9";
paths = (
{
closed = 1;
nodes = (
"44 0 LINE",
"363 0 LINE SMOOTH",
"554 0 OFFCURVE",
"686 131 OFFCURVE",
"686 332 CURVE SMOOTH",
"686 544 OFFCURVE",
"566 648 OFFCURVE",
"357 648 CURVE SMOOTH",
"44 648 LINE",
"44 592 LINE",
"124 573 LINE",
"124 373 LINE",
"40 373 LINE",
"40 296 LINE",
"124 296 LINE",
"124 75 LINE",
"44 56 LINE"
);
},
{
closed = 1;
nodes = (
"266 296 LINE",
"385 296 LINE",
"385 373 LINE",
"266 373 LINE",
"266 572 LINE",
"283 572 OFFCURVE",
"301 572 OFFCURVE",
"318 572 CURVE SMOOTH",
"427 572 OFFCURVE",
"523 545 OFFCURVE",
"523 343 CURVE SMOOTH",
"523 130 OFFCURVE",
"479 76 OFFCURVE",
"298 76 CURVE SMOOTH",
"287 76 OFFCURVE",
"277 76 OFFCURVE",
"266 76 CURVE"
);
}
);
width = 721;
}
);
rightKerningGroup = D;
unicode = 00D0;
},
{
glyphname = Dcaron;
layers = (
{
components = (
{
name = D;
}
);
layerId = "D905F18B-B0C6-4EFF-A833-0E5BFD426C49";
paths = (
{
closed = 1;
nodes = (
"186 793 LINE",
"260 732 LINE SMOOTH",
"299 700 OFFCURVE",
"321 678 OFFCURVE",
"337 678 CURVE SMOOTH",
"351 678 OFFCURVE",
"367 695 OFFCURVE",
"413 732 CURVE SMOOTH",
"492 796 LINE",
"467 832 LINE",
"341 769 LINE",
"219 834 LINE"
);
}
);
width = 707;
},
{
components = (
{
name = D;
}
);
layerId = "4843E09C-13E2-4232-9E55-A4E7C049DCE9";
paths = (
{
closed = 1;
nodes = (
"166 792 LINE",
"289 701 LINE SMOOTH",
"309 685 OFFCURVE",
"325 671 OFFCURVE",
"344 671 CURVE SMOOTH",
"359 671 OFFCURVE",
"379 689 OFFCURVE",
"395 702 CURVE SMOOTH",
"515 802 LINE",
"486 844 LINE",
"347 782 LINE",
"200 844 LINE"
);
}
);
width = 712;
}
);
unicode = 010E;
},
{
glyphname = E;
layers = (
{
anchors = (
{
name = bottom;
position = "{286, 0}";
},
{
name = ogonek;
position = "{522, 10}";
},
{
name = top;
position = "{320, 648}";
}
);
layerId = "D905F18B-B0C6-4EFF-A833-0E5BFD426C49";
paths = (
{
closed = 1;
nodes = (
"55 0 LINE",
"522 0 LINE",
"522 164 LINE",
"473 164 LINE",
"451 57 LINE",
"331 57 LINE SMOOTH",
"294 57 OFFCURVE",
"249 61 OFFCURVE",
"224 67 CURVE",
"224 305 LINE",
"382 305 LINE",
"397 246 LINE",
"439 246 LINE",
"439 417 LINE",
"397 417 LINE",
"382 358 LINE",
"224 358 LINE",
"224 587 LINE",
"322 593 LINE",
"443 593 LINE",
"464 484 LINE",
"513 484 LINE",
"513 648 LINE",
"55 648 LINE",
"55 605 LINE",
"138 588 LINE",
"138 60 LINE",
"55 43 LINE"
);
}
);
width = 572;
},
{
anchors = (
{
name = bottom;
position = "{291, 0}";
},
{
name = ogonek;
position = "{541, 10}";
},
{
name = top;
position = "{312, 648}";
}
);
layerId = "4843E09C-13E2-4232-9E55-A4E7C049DCE9";
paths = (
{
closed = 1;
nodes = (
"35 0 LINE",
"541 0 LINE",
"541 197 LINE",
"475 197 LINE",
"449 76 LINE",
"305 76 LINE",
"289 76 OFFCURVE",
"273 76 OFFCURVE",
"257 76 CURVE",
"257 290 LINE",
"359 290 LINE",
"381 214 LINE",
"434 214 LINE",
"434 435 LINE",
"381 435 LINE",
"359 366 LINE",
"257 366 LINE",
"257 565 LINE",
"301 572 LINE",
"439 572 LINE",
"464 460 LINE",
"532 460 LINE",
"532 648 LINE",
"35 648 LINE",
"35 592 LINE",
"115 573 LINE",
"115 75 LINE",
"35 56 LINE"
);
}
);
width = 581;
}
);
unicode = 0045;
},
{
glyphname = Eacute;
layers = (
{
components = (
{
name = E;
}
);
layerId = "D905F18B-B0C6-4EFF-A833-0E5BFD426C49";
paths = (
{
closed = 1;
nodes = (
"233 681 LINE",
"426 767 LINE",
"422 814 OFFCURVE",
"403 836 OFFCURVE",
"384 836 CURVE SMOOTH",
"373 836 OFFCURVE",
"359 826 OFFCURVE",
"342 814 CURVE SMOOTH",
"211 716 LINE"
);
}
);
width = 572;
},
{
components = (
{
name = E;
}
);
layerId = "4843E09C-13E2-4232-9E55-A4E7C049DCE9";
paths = (
{
closed = 1;
nodes = (
"222 671 LINE",
"442 739 LINE",
"455 788 OFFCURVE",
"442 844 OFFCURVE",
"392 844 CURVE SMOOTH",
"377 844 OFFCURVE",
"358 830 OFFCURVE",
"340 820 CURVE",
"197 721 LINE"
);
}
);
width = 581;
}
);
unicode = 00C9;
},
{
glyphname = Ecaron;
layers = (
{
components = (
{
name = E;
}
);
layerId = "D905F18B-B0C6-4EFF-A833-0E5BFD426C49";
paths = (
{
closed = 1;
nodes = (
"151 793 LINE",
"225 732 LINE SMOOTH",
"264 700 OFFCURVE",
"286 678 OFFCURVE",
"302 678 CURVE SMOOTH",
"316 678 OFFCURVE",
"332 695 OFFCURVE",
"378 732 CURVE SMOOTH",
"457 796 LINE",
"432 832 LINE",
"306 769 LINE",
"184 834 LINE"
);
}
);
width = 572;
},
{
components = (
{
name = E;
}
);
layerId = "4843E09C-13E2-4232-9E55-A4E7C049DCE9";
paths = (
{
closed = 1;
nodes = (
"137 792 LINE",
"260 701 LINE SMOOTH",
"272 692 OFFCURVE",
"295 671 OFFCURVE",
"312 671 CURVE SMOOTH",
"328 671 OFFCURVE",
"350 689 OFFCURVE",
"366 702 CURVE SMOOTH",
"486 802 LINE",
"457 844 LINE",
"318 782 LINE",
"171 844 LINE"
);
}
);
width = 581;
}
);
unicode = 011A;
},
{
glyphname = Ecircumflex;
layers = (
{
components = (
{
name = E;
}
);
layerId = "D905F18B-B0C6-4EFF-A833-0E5BFD426C49";
paths = (
{
closed = 1;
nodes = (
"174 680 LINE",
"300 743 LINE",
"422 678 LINE",
"455 719 LINE",
"381 780 LINE SMOOTH",
"342 812 OFFCURVE",
"320 834 OFFCURVE",
"304 834 CURVE SMOOTH",
"290 834 OFFCURVE",
"274 817 OFFCURVE",
"228 780 CURVE SMOOTH",
"149 716 LINE"
);
}
);
width = 572;
},
{
components = (
{
name = E;
}
);
layerId = "4843E09C-13E2-4232-9E55-A4E7C049DCE9";
paths = (
{
closed = 1;
nodes = (
"145 671 LINE",
"286 733 LINE",
"434 671 LINE",
"465 721 LINE",
"344 814 LINE SMOOTH",
"328 826 OFFCURVE",
"309 844 OFFCURVE",
"294 844 CURVE SMOOTH",
"286 844 OFFCURVE",
"278 844 OFFCURVE",
"240 813 CURVE SMOOTH",
"118 712 LINE"
);
}
);
width = 581;
}
);
unicode = 00CA;
},
{
glyphname = Edieresis;
layers = (
{
components = (
{
name = E;
}
);
layerId = "D905F18B-B0C6-4EFF-A833-0E5BFD426C49";
paths = (
{
closed = 1;
nodes = (
"450 693 OFFCURVE",
"470 722 OFFCURVE",
"470 755 CURVE SMOOTH",
"470 788 OFFCURVE",
"450 809 OFFCURVE",
"419 809 CURVE SMOOTH",
"386 809 OFFCURVE",
"364 781 OFFCURVE",
"364 749 CURVE SMOOTH",
"364 716 OFFCURVE",
"384 693 OFFCURVE",
"415 693 CURVE SMOOTH"
);
},
{
closed = 1;
nodes = (
"239 693 OFFCURVE",
"259 722 OFFCURVE",
"259 755 CURVE SMOOTH",
"259 788 OFFCURVE",
"239 809 OFFCURVE",
"208 809 CURVE SMOOTH",
"175 809 OFFCURVE",
"153 781 OFFCURVE",
"153 749 CURVE SMOOTH",
"153 716 OFFCURVE",
"173 693 OFFCURVE",
"204 693 CURVE SMOOTH"
);
}
);
width = 572;
},
{
components = (
{
name = E;
}
);
layerId = "4843E09C-13E2-4232-9E55-A4E7C049DCE9";
paths = (
{
closed = 1;
nodes = (
"457 695 OFFCURVE",
"488 732 OFFCURVE",
"488 775 CURVE SMOOTH",
"488 820 OFFCURVE",
"457 847 OFFCURVE",
"417 847 CURVE SMOOTH",
"374 847 OFFCURVE",
"339 810 OFFCURVE",
"339 768 CURVE SMOOTH",
"339 725 OFFCURVE",
"369 695 OFFCURVE",
"409 695 CURVE SMOOTH"
);
},
{
closed = 1;
nodes = (
"212 695 OFFCURVE",
"243 732 OFFCURVE",
"243 775 CURVE SMOOTH",
"243 820 OFFCURVE",
"212 847 OFFCURVE",
"172 847 CURVE SMOOTH",
"129 847 OFFCURVE",
"94 810 OFFCURVE",
"94 768 CURVE SMOOTH",
"94 725 OFFCURVE",
"124 695 OFFCURVE",
"164 695 CURVE SMOOTH"
);
}
);
width = 581;
}
);
unicode = 00CB;
},
{
glyphname = Edotaccent;
layers = (
{
components = (
{
name = E;
}
);
layerId = "D905F18B-B0C6-4EFF-A833-0E5BFD426C49";
paths = (
{
closed = 1;
nodes = (
"349 694 OFFCURVE",
"371 726 OFFCURVE",
"371 762 CURVE SMOOTH",
"371 799 OFFCURVE",
"349 822 OFFCURVE",
"315 822 CURVE SMOOTH",
"279 822 OFFCURVE",
"254 791 OFFCURVE",
"254 756 CURVE SMOOTH",
"254 719 OFFCURVE",
"276 694 OFFCURVE",
"310 694 CURVE SMOOTH"
);
}
);
width = 572;
},
{
components = (
{
name = E;
}
);
layerId = "4843E09C-13E2-4232-9E55-A4E7C049DCE9";
paths = (
{
closed = 1;
nodes = (
"349 691 OFFCURVE",
"383 732 OFFCURVE",
"383 779 CURVE SMOOTH",
"383 828 OFFCURVE",
"349 857 OFFCURVE",
"305 857 CURVE SMOOTH",
"258 857 OFFCURVE",
"220 817 OFFCURVE",
"220 771 CURVE SMOOTH",
"220 724 OFFCURVE",
"253 691 OFFCURVE",
"297 691 CURVE SMOOTH"
);
}
);
width = 581;
}
);
unicode = 0116;
},
{
glyphname = Egrave;
layers = (
{
components = (
{
name = E;
}
);
layerId = "D905F18B-B0C6-4EFF-A833-0E5BFD426C49";
paths = (
{
closed = 1;
nodes = (
"387 681 LINE",
"409 716 LINE",
"278 814 LINE SMOOTH",
"261 826 OFFCURVE",
"247 836 OFFCURVE",
"236 836 CURVE SMOOTH",
"217 836 OFFCURVE",
"198 814 OFFCURVE",
"194 767 CURVE"
);
}
);
width = 572;
},
{
components = (
{
name = E;
}
);
layerId = "4843E09C-13E2-4232-9E55-A4E7C049DCE9";
paths = (
{
closed = 1;
nodes = (
"379 671 LINE",
"404 721 LINE",
"261 820 LINE",
"243 830 OFFCURVE",
"224 844 OFFCURVE",
"209 844 CURVE SMOOTH",
"161 844 OFFCURVE",
"145 791 OFFCURVE",
"159 739 CURVE"
);
}
);
width = 581;
}
);
unicode = 00C8;
},
{
glyphname = Emacron;
layers = (
{
components = (
{
name = E;
}
);
layerId = "D905F18B-B0C6-4EFF-A833-0E5BFD426C49";
paths = (
{
closed = 1;
nodes = (
"135 723 LINE",
"467 723 LINE",
"477 781 LINE",
"145 781 LINE"
);
}
);
width = 572;
},
{
components = (
{
name = E;
}
);
layerId = "4843E09C-13E2-4232-9E55-A4E7C049DCE9";
paths = (
{
closed = 1;
nodes = (
"112 723 LINE",
"458 723 LINE",
"471 806 LINE",
"125 806 LINE"
);
}
);
width = 581;
}
);
unicode = 0112;
},
{
glyphname = Eogonek;
layers = (
{
layerId = "D905F18B-B0C6-4EFF-A833-0E5BFD426C49";
paths = (
{
closed = 1;
nodes = (
"55 0 LINE",
"461 0 LINE",
"435 -29 OFFCURVE",
"409 -69 OFFCURVE",
"409 -113 CURVE SMOOTH",
"409 -162 OFFCURVE",
"444 -187 OFFCURVE",
"492 -187 CURVE SMOOTH",
"549 -187 OFFCURVE",
"593 -136 OFFCURVE",
"593 -136 CURVE",
"575 -106 LINE",
"556 -117 OFFCURVE",
"537 -127 OFFCURVE",
"518 -127 CURVE SMOOTH",
"490 -127 OFFCURVE",
"475 -113 OFFCURVE",
"475 -83 CURVE SMOOTH",
"475 -37 OFFCURVE",
"515 8 OFFCURVE",
"521 15 CURVE",
"522 16 LINE",
"535 164 LINE",
"486 164 LINE",
"451 57 LINE",
"331 57 LINE SMOOTH",
"283 57 OFFCURVE",
"255 61 OFFCURVE",
"224 67 CURVE",
"224 305 LINE",
"382 305 LINE",
"397 246 LINE",
"439 246 LINE",
"439 417 LINE",
"397 417 LINE",
"382 358 LINE",
"224 358 LINE",
"224 587 LINE",
"322 593 LINE",
"443 593 LINE",
"464 484 LINE",
"513 484 LINE",
"513 648 LINE",
"55 648 LINE",
"55 605 LINE",
"138 588 LINE",
"138 60 LINE",
"55 43 LINE"
);
}
);
width = 572;
},
{
layerId = "4843E09C-13E2-4232-9E55-A4E7C049DCE9";
paths = (
{
closed = 1;
nodes = (
"35 0 LINE",
"423 0 LINE",
"383 -24 OFFCURVE",
"347 -62 OFFCURVE",
"347 -113 CURVE SMOOTH",
"347 -162 OFFCURVE",
"388 -187 OFFCURVE",
"444 -187 CURVE SMOOTH",
"510 -187 OFFCURVE",
"551 -136 OFFCURVE",
"551 -136 CURVE",
"527 -95 LINE",
"509 -106 OFFCURVE",
"490 -115 OFFCURVE",
"475 -115 CURVE SMOOTH",
"449 -115 OFFCURVE",
"440 -100 OFFCURVE",
"440 -81 CURVE SMOOTH",
"440 -48 OFFCURVE",
"469 -17 OFFCURVE",
"490 0 CURVE",
"541 0 LINE",
"541 197 LINE",
"477 197 LINE",
"449 76 LINE",
"302 76 LINE",
"287 76 OFFCURVE",
"272 76 OFFCURVE",
"257 76 CURVE",
"257 290 LINE",
"359 290 LINE",
"381 214 LINE",
"434 214 LINE",
"434 435 LINE",
"381 435 LINE",
"359 366 LINE",
"257 366 LINE",
"257 565 LINE",
"301 572 LINE",
"439 572 LINE",
"466 460 LINE",
"532 460 LINE",
"532 648 LINE",
"35 648 LINE",
"35 592 LINE",
"115 573 LINE",
"115 75 LINE",
"35 56 LINE"
);
}
);
width = 591;
}
);
unicode = 0118;
},
{
glyphname = F;
layers = (
{
anchors = (
{
name = bottom;
position = "{181, 0}";
},
{
name = top;
position = "{319, 648}";
}
);
layerId = "D905F18B-B0C6-4EFF-A833-0E5BFD426C49";
paths = (
{
closed = 1;
nodes = (
"55 0 LINE",
"338 0 LINE",
"338 49 LINE",
"224 63 LINE",
"224 285 LINE",
"391 285 LINE",
"405 226 LINE",
"447 226 LINE",
"447 398 LINE",
"405 398 LINE",
"391 338 LINE",
"224 338 LINE",
"224 587 LINE",
"322 593 LINE",
"446 593 LINE",
"467 484 LINE",
"517 484 LINE",
"517 648 LINE",
"55 648 LINE",
"55 605 LINE",
"138 588 LINE",
"138 60 LINE",
"55 43 LINE"
);
}
);
width = 517;
},
{
anchors = (
{
name = bottom;
position = "{186, 0}";
},
{
name = top;
position = "{316, 648}";
}
);
layerId = "4843E09C-13E2-4232-9E55-A4E7C049DCE9";
paths = (
{
closed = 1;
nodes = (
"35 0 LINE",
"337 0 LINE",
"337 56 LINE",
"257 75 LINE",
"257 274 LINE",
"376 274 LINE",
"398 197 LINE",
"451 197 LINE",
"451 418 LINE",
"398 418 LINE",
"376 349 LINE",
"257 349 LINE",
"257 565 LINE",
"301 572 LINE",
"429 572 LINE",
"454 460 LINE",
"522 460 LINE",
"522 648 LINE",
"35 648 LINE",
"35 592 LINE",
"115 573 LINE",
"115 75 LINE",
"35 56 LINE"
);
}
);
width = 537;
}
);
unicode = 0046;
},
{
glyphname = G;
layers = (
{
anchors = (
{
name = bottom;
position = "{345, 0}";
},
{
name = top;
position = "{345, 648}";
}
);
layerId = "D905F18B-B0C6-4EFF-A833-0E5BFD426C49";
paths = (
{
closed = 1;
nodes = (
"485 77 LINE",
"447 57 OFFCURVE",
"419 45 OFFCURVE",
"354 45 CURVE SMOOTH",
"201 45 OFFCURVE",
"146 144 OFFCURVE",
"146 326 CURVE SMOOTH",
"146 505 OFFCURVE",
"196 601 OFFCURVE",
"346 601 CURVE SMOOTH",
"432 601 OFFCURVE",
"481 584 OFFCURVE",
"481 584 CURVE",
"510 474 LINE",
"558 474 LINE",
"558 630 LINE",
"538 642 OFFCURVE",
"465 660 OFFCURVE",
"359 660 CURVE SMOOTH",
"159 660 OFFCURVE",
"45 498 OFFCURVE",
"45 316 CURVE SMOOTH",
"45 87 OFFCURVE",
"147 -11 OFFCURVE",
"329 -11 CURVE SMOOTH",
"416 -11 OFFCURVE",
"458 11 OFFCURVE",
"482 27 CURVE",
"496 27 LINE",
"528 0 LINE",
"569 0 LINE",
"569 263 LINE",
"610 271 LINE",
"610 321 LINE",
"413 321 LINE",
"413 278 LINE",
"485 260 LINE"
);
}
);
width = 645;
},
{
anchors = (
{
name = bottom;
position = "{344, 0}";
},
{
name = top;
position = "{368, 648}";
}
);
layerId = "4843E09C-13E2-4232-9E55-A4E7C049DCE9";
paths = (
{
closed = 1;
nodes = (
"441 78 LINE",
"422 71 OFFCURVE",
"395 65 OFFCURVE",
"361 65 CURVE SMOOTH",
"252 65 OFFCURVE",
"198 124 OFFCURVE",
"198 322 CURVE SMOOTH",
"198 500 OFFCURVE",
"253 582 OFFCURVE",
"385 582 CURVE SMOOTH",
"431 582 OFFCURVE",
"462 572 OFFCURVE",
"481 563 CURVE",
"502 455 LINE",
"577 455 LINE",
"577 635 LINE",
"538 645 OFFCURVE",
"476 666 OFFCURVE",
"384 666 CURVE SMOOTH",
"177 666 OFFCURVE",
"35 537 OFFCURVE",
"35 308 CURVE SMOOTH",
"35 96 OFFCURVE",
"134 -18 OFFCURVE",
"335 -18 CURVE SMOOTH",
"414 -18 OFFCURVE",
"464 3 OFFCURVE",
"501 26 CURVE",
"510 26 LINE",
"533 0 LINE",
"583 0 LINE",
"583 259 LINE",
"633 278 LINE",
"633 334 LINE",
"361 334 LINE",
"361 278 LINE",
"441 259 LINE"
);
}
);
width = 648;
}
);
leftKerningGroup = C;
unicode = 0047;
},
{
glyphname = Gbreve;
layers = (
{
layerId = "D905F18B-B0C6-4EFF-A833-0E5BFD426C49";
paths = (
{
closed = 1;
nodes = (
"485 77 LINE",
"447 57 OFFCURVE",
"419 45 OFFCURVE",
"354 45 CURVE SMOOTH",
"201 45 OFFCURVE",
"146 144 OFFCURVE",
"146 326 CURVE SMOOTH",
"146 505 OFFCURVE",
"196 601 OFFCURVE",
"346 601 CURVE SMOOTH",
"432 601 OFFCURVE",
"481 584 OFFCURVE",
"481 584 CURVE",
"510 474 LINE",
"558 474 LINE",
"558 630 LINE",
"538 642 OFFCURVE",
"465 660 OFFCURVE",
"359 660 CURVE SMOOTH",
"159 660 OFFCURVE",
"45 498 OFFCURVE",
"45 316 CURVE SMOOTH",
"45 87 OFFCURVE",
"147 -11 OFFCURVE",
"329 -11 CURVE SMOOTH",
"416 -11 OFFCURVE",
"458 11 OFFCURVE",
"482 27 CURVE",
"496 27 LINE",
"528 0 LINE",
"569 0 LINE",
"569 263 LINE",
"610 271 LINE",
"610 321 LINE",
"413 321 LINE",
"413 278 LINE",
"485 260 LINE"
);
},
{
closed = 1;
nodes = (
"202 808 LINE",
"202 808 OFFCURVE",
"213 692 OFFCURVE",
"343 692 CURVE SMOOTH",
"456 692 OFFCURVE",
"481 813 OFFCURVE",
"481 813 CURVE",
"450 821 LINE",
"450 821 OFFCURVE",
"424 753 OFFCURVE",
"346 753 CURVE SMOOTH",
"280 753 OFFCURVE",
"262 821 OFFCURVE",
"262 821 CURVE"
);
}
);
width = 645;
},
{
layerId = "4843E09C-13E2-4232-9E55-A4E7C049DCE9";
paths = (
{
closed = 1;
nodes = (
"441 78 LINE",
"422 71 OFFCURVE",
"395 65 OFFCURVE",
"361 65 CURVE SMOOTH",
"252 65 OFFCURVE",
"198 124 OFFCURVE",
"198 322 CURVE SMOOTH",
"198 500 OFFCURVE",
"253 582 OFFCURVE",
"385 582 CURVE SMOOTH",
"431 582 OFFCURVE",
"462 572 OFFCURVE",
"481 563 CURVE",
"502 455 LINE",
"574 455 LINE",
"574 635 LINE",
"535 645 OFFCURVE",
"476 666 OFFCURVE",
"384 666 CURVE SMOOTH",
"177 666 OFFCURVE",
"35 537 OFFCURVE",
"35 308 CURVE SMOOTH",
"35 96 OFFCURVE",
"134 -18 OFFCURVE",
"335 -18 CURVE SMOOTH",
"414 -18 OFFCURVE",
"464 3 OFFCURVE",
"501 26 CURVE",
"510 26 LINE",
"533 0 LINE",
"583 0 LINE",
"583 259 LINE",
"633 278 LINE",
"633 334 LINE",
"361 334 LINE",
"361 278 LINE",
"441 259 LINE"
);
},
{
closed = 1;
nodes = (
"151 796 LINE",
"151 796 OFFCURVE",
"196 696 OFFCURVE",
"346 696 CURVE SMOOTH",
"468 696 OFFCURVE",
"520 813 OFFCURVE",
"520 813 CURVE",
"475 845 LINE",
"475 845 OFFCURVE",
"436 789 OFFCURVE",
"346 789 CURVE SMOOTH",
"262 789 OFFCURVE",
"226 851 OFFCURVE",
"226 851 CURVE"
);
}
);
width = 653;
}
);
leftKerningGroup = C;
unicode = 011E;
},
{
glyphname = Gcommaaccent;
layers = (
{
layerId = "D905F18B-B0C6-4EFF-A833-0E5BFD426C49";
paths = (
{
closed = 1;
nodes = (
"485 77 LINE",
"447 57 OFFCURVE",
"419 45 OFFCURVE",
"354 45 CURVE SMOOTH",
"201 45 OFFCURVE",
"146 144 OFFCURVE",
"146 326 CURVE SMOOTH",
"146 505 OFFCURVE",
"196 601 OFFCURVE",
"346 601 CURVE SMOOTH",
"432 601 OFFCURVE",
"481 584 OFFCURVE",
"481 584 CURVE",
"510 474 LINE",
"558 474 LINE",
"558 630 LINE",
"538 642 OFFCURVE",
"465 660 OFFCURVE",
"359 660 CURVE SMOOTH",
"159 660 OFFCURVE",
"45 498 OFFCURVE",
"45 316 CURVE SMOOTH",
"45 87 OFFCURVE",
"147 -11 OFFCURVE",
"329 -11 CURVE SMOOTH",
"416 -11 OFFCURVE",
"458 11 OFFCURVE",
"482 27 CURVE",
"496 27 LINE",
"528 0 LINE",
"569 0 LINE",
"569 263 LINE",
"610 271 LINE",
"610 321 LINE",
"413 321 LINE",
"413 278 LINE",
"485 260 LINE"
);
},
{
closed = 1;
nodes = (
"356 -187 LINE",
"356 -187 OFFCURVE",
"409 -148 OFFCURVE",
"409 -81 CURVE SMOOTH",
"409 -57 OFFCURVE",
"396 -29 OFFCURVE",
"361 -29 CURVE SMOOTH",
"348 -29 OFFCURVE",
"330 -35 OFFCURVE",
"316 -51 CURVE",
"330 -64 OFFCURVE",
"342 -83 OFFCURVE",
"342 -108 CURVE SMOOTH",
"342 -136 OFFCURVE",
"335 -158 OFFCURVE",
"325 -187 CURVE"
);
}
);
width = 645;
},
{
layerId = "4843E09C-13E2-4232-9E55-A4E7C049DCE9";
paths = (
{
closed = 1;
nodes = (
"441 78 LINE",
"422 71 OFFCURVE",
"395 65 OFFCURVE",
"361 65 CURVE SMOOTH",
"252 65 OFFCURVE",
"198 124 OFFCURVE",
"198 322 CURVE SMOOTH",
"198 500 OFFCURVE",
"253 582 OFFCURVE",
"385 582 CURVE SMOOTH",
"431 582 OFFCURVE",
"462 572 OFFCURVE",
"481 563 CURVE",
"502 455 LINE",
"574 455 LINE",
"574 635 LINE",
"535 645 OFFCURVE",
"476 666 OFFCURVE",
"384 666 CURVE SMOOTH",
"177 666 OFFCURVE",
"35 537 OFFCURVE",
"35 308 CURVE SMOOTH",
"35 96 OFFCURVE",
"134 -18 OFFCURVE",
"335 -18 CURVE SMOOTH",
"414 -18 OFFCURVE",
"464 3 OFFCURVE",
"501 26 CURVE",
"510 26 LINE",
"533 0 LINE",
"583 0 LINE",
"583 259 LINE",
"633 278 LINE",
"633 334 LINE",
"361 334 LINE",
"361 278 LINE",
"441 259 LINE"
);
},
{
closed = 1;
nodes = (
"346 -212 LINE",
"346 -212 OFFCURVE",
"414 -150 OFFCURVE",
"414 -83 CURVE SMOOTH",
"414 -54 OFFCURVE",
"397 -24 OFFCURVE",
"352 -24 CURVE SMOOTH",
"326 -24 OFFCURVE",
"310 -38 OFFCURVE",
"296 -54 CURVE",
"296 -54 OFFCURVE",
"316 -73 OFFCURVE",
"316 -118 CURVE SMOOTH",
"316 -162 OFFCURVE",
"302 -212 OFFCURVE",
"302 -212 CURVE"
);
}
);
width = 653;
}
);
leftKerningGroup = C;
unicode = 0122;
},
{
glyphname = H;
layers = (
{
anchors = (
{
name = bottom;
position = "{377, 0}";
},
{
name = center;
position = "{377, 324}";
},
{
name = top;
position = "{377, 648}";
}
);
layerId = "D905F18B-B0C6-4EFF-A833-0E5BFD426C49";
paths = (
{
closed = 1;
nodes = (
"55 0 LINE",
"307 0 LINE",
"307 44 LINE",
"224 59 LINE",
"224 305 LINE",
"529 305 LINE",
"529 59 LINE",
"447 44 LINE",
"447 0 LINE",
"698 0 LINE",
"698 44 LINE",
"616 59 LINE",
"616 589 LINE",
"698 604 LINE",
"698 648 LINE",
"447 648 LINE",
"447 604 LINE",
"529 589 LINE",
"529 360 LINE",
"224 360 LINE",
"224 589 LINE",
"307 604 LINE",
"307 648 LINE",
"55 648 LINE",
"55 604 LINE",
"138 589 LINE",
"138 59 LINE",
"55 44 LINE"
);
}
);
width = 753;
},
{
anchors = (
{
name = bottom;
position = "{381, 0}";
},
{
name = center;
position = "{381, 324}";
},
{
name = top;
position = "{381, 648}";
}
);
layerId = "4843E09C-13E2-4232-9E55-A4E7C049DCE9";
paths = (
{
closed = 1;
nodes = (
"35 0 LINE",
"337 0 LINE",
"337 56 LINE",
"257 75 LINE",
"257 296 LINE",
"505 296 LINE",
"505 75 LINE",
"425 56 LINE",
"425 0 LINE",
"727 0 LINE",
"727 56 LINE",
"647 75 LINE",
"647 573 LINE",
"727 592 LINE",
"727 648 LINE",
"425 648 LINE",
"425 592 LINE",
"505 573 LINE",
"505 373 LINE",
"257 373 LINE",
"257 573 LINE",
"337 592 LINE",
"337 648 LINE",
"35 648 LINE",
"35 592 LINE",
"115 573 LINE",
"115 75 LINE",
"35 56 LINE"
);
}
);
width = 762;
}
);
unicode = 0048;
},
{
color = 6;
glyphname = Hbar;
layers = (
{
anchors = (
{
name = bottom;
position = "{377, 0}";
},
{
name = center;
position = "{377, 324}";
},
{
name = top;
position = "{377, 648}";
}
);
layerId = "D905F18B-B0C6-4EFF-A833-0E5BFD426C49";
paths = (
{
closed = 1;
nodes = (
"307 0 LINE",
"307 44 LINE",
"224 59 LINE",
"224 285 LINE",
"529 285 LINE",
"529 59 LINE",
"447 44 LINE",
"447 0 LINE",
"698 0 LINE",
"698 44 LINE",
"616 59 LINE",
"616 439 LINE",
"698 439 LINE",
"698 494 LINE",
"616 494 LINE",
"616 589 LINE",
"698 604 LINE",
"698 648 LINE",
"447 648 LINE",
"447 604 LINE",
"529 589 LINE",
"529 494 LINE",
"224 494 LINE",
"224 589 LINE",
"307 604 LINE",
"307 648 LINE",
"55 648 LINE",
"55 604 LINE",
"138 589 LINE",
"138 494 LINE",
"60 494 LINE",
"60 439 LINE",
"138 439 LINE",
"138 59 LINE",
"55 44 LINE",
"55 0 LINE"
);
},
{
closed = 1;
nodes = (
"224 439 LINE",
"529 439 LINE",
"529 340 LINE",
"224 340 LINE"
);
}
);
width = 753;
},
{
anchors = (
{
name = bottom;
position = "{381, 0}";
},
{
name = center;
position = "{381, 324}";
},
{
name = top;
position = "{381, 648}";
}
);
layerId = "4843E09C-13E2-4232-9E55-A4E7C049DCE9";
paths = (
{
closed = 1;
nodes = (
"337 0 LINE",
"337 56 LINE",
"257 75 LINE",
"257 256 LINE",
"505 256 LINE",
"505 75 LINE",
"425 56 LINE",
"425 0 LINE",
"727 0 LINE",
"727 56 LINE",
"647 75 LINE",
"647 417 LINE",
"731 417 LINE",
"731 494 LINE",
"647 494 LINE",
"647 573 LINE",
"727 592 LINE",
"727 648 LINE",
"425 648 LINE",
"425 592 LINE",
"505 573 LINE",
"505 494 LINE",
"257 494 LINE",
"257 573 LINE",
"337 592 LINE",
"337 648 LINE",
"35 648 LINE",
"35 592 LINE",
"115 573 LINE",
"115 494 LINE",
"31 494 LINE",
"31 417 LINE",
"115 417 LINE",
"115 75 LINE",
"35 56 LINE",
"35 0 LINE"
);
},
{
closed = 1;
nodes = (
"257 417 LINE",
"505 417 LINE",
"505 333 LINE",
"257 333 LINE"
);
}
);
width = 762;
}
);
unicode = 0126;
},
{
glyphname = I;
layers = (
{
anchors = (
{
name = bottom;
position = "{185, 0}";
},
{
name = ogonek;
position = "{310, 10}";
},
{
name = top;
position = "{185, 648}";
}
);
layerId = "D905F18B-B0C6-4EFF-A833-0E5BFD426C49";
paths = (
{
closed = 1;
nodes = (
"59 0 LINE",
"310 0 LINE",
"310 44 LINE",
"228 59 LINE",
"228 589 LINE",
"310 604 LINE",
"310 648 LINE",
"59 648 LINE",
"59 604 LINE",
"141 589 LINE",
"141 59 LINE",
"59 44 LINE"
);
}
);
width = 369;
},
{
anchors = (
{
name = bottom;
position = "{186, 0}";
},
{
name = ogonek;
position = "{335, 10}";
},
{
name = top;
position = "{186, 648}";
}
);
layerId = "4843E09C-13E2-4232-9E55-A4E7C049DCE9";
paths = (
{
closed = 1;
nodes = (
"35 0 LINE",
"337 0 LINE",
"337 56 LINE",
"257 75 LINE",
"257 573 LINE",
"337 592 LINE",
"337 648 LINE",
"35 648 LINE",
"35 592 LINE",
"115 573 LINE",
"115 75 LINE",
"35 56 LINE"
);
}
);
width = 372;
}
);
unicode = 0049;
},
{
glyphname = Iacute;
layers = (
{
layerId = "D905F18B-B0C6-4EFF-A833-0E5BFD426C49";
paths = (
{
closed = 1;
nodes = (
"59 0 LINE",
"310 0 LINE",
"310 44 LINE",
"228 59 LINE",
"228 589 LINE",
"310 604 LINE",
"310 648 LINE",
"59 648 LINE",
"59 604 LINE",
"141 589 LINE",
"141 59 LINE",
"59 44 LINE"
);
},
{
closed = 1;
nodes = (
"106 681 LINE",
"299 767 LINE",
"295 814 OFFCURVE",
"276 836 OFFCURVE",
"257 836 CURVE SMOOTH",
"246 836 OFFCURVE",
"232 826 OFFCURVE",
"215 814 CURVE SMOOTH",
"84 716 LINE"
);
}
);
width = 369;
},
{
layerId = "4843E09C-13E2-4232-9E55-A4E7C049DCE9";
paths = (
{
closed = 1;
nodes = (
"35 0 LINE",
"337 0 LINE",
"337 56 LINE",
"257 75 LINE",
"257 573 LINE",
"337 592 LINE",
"337 648 LINE",
"35 648 LINE",
"35 592 LINE",
"115 573 LINE",
"115 75 LINE",
"35 56 LINE"
);
},
{
closed = 1;
nodes = (
"85 671 LINE",
"305 739 LINE",
"318 788 OFFCURVE",
"305 844 OFFCURVE",
"255 844 CURVE SMOOTH",
"240 844 OFFCURVE",
"221 830 OFFCURVE",
"203 820 CURVE",
"60 721 LINE"
);
}
);
width = 372;
}
);
unicode = 00CD;
},
{
glyphname = Icircumflex;
layers = (
{
layerId = "D905F18B-B0C6-4EFF-A833-0E5BFD426C49";
paths = (
{
closed = 1;
nodes = (
"59 0 LINE",
"310 0 LINE",
"310 44 LINE",
"228 59 LINE",
"228 589 LINE",
"310 604 LINE",
"310 648 LINE",
"59 648 LINE",
"59 604 LINE",
"141 589 LINE",
"141 59 LINE",
"59 44 LINE"
);
},
{
closed = 1;
nodes = (
"52 680 LINE",
"178 743 LINE",
"300 678 LINE",
"333 719 LINE",
"259 780 LINE SMOOTH",
"220 812 OFFCURVE",
"198 834 OFFCURVE",
"182 834 CURVE SMOOTH",
"168 834 OFFCURVE",
"152 817 OFFCURVE",
"106 780 CURVE SMOOTH",
"27 716 LINE"
);
}
);
width = 369;
},
{
layerId = "4843E09C-13E2-4232-9E55-A4E7C049DCE9";
paths = (
{
closed = 1;
nodes = (
"35 0 LINE",
"337 0 LINE",
"337 56 LINE",
"257 75 LINE",
"257 573 LINE",
"337 592 LINE",
"337 648 LINE",
"35 648 LINE",
"35 592 LINE",
"115 573 LINE",
"115 75 LINE",
"35 56 LINE"
);
},
{
closed = 1;
nodes = (
"39 671 LINE",
"180 733 LINE",
"328 671 LINE",
"359 721 LINE",
"238 814 LINE SMOOTH",
"205 839 OFFCURVE",
"196 844 OFFCURVE",
"184 844 CURVE SMOOTH",
"175 844 OFFCURVE",
"162 836 OFFCURVE",
"134 813 CURVE SMOOTH",
"12 712 LINE"
);
}
);
width = 372;
}
);
unicode = 00CE;
},
{
glyphname = Idieresis;
layers = (
{
layerId = "D905F18B-B0C6-4EFF-A833-0E5BFD426C49";
paths = (
{
closed = 1;
nodes = (
"310 0 LINE",
"310 44 LINE",
"228 59 LINE",
"228 589 LINE",
"310 604 LINE",
"310 648 LINE",
"59 648 LINE",
"59 604 LINE",
"141 589 LINE",
"141 59 LINE",
"59 44 LINE",
"59 0 LINE"
);
},
{
closed = 1;
nodes = (
"112 693 OFFCURVE",
"132 722 OFFCURVE",
"132 755 CURVE SMOOTH",
"132 788 OFFCURVE",
"112 809 OFFCURVE",
"81 809 CURVE SMOOTH",
"48 809 OFFCURVE",
"26 781 OFFCURVE",
"26 749 CURVE SMOOTH",
"26 716 OFFCURVE",
"46 693 OFFCURVE",
"77 693 CURVE SMOOTH"
);
},
{
closed = 1;
nodes = (
"323 693 OFFCURVE",
"343 722 OFFCURVE",
"343 755 CURVE SMOOTH",
"343 788 OFFCURVE",
"323 809 OFFCURVE",
"292 809 CURVE SMOOTH",
"259 809 OFFCURVE",
"237 781 OFFCURVE",
"237 749 CURVE SMOOTH",
"237 716 OFFCURVE",
"257 693 OFFCURVE",
"288 693 CURVE SMOOTH"
);
}
);
width = 369;
},
{
layerId = "4843E09C-13E2-4232-9E55-A4E7C049DCE9";
paths = (
{
closed = 1;
nodes = (
"337 0 LINE",
"337 56 LINE",
"257 75 LINE",
"257 573 LINE",
"337 592 LINE",
"337 648 LINE",
"35 648 LINE",
"35 592 LINE",
"115 573 LINE",
"115 75 LINE",
"35 56 LINE",
"35 0 LINE"
);
},
{
closed = 1;
nodes = (
"107 695 OFFCURVE",
"138 732 OFFCURVE",
"138 775 CURVE SMOOTH",
"138 820 OFFCURVE",
"107 847 OFFCURVE",
"67 847 CURVE SMOOTH",
"24 847 OFFCURVE",
"-11 810 OFFCURVE",
"-11 768 CURVE SMOOTH",
"-11 725 OFFCURVE",
"19 695 OFFCURVE",
"59 695 CURVE SMOOTH"
);
},
{
closed = 1;
nodes = (
"352 695 OFFCURVE",
"383 732 OFFCURVE",
"383 775 CURVE SMOOTH",
"383 820 OFFCURVE",
"352 847 OFFCURVE",
"312 847 CURVE SMOOTH",
"269 847 OFFCURVE",
"234 810 OFFCURVE",
"234 768 CURVE SMOOTH",
"234 725 OFFCURVE",
"264 695 OFFCURVE",
"304 695 CURVE SMOOTH"
);
}
);
width = 372;
}
);
unicode = 00CF;
},
{
glyphname = Idotaccent;
layers = (
{
layerId = "D905F18B-B0C6-4EFF-A833-0E5BFD426C49";
paths = (
{
closed = 1;
nodes = (
"59 0 LINE",
"310 0 LINE",
"310 44 LINE",
"228 59 LINE",
"228 589 LINE",
"310 604 LINE",
"310 648 LINE",
"59 648 LINE",
"59 604 LINE",
"141 589 LINE",
"141 59 LINE",
"59 44 LINE"
);
},
{
closed = 1;
nodes = (
"221 694 OFFCURVE",
"243 726 OFFCURVE",
"243 762 CURVE SMOOTH",
"243 799 OFFCURVE",
"221 822 OFFCURVE",
"187 822 CURVE SMOOTH",
"151 822 OFFCURVE",
"126 791 OFFCURVE",
"126 756 CURVE SMOOTH",
"126 719 OFFCURVE",
"148 694 OFFCURVE",
"182 694 CURVE SMOOTH"
);
}
);
width = 369;
},
{
layerId = "4843E09C-13E2-4232-9E55-A4E7C049DCE9";
paths = (
{
closed = 1;
nodes = (
"35 0 LINE",
"337 0 LINE",
"337 56 LINE",
"257 75 LINE",
"257 573 LINE",
"337 592 LINE",
"337 648 LINE",
"35 648 LINE",
"35 592 LINE",
"115 573 LINE",
"115 75 LINE",
"35 56 LINE"
);
},
{
closed = 1;
nodes = (
"232 691 OFFCURVE",
"266 732 OFFCURVE",
"266 779 CURVE SMOOTH",
"266 828 OFFCURVE",
"232 857 OFFCURVE",
"188 857 CURVE SMOOTH",
"141 857 OFFCURVE",
"103 817 OFFCURVE",
"103 771 CURVE SMOOTH",
"103 724 OFFCURVE",
"136 691 OFFCURVE",
"180 691 CURVE SMOOTH"
);
}
);
width = 372;
}
);
unicode = 0130;
},
{
glyphname = Igrave;
layers = (
{
layerId = "D905F18B-B0C6-4EFF-A833-0E5BFD426C49";
paths = (
{
closed = 1;
nodes = (
"59 0 LINE",
"310 0 LINE",
"310 44 LINE",
"228 59 LINE",
"228 589 LINE",
"310 604 LINE",
"310 648 LINE",
"59 648 LINE",
"59 604 LINE",
"141 589 LINE",
"141 59 LINE",
"59 44 LINE"
);
},
{
closed = 1;
nodes = (
"268 681 LINE",
"290 716 LINE",
"159 814 LINE SMOOTH",
"142 826 OFFCURVE",
"128 836 OFFCURVE",
"117 836 CURVE SMOOTH",
"98 836 OFFCURVE",
"79 814 OFFCURVE",
"75 767 CURVE"
);
}
);
width = 369;
},
{
layerId = "4843E09C-13E2-4232-9E55-A4E7C049DCE9";
paths = (
{
closed = 1;
nodes = (
"35 0 LINE",
"337 0 LINE",
"337 56 LINE",
"257 75 LINE",
"257 573 LINE",
"337 592 LINE",
"337 648 LINE",
"35 648 LINE",
"35 592 LINE",
"115 573 LINE",
"115 75 LINE",
"35 56 LINE"
);
},
{
closed = 1;
nodes = (
"278 671 LINE",
"303 721 LINE",
"160 820 LINE",
"142 830 OFFCURVE",
"123 844 OFFCURVE",
"108 844 CURVE SMOOTH",
"60 844 OFFCURVE",
"44 791 OFFCURVE",
"58 739 CURVE"
);
}
);
width = 372;
}
);
unicode = 00CC;
},
{
glyphname = Imacron;
layers = (
{
layerId = "D905F18B-B0C6-4EFF-A833-0E5BFD426C49";
paths = (
{
closed = 1;
nodes = (
"310 0 LINE",
"310 44 LINE",
"228 59 LINE",
"228 589 LINE",
"310 604 LINE",
"310 648 LINE",
"59 648 LINE",
"59 604 LINE",
"141 589 LINE",
"141 59 LINE",
"59 44 LINE",
"59 0 LINE"
);
},
{
closed = 1;
nodes = (
"325 723 LINE",
"335 781 LINE",
"43 781 LINE",
"33 723 LINE"
);
}
);
width = 369;
},
{
layerId = "4843E09C-13E2-4232-9E55-A4E7C049DCE9";
paths = (
{
closed = 1;
nodes = (
"337 0 LINE",
"337 56 LINE",
"257 75 LINE",
"257 573 LINE",
"337 592 LINE",
"337 648 LINE",
"35 648 LINE",
"35 592 LINE",
"115 573 LINE",
"115 75 LINE",
"35 56 LINE",
"35 0 LINE"
);
},
{
closed = 1;
nodes = (
"352 738 LINE",
"365 821 LINE",
"19 821 LINE",
"6 738 LINE"
);
}
);
width = 372;
}
);
unicode = 012A;
},
{
glyphname = Iogonek;
layers = (
{
layerId = "D905F18B-B0C6-4EFF-A833-0E5BFD426C49";
paths = (
{
closed = 1;
nodes = (
"59 0 LINE",
"232 0 LINE",
"193 -24 OFFCURVE",
"157 -62 OFFCURVE",
"157 -113 CURVE SMOOTH",
"157 -162 OFFCURVE",
"192 -187 OFFCURVE",
"240 -187 CURVE SMOOTH",
"297 -187 OFFCURVE",
"341 -136 OFFCURVE",
"341 -136 CURVE",
"323 -106 LINE",
"304 -117 OFFCURVE",
"282 -127 OFFCURVE",
"266 -127 CURVE SMOOTH",
"238 -127 OFFCURVE",
"223 -113 OFFCURVE",
"223 -83 CURVE SMOOTH",
"223 -49 OFFCURVE",
"256 -18 OFFCURVE",
"279 0 CURVE",
"310 0 LINE",
"310 44 LINE",
"228 59 LINE",
"228 589 LINE",
"310 604 LINE",
"310 648 LINE",
"59 648 LINE",
"59 604 LINE",
"141 589 LINE",
"141 59 LINE",
"59 44 LINE"
);
}
);
width = 369;
},
{
layerId = "4843E09C-13E2-4232-9E55-A4E7C049DCE9";
paths = (
{
closed = 1;
nodes = (
"35 0 LINE",
"209 0 LINE",
"169 -24 OFFCURVE",
"133 -62 OFFCURVE",
"133 -113 CURVE SMOOTH",
"133 -162 OFFCURVE",
"174 -187 OFFCURVE",
"230 -187 CURVE SMOOTH",
"296 -187 OFFCURVE",
"337 -136 OFFCURVE",
"337 -136 CURVE",
"313 -95 LINE",
"295 -106 OFFCURVE",
"276 -115 OFFCURVE",
"261 -115 CURVE SMOOTH",
"235 -115 OFFCURVE",
"226 -100 OFFCURVE",
"226 -81 CURVE SMOOTH",
"226 -48 OFFCURVE",
"255 -17 OFFCURVE",
"276 0 CURVE",
"337 0 LINE",
"337 56 LINE",
"257 75 LINE",
"257 573 LINE",
"337 592 LINE",
"337 648 LINE",
"35 648 LINE",
"35 592 LINE",
"115 573 LINE",
"115 75 LINE",
"35 56 LINE"
);
}
);
width = 372;
}
);
unicode = 012E;
},
{
glyphname = J;
layers = (
{
anchors = (
{
name = bottom;
position = "{137, 0}";
},
{
name = top;
position = "{239, 648}";
}
);
layerId = "D905F18B-B0C6-4EFF-A833-0E5BFD426C49";
paths = (
{
closed = 1;
nodes = (
"10 13 LINE",
"10 13 OFFCURVE",
"61 -14 OFFCURVE",
"135 -14 CURVE SMOOTH",
"227 -14 OFFCURVE",
"282 20 OFFCURVE",
"282 111 CURVE SMOOTH",
"282 589 LINE",
"355 604 LINE",
"355 648 LINE",
"100 648 LINE",
"100 604 LINE",
"195 587 LINE",
"195 99 LINE SMOOTH",
"195 66 OFFCURVE",
"182 37 OFFCURVE",
"137 37 CURVE SMOOTH",
"109 37 OFFCURVE",
"87 47 OFFCURVE",
"87 47 CURVE",
"58 157 LINE",
"10 157 LINE"
);
}
);
width = 400;
},
{
anchors = (
{
name = bottom;
position = "{146, 0}";
},
{
name = top;
position = "{258, 648}";
}
);
layerId = "4843E09C-13E2-4232-9E55-A4E7C049DCE9";
paths = (
{
closed = 1;
nodes = (
"0 15 LINE",
"24 0 OFFCURVE",
"77 -18 OFFCURVE",
"146 -18 CURVE SMOOTH",
"301 -18 OFFCURVE",
"329 49 OFFCURVE",
"329 120 CURVE SMOOTH",
"329 573 LINE",
"409 592 LINE",
"409 648 LINE",
"107 648 LINE",
"107 592 LINE",
"187 573 LINE",
"187 120 LINE SMOOTH",
"187 85 OFFCURVE",
"179 65 OFFCURVE",
"131 65 CURVE SMOOTH",
"109 65 OFFCURVE",
"96 72 OFFCURVE",
"96 72 CURVE",
"70 193 LINE",
"0 193 LINE"
);
}
);
width = 415;
}
);
unicode = 004A;
},
{
glyphname = K;
layers = (
{
anchors = (
{
name = bottom;
position = "{323, 0}";
},
{
name = top;
position = "{342, 648}";
}
);
layerId = "D905F18B-B0C6-4EFF-A833-0E5BFD426C49";
paths = (
{
closed = 1;
nodes = (
"55 0 LINE",
"307 0 LINE",
"307 44 LINE",
"224 59 LINE",
"224 312 LINE",
"257 312 LINE",
"450 29 LINE SMOOTH",
"467 4 OFFCURVE",
"479 0 OFFCURVE",
"511 0 CURVE SMOOTH",
"605 0 LINE",
"605 45 LINE",
"541 60 LINE",
"332 358 LINE",
"528 592 LINE",
"585 604 LINE",
"585 648 LINE",
"381 648 LINE",
"381 605 LINE",
"439 593 LINE",
"439 582 LINE",
"255 359 LINE",
"224 359 LINE",
"224 589 LINE",
"307 604 LINE",
"307 648 LINE",
"55 648 LINE",
"55 604 LINE",
"138 589 LINE",
"138 59 LINE",
"55 44 LINE"
);
}
);
width = 600;
},
{
anchors = (
{
name = bottom;
position = "{337, 0}";
},
{
name = top;
position = "{361, 648}";
}
);
layerId = "4843E09C-13E2-4232-9E55-A4E7C049DCE9";
paths = (
{
closed = 1;
nodes = (
"35 0 LINE",
"337 0 LINE",
"337 56 LINE",
"257 75 LINE",
"257 291 LINE",
"270 291 LINE",
"436 45 LINE SMOOTH",
"455 17 OFFCURVE",
"470 0 OFFCURVE",
"504 0 CURVE SMOOTH",
"654 0 LINE",
"654 56 LINE",
"573 76 LINE",
"380 356 LINE",
"556 573 LINE",
"625 592 LINE",
"625 648 LINE",
"392 648 LINE",
"392 592 LINE",
"440 580 LINE",
"440 563 LINE",
"272 356 LINE",
"257 356 LINE",
"257 573 LINE",
"337 592 LINE",
"337 648 LINE",
"35 648 LINE",
"35 592 LINE",
"115 573 LINE",
"115 75 LINE",
"35 56 LINE"
);
}
);
width = 634;
}
);
unicode = 004B;
},
{
glyphname = Kcommaaccent;
layers = (
{
layerId = "D905F18B-B0C6-4EFF-A833-0E5BFD426C49";
paths = (
{
closed = 1;
nodes = (
"307 0 LINE",
"307 44 LINE",
"224 59 LINE",
"224 312 LINE",
"257 312 LINE",
"450 29 LINE SMOOTH",
"467 4 OFFCURVE",
"479 0 OFFCURVE",
"511 0 CURVE SMOOTH",
"605 0 LINE",
"605 45 LINE",
"541 60 LINE",
"332 358 LINE",
"528 592 LINE",
"585 604 LINE",
"585 648 LINE",
"381 648 LINE",
"381 605 LINE",
"439 593 LINE",
"439 582 LINE",
"255 359 LINE",
"224 359 LINE",
"224 589 LINE",
"307 604 LINE",
"307 648 LINE",
"55 648 LINE",
"55 604 LINE",
"138 589 LINE",
"138 59 LINE",
"55 44 LINE",
"55 0 LINE"
);
},
{
closed = 1;
nodes = (
"339 -187 LINE",
"339 -187 OFFCURVE",
"392 -148 OFFCURVE",
"392 -81 CURVE SMOOTH",
"392 -57 OFFCURVE",
"379 -29 OFFCURVE",
"344 -29 CURVE SMOOTH",
"331 -29 OFFCURVE",
"313 -35 OFFCURVE",
"299 -51 CURVE",
"313 -64 OFFCURVE",
"325 -83 OFFCURVE",
"325 -108 CURVE SMOOTH",
"325 -136 OFFCURVE",
"318 -158 OFFCURVE",
"308 -187 CURVE"
);
}
);
width = 600;
},
{
layerId = "4843E09C-13E2-4232-9E55-A4E7C049DCE9";
paths = (
{
closed = 1;
nodes = (
"337 0 LINE",
"337 56 LINE",
"257 75 LINE",
"257 291 LINE",
"270 291 LINE",
"436 45 LINE SMOOTH",
"455 17 OFFCURVE",
"470 0 OFFCURVE",
"504 0 CURVE SMOOTH",
"654 0 LINE",
"654 56 LINE",
"573 76 LINE",
"380 356 LINE",
"556 573 LINE",
"625 592 LINE",
"625 648 LINE",
"392 648 LINE",
"392 592 LINE",
"440 580 LINE",
"440 563 LINE",
"272 356 LINE",
"257 356 LINE",
"257 573 LINE",
"337 592 LINE",
"337 648 LINE",
"35 648 LINE",
"35 592 LINE",
"115 573 LINE",
"115 75 LINE",
"35 56 LINE",
"35 0 LINE"
);
},
{
closed = 1;
nodes = (
"333 -212 LINE",
"333 -212 OFFCURVE",
"401 -150 OFFCURVE",
"401 -83 CURVE SMOOTH",
"401 -54 OFFCURVE",
"384 -24 OFFCURVE",
"339 -24 CURVE SMOOTH",
"313 -24 OFFCURVE",
"297 -38 OFFCURVE",
"283 -54 CURVE",
"283 -54 OFFCURVE",
"303 -73 OFFCURVE",
"303 -118 CURVE SMOOTH",
"303 -162 OFFCURVE",
"289 -212 OFFCURVE",
"289 -212 CURVE"
);
}
);
width = 647;
}
);
unicode = 0136;
},
{
glyphname = L;
layers = (
{
anchors = (
{
name = bottom;
position = "{289, 0}";
},
{
name = center;
position = "{181, 324}";
},
{
name = top;
position = "{181, 648}";
},
{
name = topright;
position = "{422, 648}";
}
);
layerId = "D905F18B-B0C6-4EFF-A833-0E5BFD426C49";
paths = (
{
closed = 1;
nodes = (
"55 0 LINE",
"506 0 LINE",
"506 162 LINE",
"457 162 LINE",
"435 55 LINE",
"322 55 LINE",
"224 63 LINE",
"224 586 LINE",
"315 601 LINE",
"315 648 LINE",
"55 648 LINE",
"55 605 LINE",
"138 588 LINE",
"138 60 LINE",
"55 43 LINE"
);
}
);
width = 523;
},
{
anchors = (
{
name = bottom;
position = "{273, 0}";
},
{
name = center;
position = "{186, 324}";
},
{
name = top;
position = "{186, 648}";
},
{
name = topright;
position = "{503, 648}";
}
);
layerId = "4843E09C-13E2-4232-9E55-A4E7C049DCE9";
paths = (
{
closed = 1;
nodes = (
"35 0 LINE",
"518 0 LINE",
"518 188 LINE",
"452 188 LINE",
"425 76 LINE",
"308 76 LINE",
"257 83 LINE",
"257 573 LINE",
"337 592 LINE",
"337 648 LINE",
"35 648 LINE",
"35 592 LINE",
"115 573 LINE",
"115 75 LINE",
"35 56 LINE"
);
}
);
width = 523;
}
);
unicode = 004C;
},
{
color = 7;
glyphname = LJ;
layers = (
{
anchors = (
{
name = bottom;
position = "{289, 0}";
},
{
name = center;
position = "{181, 324}";
},
{
name = top;
position = "{181, 648}";
},
{
name = topright;
position = "{422, 648}";
}
);
components = (
{
name = J;
transform = "{1, 0, 0, 1, 523, 0}";
}
);
layerId = "D905F18B-B0C6-4EFF-A833-0E5BFD426C49";
paths = (
{
closed = 1;
nodes = (
"55 0 LINE",
"486 0 LINE",
"486 162 LINE",
"437 162 LINE",
"415 55 LINE",
"322 55 LINE",
"224 63 LINE",
"224 586 LINE",
"315 601 LINE",
"315 648 LINE",
"55 648 LINE",
"55 605 LINE",
"138 588 LINE",
"138 60 LINE",
"55 43 LINE"
);
}
);
width = 923;
},
{
anchors = (
{
name = bottom;
position = "{273, 0}";
},
{
name = center;
position = "{186, 324}";
},
{
name = top;
position = "{186, 648}";
},
{
name = topright;
position = "{503, 648}";
}
);
components = (
{
name = J;
transform = "{1, 0, 0, 1, 523, 0}";
}
);
layerId = "4843E09C-13E2-4232-9E55-A4E7C049DCE9";
paths = (
{
closed = 1;
nodes = (
"35 0 LINE",
"488 0 LINE",
"488 188 LINE",
"422 188 LINE",
"395 76 LINE",
"308 76 LINE",
"257 83 LINE",
"257 573 LINE",
"337 592 LINE",
"337 648 LINE",
"35 648 LINE",
"35 592 LINE",
"115 573 LINE",
"115 75 LINE",
"35 56 LINE"
);
}
);
width = 938;
}
);
unicode = 01C7;
},
{
glyphname = Lacute;
layers = (
{
layerId = "D905F18B-B0C6-4EFF-A833-0E5BFD426C49";
paths = (
{
closed = 1;
nodes = (
"506 0 LINE",
"506 162 LINE",
"457 162 LINE",
"435 55 LINE",
"322 55 LINE",
"224 63 LINE",
"224 586 LINE",
"315 601 LINE",
"315 648 LINE",
"55 648 LINE",
"55 605 LINE",
"138 588 LINE",
"138 60 LINE",
"55 43 LINE",
"55 0 LINE"
);
},
{
closed = 1;
nodes = (
"345 767 LINE",
"341 814 OFFCURVE",
"322 836 OFFCURVE",
"303 836 CURVE SMOOTH",
"292 836 OFFCURVE",
"278 826 OFFCURVE",
"261 814 CURVE SMOOTH",
"130 716 LINE",
"152 681 LINE"
);
}
);
width = 523;
},
{
layerId = "4843E09C-13E2-4232-9E55-A4E7C049DCE9";
paths = (
{
closed = 1;
nodes = (
"518 0 LINE",
"518 188 LINE",
"452 188 LINE",
"425 76 LINE",
"308 76 LINE",
"257 83 LINE",
"257 573 LINE",
"337 592 LINE",
"337 648 LINE",
"35 648 LINE",
"35 592 LINE",
"115 573 LINE",
"115 75 LINE",
"35 56 LINE",
"35 0 LINE"
);
},
{
closed = 1;
nodes = (
"336 739 LINE",
"349 788 OFFCURVE",
"336 844 OFFCURVE",
"286 844 CURVE SMOOTH",
"271 844 OFFCURVE",
"252 830 OFFCURVE",
"234 820 CURVE",
"91 721 LINE",
"116 671 LINE"
);
}
);
width = 534;
}
);
unicode = 0139;
},
{
glyphname = Lcaron;
layers = (
{
layerId = "D905F18B-B0C6-4EFF-A833-0E5BFD426C49";
paths = (
{
closed = 1;
nodes = (
"510 0 LINE",
"510 162 LINE",
"461 162 LINE",
"439 55 LINE",
"326 55 LINE",
"228 63 LINE",
"228 586 LINE",
"319 601 LINE",
"319 648 LINE",
"59 648 LINE",
"59 605 LINE",
"142 588 LINE",
"142 60 LINE",
"59 43 LINE",
"59 0 LINE"
);
},
{
closed = 1;
nodes = (
"415 481 LINE",
"415 481 OFFCURVE",
"469 559 OFFCURVE",
"469 604 CURVE SMOOTH",
"469 633 OFFCURVE",
"454 658 OFFCURVE",
"419 658 CURVE SMOOTH",
"395 658 OFFCURVE",
"381 645 OFFCURVE",
"374 635 CURVE",
"388 618 OFFCURVE",
"399 600 OFFCURVE",
"399 576 CURVE SMOOTH",
"399 548 OFFCURVE",
"393 510 OFFCURVE",
"383 481 CURVE"
);
}
);
width = 527;
},
{
layerId = "4843E09C-13E2-4232-9E55-A4E7C049DCE9";
paths = (
{
closed = 1;
nodes = (
"518 0 LINE",
"518 188 LINE",
"452 188 LINE",
"425 76 LINE",
"308 76 LINE",
"257 83 LINE",
"257 573 LINE",
"337 592 LINE",
"337 648 LINE",
"35 648 LINE",
"35 592 LINE",
"115 573 LINE",
"115 75 LINE",
"35 56 LINE",
"35 0 LINE"
);
},
{
closed = 1;
nodes = (
"445 482 LINE",
"445 482 OFFCURVE",
"512 548 OFFCURVE",
"512 615 CURVE SMOOTH",
"512 639 OFFCURVE",
"495 671 OFFCURVE",
"453 671 CURVE SMOOTH",
"435 671 OFFCURVE",
"415 665 OFFCURVE",
"401 649 CURVE",
"409 641 OFFCURVE",
"417 614 OFFCURVE",
"417 589 CURVE SMOOTH",
"417 561 OFFCURVE",
"411 513 OFFCURVE",
"401 482 CURVE"
);
}
);
width = 534;
}
);
unicode = 013D;
},
{
glyphname = Lcommaaccent;
layers = (
{
layerId = "D905F18B-B0C6-4EFF-A833-0E5BFD426C49";
paths = (
{
closed = 1;
nodes = (
"510 0 LINE",
"510 162 LINE",
"461 162 LINE",
"439 55 LINE",
"326 55 LINE",
"228 63 LINE",
"228 586 LINE",
"319 601 LINE",
"319 648 LINE",
"59 648 LINE",
"59 605 LINE",
"142 588 LINE",
"142 60 LINE",
"59 43 LINE",
"59 0 LINE"
);
},
{
closed = 1;
nodes = (
"293 -187 LINE",
"293 -187 OFFCURVE",
"346 -148 OFFCURVE",
"346 -81 CURVE SMOOTH",
"346 -57 OFFCURVE",
"333 -29 OFFCURVE",
"298 -29 CURVE SMOOTH",
"285 -29 OFFCURVE",
"267 -35 OFFCURVE",
"253 -51 CURVE",
"267 -64 OFFCURVE",
"279 -83 OFFCURVE",
"279 -108 CURVE SMOOTH",
"279 -136 OFFCURVE",
"272 -158 OFFCURVE",
"262 -187 CURVE"
);
}
);
width = 527;
},
{
layerId = "4843E09C-13E2-4232-9E55-A4E7C049DCE9";
paths = (
{
closed = 1;
nodes = (
"518 0 LINE",
"518 188 LINE",
"452 188 LINE",
"425 76 LINE",
"308 76 LINE",
"257 83 LINE",
"257 573 LINE",
"337 592 LINE",
"337 648 LINE",
"35 648 LINE",
"35 592 LINE",
"115 573 LINE",
"115 75 LINE",
"35 56 LINE",
"35 0 LINE"
);
},
{
closed = 1;
nodes = (
"276 -212 LINE",
"276 -212 OFFCURVE",
"344 -150 OFFCURVE",
"344 -83 CURVE SMOOTH",
"344 -54 OFFCURVE",
"327 -24 OFFCURVE",
"282 -24 CURVE SMOOTH",
"256 -24 OFFCURVE",
"240 -38 OFFCURVE",
"226 -54 CURVE",
"226 -54 OFFCURVE",
"246 -73 OFFCURVE",
"246 -118 CURVE SMOOTH",
"246 -162 OFFCURVE",
"232 -212 OFFCURVE",
"232 -212 CURVE"
);
}
);
width = 534;
}
);
unicode = 013B;
},
{
glyphname = Lslash;
layers = (
{
layerId = "D905F18B-B0C6-4EFF-A833-0E5BFD426C49";
paths = (
{
closed = 1;
nodes = (
"55 0 LINE",
"506 0 LINE",
"506 162 LINE",
"457 162 LINE",
"435 55 LINE",
"322 55 LINE",
"224 63 LINE",
"224 301 LINE",
"359 349 LINE",
"359 412 LINE",
"224 362 LINE",
"224 586 LINE",
"315 601 LINE",
"315 648 LINE",
"55 648 LINE",
"55 605 LINE",
"138 588 LINE",
"138 331 LINE",
"69 306 LINE",
"69 247 LINE",
"138 271 LINE",
"138 60 LINE",
"55 43 LINE"
);
}
);
width = 523;
},
{
layerId = "4843E09C-13E2-4232-9E55-A4E7C049DCE9";
paths = (
{
closed = 1;
nodes = (
"35 0 LINE",
"518 0 LINE",
"518 188 LINE",
"452 188 LINE",
"425 76 LINE",
"308 76 LINE",
"257 83 LINE",
"257 338 LINE",
"346 370 LINE",
"346 434 LINE",
"257 401 LINE",
"257 573 LINE",
"337 592 LINE",
"337 648 LINE",
"35 648 LINE",
"35 592 LINE",
"115 573 LINE",
"115 349 LINE",
"40 322 LINE",
"40 262 LINE",
"115 288 LINE",
"115 75 LINE",
"35 56 LINE"
);
}
);
width = 523;
}
);
unicode = 0141;
},
{
glyphname = M;
layers = (
{
anchors = (
{
name = bottom;
position = "{443, 0}";
},
{
name = top;
position = "{443, 648}";
}
);
layerId = "D905F18B-B0C6-4EFF-A833-0E5BFD426C49";
paths = (
{
closed = 1;
nodes = (
"262 0 LINE",
"262 42 LINE",
"189 58 LINE",
"189 555 LINE",
"189 581 LINE",
"201 581 LINE",
"397 0 LINE",
"445 0 LINE",
"633 557 LINE",
"641 581 LINE",
"656 581 LINE",
"656 558 LINE",
"656 59 LINE",
"574 44 LINE",
"574 0 LINE",
"826 0 LINE",
"826 44 LINE",
"743 59 LINE",
"743 589 LINE",
"826 604 LINE",
"826 648 LINE",
"604 648 LINE",
"453 190 LINE",
"438 134 LINE",
"423 190 LINE",
"269 648 LINE",
"64 648 LINE",
"64 604 LINE",
"128 592 LINE",
"128 58 LINE",
"55 42 LINE",
"55 0 LINE"
);
}
);
width = 885;
},
{
anchors = (
{
name = bottom;
position = "{439, 0}";
},
{
name = top;
position = "{439, 648}";
}
);
layerId = "4843E09C-13E2-4232-9E55-A4E7C049DCE9";
paths = (
{
closed = 1;
nodes = (
"291 0 LINE",
"291 56 LINE",
"211 75 LINE",
"211 432 LINE",
"209 456 LINE",
"215 456 LINE",
"358 0 LINE",
"479 0 LINE",
"614 432 LINE",
"619 456 LINE",
"624 456 LINE",
"622 432 LINE",
"622 75 LINE",
"542 56 LINE",
"542 0 LINE",
"843 0 LINE",
"843 56 LINE",
"763 75 LINE",
"763 574 LINE",
"831 586 LINE",
"831 648 LINE",
"589 648 LINE",
"442 179 LINE",
"437 148 LINE",
"434 179 LINE",
"290 648 LINE",
"46 648 LINE",
"46 587 LINE",
"112 574 LINE",
"112 75 LINE",
"32 56 LINE",
"32 0 LINE"
);
}
);
width = 878;
}
);
unicode = 004D;
},
{
glyphname = N;
layers = (
{
anchors = (
{
name = bottom;
position = "{364, 0}";
},
{
name = top;
position = "{364, 648}";
}
);
layerId = "D905F18B-B0C6-4EFF-A833-0E5BFD426C49";
paths = (
{
closed = 1;
nodes = (
"255 0 LINE",
"255 42 LINE",
"185 58 LINE",
"185 516 LINE",
"194 516 LINE",
"206 497 LINE",
"519 0 LINE",
"611 0 LINE",
"611 590 LINE",
"680 606 LINE",
"680 648 LINE",
"481 648 LINE",
"481 606 LINE",
"550 590 LINE",
"550 129 LINE",
"541 129 LINE",
"528 149 LINE",
"213 648 LINE",
"60 648 LINE",
"60 604 LINE",
"125 590 LINE",
"125 58 LINE",
"55 42 LINE",
"55 0 LINE"
);
}
);
width = 727;
},
{
anchors = (
{
name = bottom;
position = "{365, 0}";
},
{
name = top;
position = "{365, 648}";
}
);
layerId = "4843E09C-13E2-4232-9E55-A4E7C049DCE9";
paths = (
{
closed = 1;
nodes = (
"294 0 LINE",
"294 56 LINE",
"214 75 LINE",
"214 447 LINE",
"218 447 LINE",
"222 432 LINE",
"506 0 LINE",
"629 0 LINE",
"629 573 LINE",
"709 591 LINE",
"709 648 LINE",
"450 648 LINE",
"450 591 LINE",
"530 573 LINE",
"530 218 LINE",
"526 218 LINE",
"522 233 LINE",
"259 648 LINE",
"49 648 LINE",
"49 587 LINE",
"115 574 LINE",
"115 75 LINE",
"35 56 LINE",
"35 0 LINE"
);
}
);
width = 729;
}
);
unicode = 004E;
},
{
glyphname = Nacute;
layers = (
{
layerId = "D905F18B-B0C6-4EFF-A833-0E5BFD426C49";
paths = (
{
closed = 1;
nodes = (
"255 0 LINE",
"255 42 LINE",
"185 58 LINE",
"185 516 LINE",
"194 516 LINE",
"205 499 LINE",
"519 0 LINE",
"611 0 LINE",
"611 590 LINE",
"680 606 LINE",
"680 648 LINE",
"481 648 LINE",
"481 606 LINE",
"550 590 LINE",
"550 129 LINE",
"541 129 LINE",
"527 151 LINE",
"213 648 LINE",
"60 648 LINE",
"60 604 LINE",
"125 590 LINE",
"125 58 LINE",
"55 42 LINE",
"55 0 LINE"
);
},
{
closed = 1;
nodes = (
"489 767 LINE",
"485 814 OFFCURVE",
"466 836 OFFCURVE",
"447 836 CURVE SMOOTH",
"436 836 OFFCURVE",
"422 826 OFFCURVE",
"405 814 CURVE SMOOTH",
"274 716 LINE",
"296 681 LINE"
);
}
);
width = 727;
},
{
layerId = "4843E09C-13E2-4232-9E55-A4E7C049DCE9";
paths = (
{
closed = 1;
nodes = (
"294 0 LINE",
"294 56 LINE",
"214 75 LINE",
"214 447 LINE",
"218 447 LINE",
"222 432 LINE",
"506 0 LINE",
"629 0 LINE",
"629 573 LINE",
"709 591 LINE",
"709 648 LINE",
"450 648 LINE",
"450 591 LINE",
"530 573 LINE",
"530 218 LINE",
"526 218 LINE",
"522 233 LINE",
"259 648 LINE",
"49 648 LINE",
"49 587 LINE",
"115 574 LINE",
"115 75 LINE",
"35 56 LINE",
"35 0 LINE"
);
},
{
closed = 1;
nodes = (
"510 739 LINE",
"523 788 OFFCURVE",
"510 844 OFFCURVE",
"460 844 CURVE SMOOTH",
"445 844 OFFCURVE",
"426 830 OFFCURVE",
"408 820 CURVE",
"265 721 LINE",
"290 671 LINE"
);
}
);
width = 734;
}
);
unicode = 0143;
},
{
glyphname = Ncaron;
layers = (
{
layerId = "D905F18B-B0C6-4EFF-A833-0E5BFD426C49";
paths = (
{
closed = 1;
nodes = (
"255 0 LINE",
"255 42 LINE",
"185 58 LINE",
"185 516 LINE",
"194 516 LINE",
"204 500 LINE",
"519 0 LINE",
"611 0 LINE",
"611 590 LINE",
"680 606 LINE",
"680 648 LINE",
"481 648 LINE",
"481 606 LINE",
"550 590 LINE",
"550 129 LINE",
"541 129 LINE",
"527 152 LINE",
"213 648 LINE",
"60 648 LINE",
"60 604 LINE",
"125 590 LINE",
"125 58 LINE",
"55 42 LINE",
"55 0 LINE"
);
},
{
closed = 1;
nodes = (
"379 678 OFFCURVE",
"395 695 OFFCURVE",
"441 732 CURVE SMOOTH",
"520 796 LINE",
"495 832 LINE",
"369 769 LINE",
"247 834 LINE",
"214 793 LINE",
"288 732 LINE SMOOTH",
"327 700 OFFCURVE",
"349 678 OFFCURVE",
"365 678 CURVE SMOOTH"
);
}
);
width = 727;
},
{
layerId = "4843E09C-13E2-4232-9E55-A4E7C049DCE9";
paths = (
{
closed = 1;
nodes = (
"294 0 LINE",
"294 56 LINE",
"214 75 LINE",
"214 447 LINE",
"218 447 LINE",
"222 432 LINE",
"506 0 LINE",
"629 0 LINE",
"629 573 LINE",
"709 591 LINE",
"709 648 LINE",
"450 648 LINE",
"450 591 LINE",
"530 573 LINE",
"530 218 LINE",
"526 218 LINE",
"522 233 LINE",
"259 648 LINE",
"49 648 LINE",
"49 587 LINE",
"115 574 LINE",
"115 75 LINE",
"35 56 LINE",
"35 0 LINE"
);
},
{
closed = 1;
nodes = (
"382 690 OFFCURVE",
"400 706 OFFCURVE",
"429 734 CURVE SMOOTH",
"527 829 LINE",
"495 871 LINE",
"378 796 LINE",
"263 871 LINE",
"220 822 LINE",
"311 734 LINE SMOOTH",
"340 706 OFFCURVE",
"358 690 OFFCURVE",
"370 690 CURVE SMOOTH"
);
}
);
width = 734;
}
);
unicode = 0147;
},
{
glyphname = Ncommaaccent;
layers = (
{
layerId = "D905F18B-B0C6-4EFF-A833-0E5BFD426C49";
paths = (
{
closed = 1;
nodes = (
"255 0 LINE",
"255 42 LINE",
"185 58 LINE",
"185 516 LINE",
"194 516 LINE",
"204 500 LINE",
"519 0 LINE",
"611 0 LINE",
"611 590 LINE",
"680 606 LINE",
"680 648 LINE",
"481 648 LINE",
"481 606 LINE",
"550 590 LINE",
"550 129 LINE",
"541 129 LINE",
"528 150 LINE",
"213 648 LINE",
"60 648 LINE",
"60 604 LINE",
"125 590 LINE",
"125 58 LINE",
"55 42 LINE",
"55 0 LINE"
);
},
{
closed = 1;
nodes = (
"368 -187 LINE",
"368 -187 OFFCURVE",
"421 -148 OFFCURVE",
"421 -81 CURVE SMOOTH",
"421 -57 OFFCURVE",
"408 -29 OFFCURVE",
"373 -29 CURVE SMOOTH",
"360 -29 OFFCURVE",
"342 -35 OFFCURVE",
"328 -51 CURVE",
"342 -64 OFFCURVE",
"354 -83 OFFCURVE",
"354 -108 CURVE SMOOTH",
"354 -136 OFFCURVE",
"347 -158 OFFCURVE",
"337 -187 CURVE"
);
}
);
width = 727;
},
{
layerId = "4843E09C-13E2-4232-9E55-A4E7C049DCE9";
paths = (
{
closed = 1;
nodes = (
"294 0 LINE",
"294 56 LINE",
"214 75 LINE",
"214 447 LINE",
"218 447 LINE",
"222 432 LINE",
"506 0 LINE",
"629 0 LINE",
"629 573 LINE",
"709 591 LINE",
"709 648 LINE",
"450 648 LINE",
"450 591 LINE",
"530 573 LINE",
"530 218 LINE",
"526 218 LINE",
"522 233 LINE",
"259 648 LINE",
"49 648 LINE",
"49 587 LINE",
"115 574 LINE",
"115 75 LINE",
"35 56 LINE",
"35 0 LINE"
);
},
{
closed = 1;
nodes = (
"361 -212 LINE",
"361 -212 OFFCURVE",
"429 -150 OFFCURVE",
"429 -83 CURVE SMOOTH",
"429 -54 OFFCURVE",
"412 -24 OFFCURVE",
"367 -24 CURVE SMOOTH",
"341 -24 OFFCURVE",
"325 -38 OFFCURVE",
"311 -54 CURVE",
"311 -54 OFFCURVE",
"331 -73 OFFCURVE",
"331 -118 CURVE SMOOTH",
"331 -162 OFFCURVE",
"317 -212 OFFCURVE",
"317 -212 CURVE"
);
}
);
width = 734;
}
);
unicode = 0145;
},
{
color = 6;
glyphname = Eng;
layers = (
{
components = (
{
name = N;
}
);
layerId = "D905F18B-B0C6-4EFF-A833-0E5BFD426C49";
paths = (
{
closed = 1;
nodes = (
"518 88 LINE",
"518 -94 LINE",
"421 -117 LINE",
"421 -155 LINE",
"421 -155 OFFCURVE",
"456 -165 OFFCURVE",
"504 -165 CURVE SMOOTH",
"574 -165 OFFCURVE",
"611 -135 OFFCURVE",
"611 -83 CURVE SMOOTH",
"611 88 LINE"
);
}
);
width = 727;
},
{
components = (
{
name = N;
}
);
layerId = "4843E09C-13E2-4232-9E55-A4E7C049DCE9";
paths = (
{
closed = 1;
nodes = (
"497 192 LINE",
"497 -77 LINE",
"395 -100 LINE",
"395 -151 LINE",
"395 -151 OFFCURVE",
"443 -169 OFFCURVE",
"507 -169 CURVE SMOOTH",
"590 -169 OFFCURVE",
"629 -132 OFFCURVE",
"629 -79 CURVE SMOOTH",
"629 192 LINE"
);
}
);
width = 729;
}
);
unicode = 014A;
},
{
color = 6;
glyphname = Nhookleft;
layers = (
{
anchors = (
{
name = bottom;
position = "{364, 0}";
},
{
name = top;
position = "{364, 648}";
}
);
layerId = "D905F18B-B0C6-4EFF-A833-0E5BFD426C49";
paths = (
{
closed = 1;
nodes = (
"152 -165 OFFCURVE",
"185 -135 OFFCURVE",
"185 -83 CURVE SMOOTH",
"185 516 LINE",
"194 516 LINE",
"203 501 LINE",
"519 0 LINE",
"611 0 LINE",
"611 590 LINE",
"680 606 LINE",
"680 648 LINE",
"481 648 LINE",
"481 606 LINE",
"550 590 LINE",
"550 129 LINE",
"541 129 LINE",
"526 152 LINE",
"213 648 LINE",
"60 648 LINE",
"60 604 LINE",
"125 590 LINE",
"125 -91 LINE",
"17 -117 LINE",
"17 -155 LINE",
"17 -155 OFFCURVE",
"47 -165 OFFCURVE",
"89 -165 CURVE SMOOTH"
);
}
);
width = 727;
},
{
anchors = (
{
name = bottom;
position = "{365, 0}";
},
{
name = top;
position = "{365, 648}";
}
);
layerId = "4843E09C-13E2-4232-9E55-A4E7C049DCE9";
paths = (
{
closed = 1;
nodes = (
"182 -169 OFFCURVE",
"214 -132 OFFCURVE",
"214 -79 CURVE SMOOTH",
"214 447 LINE",
"218 447 LINE",
"222 432 LINE",
"506 0 LINE",
"629 0 LINE",
"629 573 LINE",
"709 591 LINE",
"709 648 LINE",
"450 648 LINE",
"450 591 LINE",
"530 573 LINE",
"530 218 LINE",
"526 218 LINE",
"522 233 LINE",
"259 648 LINE",
"49 648 LINE",
"49 587 LINE",
"115 574 LINE",
"115 -77 LINE",
"13 -100 LINE",
"13 -151 LINE",
"13 -151 OFFCURVE",
"57 -169 OFFCURVE",
"115 -169 CURVE SMOOTH"
);
}
);
width = 729;
}
);
rightMetricsKey = "=N";
unicode = 019D;
},
{
glyphname = Ntilde;
layers = (
{
layerId = "D905F18B-B0C6-4EFF-A833-0E5BFD426C49";
paths = (
{
closed = 1;
nodes = (
"255 0 LINE",
"255 42 LINE",
"185 58 LINE",
"185 516 LINE",
"194 516 LINE",
"202 503 LINE",
"519 0 LINE",
"611 0 LINE",
"611 590 LINE",
"680 606 LINE",
"680 648 LINE",
"481 648 LINE",
"481 606 LINE",
"550 590 LINE",
"550 129 LINE",
"541 129 LINE",
"527 151 LINE",
"213 648 LINE",
"60 648 LINE",
"60 604 LINE",
"125 590 LINE",
"125 58 LINE",
"55 42 LINE",
"55 0 LINE"
);
},
{
closed = 1;
nodes = (
"473 698 OFFCURVE",
"494 706 OFFCURVE",
"509 727 CURVE SMOOTH",
"546 776 LINE",
"523 802 LINE",
"443 766 LINE",
"364 791 LINE SMOOTH",
"339 799 OFFCURVE",
"314 806 OFFCURVE",
"294 806 CURVE SMOOTH",
"269 806 OFFCURVE",
"248 798 OFFCURVE",
"233 777 CURVE SMOOTH",
"196 728 LINE",
"219 702 LINE",
"299 738 LINE",
"378 713 LINE SMOOTH",
"403 705 OFFCURVE",
"428 698 OFFCURVE",
"448 698 CURVE SMOOTH"
);
}
);
width = 727;
},
{
layerId = "4843E09C-13E2-4232-9E55-A4E7C049DCE9";
paths = (
{
closed = 1;
nodes = (
"294 0 LINE",
"294 56 LINE",
"214 75 LINE",
"214 447 LINE",
"218 447 LINE",
"222 432 LINE",
"506 0 LINE",
"629 0 LINE",
"629 573 LINE",
"709 591 LINE",
"709 648 LINE",
"450 648 LINE",
"450 591 LINE",
"530 573 LINE",
"530 218 LINE",
"526 218 LINE",
"522 233 LINE",
"259 648 LINE",
"49 648 LINE",
"49 587 LINE",
"115 574 LINE",
"115 75 LINE",
"35 56 LINE",
"35 0 LINE"
);
},
{
closed = 1;
nodes = (
"476 700 OFFCURVE",
"505 706 OFFCURVE",
"534 750 CURVE SMOOTH",
"569 803 LINE",
"531 839 LINE",
"459 801 LINE",
"359 834 LINE SMOOTH",
"335 842 OFFCURVE",
"322 844 OFFCURVE",
"302 844 CURVE SMOOTH",
"273 844 OFFCURVE",
"244 839 OFFCURVE",
"215 795 CURVE SMOOTH",
"180 742 LINE",
"219 705 LINE",
"290 744 LINE",
"390 711 LINE SMOOTH",
"414 703 OFFCURVE",
"427 700 OFFCURVE",
"447 700 CURVE SMOOTH"
);
}
);
width = 734;
}
);
unicode = 00D1;
},
{
glyphname = O;
layers = (
{
anchors = (
{
name = bottom;
position = "{348, 0}";
},
{
name = center;
position = "{348, 324}";
},
{
name = ogonek;
position = "{486, 10}";
},
{
name = top;
position = "{348, 648}";
},
{
name = topright;
position = "{676, 648}";
}
);
layerId = "D905F18B-B0C6-4EFF-A833-0E5BFD426C49";
paths = (
{
closed = 1;
nodes = (
"560 -13 OFFCURVE",
"651 143 OFFCURVE",
"651 338 CURVE SMOOTH",
"651 531 OFFCURVE",
"546 660 OFFCURVE",
"366 660 CURVE SMOOTH",
"160 660 OFFCURVE",
"45 504 OFFCURVE",
"45 313 CURVE SMOOTH",
"45 112 OFFCURVE",
"148 -13 OFFCURVE",
"344 -13 CURVE SMOOTH"
);
},
{
closed = 1;
nodes = (
"222 44 OFFCURVE",
"146 118 OFFCURVE",
"146 319 CURVE SMOOTH",
"146 577 OFFCURVE",
"240 600 OFFCURVE",
"352 600 CURVE SMOOTH",
"467 600 OFFCURVE",
"550 553 OFFCURVE",
"550 319 CURVE SMOOTH",
"550 147 OFFCURVE",
"498 44 OFFCURVE",
"364 44 CURVE SMOOTH"
);
}
);
width = 696;
},
{
anchors = (
{
name = bottom;
position = "{354, 0}";
},
{
name = center;
position = "{354, 324}";
},
{
name = ogonek;
position = "{498, 10}";
},
{
name = top;
position = "{354, 648}";
},
{
name = topright;
position = "{687, 648}";
}
);
layerId = "4843E09C-13E2-4232-9E55-A4E7C049DCE9";
paths = (
{
closed = 1;
nodes = (
"550 -18 OFFCURVE",
"672 128 OFFCURVE",
"672 335 CURVE SMOOTH",
"672 553 OFFCURVE",
"562 666 OFFCURVE",
"366 666 CURVE SMOOTH",
"160 666 OFFCURVE",
"35 520 OFFCURVE",
"35 313 CURVE SMOOTH",
"35 95 OFFCURVE",
"145 -18 OFFCURVE",
"341 -18 CURVE SMOOTH"
);
},
{
closed = 1;
nodes = (
"249 65 OFFCURVE",
"198 138 OFFCURVE",
"198 340 CURVE SMOOTH",
"198 525 OFFCURVE",
"246 582 OFFCURVE",
"348 582 CURVE SMOOTH",
"458 582 OFFCURVE",
"508 510 OFFCURVE",
"508 309 CURVE SMOOTH",
"508 123 OFFCURVE",
"462 65 OFFCURVE",
"360 65 CURVE SMOOTH"
);
}
);
width = 707;
}
);
leftKerningGroup = C;
rightKerningGroup = D;
unicode = 004F;
},
{
glyphname = Oacute;
layers = (
{
layerId = "D905F18B-B0C6-4EFF-A833-0E5BFD426C49";
paths = (
{
closed = 1;
nodes = (
"560 -13 OFFCURVE",
"651 143 OFFCURVE",
"651 338 CURVE SMOOTH",
"651 531 OFFCURVE",
"546 660 OFFCURVE",
"366 660 CURVE SMOOTH",
"160 660 OFFCURVE",
"45 504 OFFCURVE",
"45 313 CURVE SMOOTH",
"45 112 OFFCURVE",
"148 -13 OFFCURVE",
"344 -13 CURVE SMOOTH"
);
},
{
closed = 1;
nodes = (
"222 44 OFFCURVE",
"146 118 OFFCURVE",
"146 319 CURVE SMOOTH",
"146 577 OFFCURVE",
"240 600 OFFCURVE",
"352 600 CURVE SMOOTH",
"467 600 OFFCURVE",
"550 553 OFFCURVE",
"550 319 CURVE SMOOTH",
"550 147 OFFCURVE",
"498 44 OFFCURVE",
"364 44 CURVE SMOOTH"
);
},
{
closed = 1;
nodes = (
"465 767 LINE",
"461 814 OFFCURVE",
"442 836 OFFCURVE",
"423 836 CURVE SMOOTH",
"412 836 OFFCURVE",
"398 826 OFFCURVE",
"381 814 CURVE SMOOTH",
"250 716 LINE",
"272 681 LINE"
);
}
);
width = 696;
},
{
layerId = "4843E09C-13E2-4232-9E55-A4E7C049DCE9";
paths = (
{
closed = 1;
nodes = (
"550 -18 OFFCURVE",
"672 128 OFFCURVE",
"672 335 CURVE SMOOTH",
"672 553 OFFCURVE",
"562 666 OFFCURVE",
"366 666 CURVE SMOOTH",
"160 666 OFFCURVE",
"35 520 OFFCURVE",
"35 313 CURVE SMOOTH",
"35 95 OFFCURVE",
"145 -18 OFFCURVE",
"341 -18 CURVE SMOOTH"
);
},
{
closed = 1;
nodes = (
"249 65 OFFCURVE",
"198 138 OFFCURVE",
"198 340 CURVE SMOOTH",
"198 525 OFFCURVE",
"246 582 OFFCURVE",
"348 582 CURVE SMOOTH",
"458 582 OFFCURVE",
"508 510 OFFCURVE",
"508 309 CURVE SMOOTH",
"508 123 OFFCURVE",
"462 65 OFFCURVE",
"360 65 CURVE SMOOTH"
);
},
{
closed = 1;
nodes = (
"483 739 LINE",
"496 788 OFFCURVE",
"483 844 OFFCURVE",
"433 844 CURVE SMOOTH",
"418 844 OFFCURVE",
"399 830 OFFCURVE",
"381 820 CURVE",
"238 721 LINE",
"263 671 LINE"
);
}
);
width = 707;
}
);
leftKerningGroup = C;
rightKerningGroup = D;
unicode = 00D3;
},
{
glyphname = Ocircumflex;
layers = (
{
layerId = "D905F18B-B0C6-4EFF-A833-0E5BFD426C49";
paths = (
{
closed = 1;
nodes = (
"560 -13 OFFCURVE",
"651 143 OFFCURVE",
"651 338 CURVE SMOOTH",
"651 531 OFFCURVE",
"546 660 OFFCURVE",
"366 660 CURVE SMOOTH",
"160 660 OFFCURVE",
"45 504 OFFCURVE",
"45 313 CURVE SMOOTH",
"45 112 OFFCURVE",
"148 -13 OFFCURVE",
"344 -13 CURVE SMOOTH"
);
},
{
closed = 1;
nodes = (
"222 44 OFFCURVE",
"146 118 OFFCURVE",
"146 319 CURVE SMOOTH",
"146 577 OFFCURVE",
"240 600 OFFCURVE",
"352 600 CURVE SMOOTH",
"467 600 OFFCURVE",
"550 553 OFFCURVE",
"550 319 CURVE SMOOTH",
"550 147 OFFCURVE",
"498 44 OFFCURVE",
"364 44 CURVE SMOOTH"
);
},
{
closed = 1;
nodes = (
"222 680 LINE",
"348 743 LINE",
"470 678 LINE",
"503 719 LINE",
"429 780 LINE SMOOTH",
"390 812 OFFCURVE",
"368 834 OFFCURVE",
"352 834 CURVE SMOOTH",
"338 834 OFFCURVE",
"322 817 OFFCURVE",
"276 780 CURVE SMOOTH",
"197 716 LINE"
);
}
);
width = 696;
},
{
layerId = "4843E09C-13E2-4232-9E55-A4E7C049DCE9";
paths = (
{
closed = 1;
nodes = (
"550 -18 OFFCURVE",
"672 128 OFFCURVE",
"672 335 CURVE SMOOTH",
"672 553 OFFCURVE",
"562 666 OFFCURVE",
"366 666 CURVE SMOOTH",
"160 666 OFFCURVE",
"35 520 OFFCURVE",
"35 313 CURVE SMOOTH",
"35 95 OFFCURVE",
"145 -18 OFFCURVE",
"341 -18 CURVE SMOOTH"
);
},
{
closed = 1;
nodes = (
"249 65 OFFCURVE",
"198 138 OFFCURVE",
"198 340 CURVE SMOOTH",
"198 525 OFFCURVE",
"246 582 OFFCURVE",
"348 582 CURVE SMOOTH",
"458 582 OFFCURVE",
"508 510 OFFCURVE",
"508 309 CURVE SMOOTH",
"508 123 OFFCURVE",
"462 65 OFFCURVE",
"360 65 CURVE SMOOTH"
);
},
{
closed = 1;
nodes = (
"207 671 LINE",
"348 733 LINE",
"496 671 LINE",
"527 721 LINE",
"406 814 LINE SMOOTH",
"390 826 OFFCURVE",
"371 844 OFFCURVE",
"356 844 CURVE SMOOTH",
"348 844 OFFCURVE",
"340 844 OFFCURVE",
"302 813 CURVE SMOOTH",
"180 712 LINE"
);
}
);
width = 707;
}
);
leftKerningGroup = C;
rightKerningGroup = D;
unicode = 00D4;
},
{
glyphname = Odieresis;
layers = (
{
layerId = "D905F18B-B0C6-4EFF-A833-0E5BFD426C49";
paths = (
{
closed = 1;
nodes = (
"560 -13 OFFCURVE",
"651 143 OFFCURVE",
"651 338 CURVE SMOOTH",
"651 531 OFFCURVE",
"546 660 OFFCURVE",
"366 660 CURVE SMOOTH",
"160 660 OFFCURVE",
"45 504 OFFCURVE",
"45 313 CURVE SMOOTH",
"45 112 OFFCURVE",
"148 -13 OFFCURVE",
"344 -13 CURVE SMOOTH"
);
},
{
closed = 1;
nodes = (
"222 44 OFFCURVE",
"146 118 OFFCURVE",
"146 319 CURVE SMOOTH",
"146 577 OFFCURVE",
"240 600 OFFCURVE",
"352 600 CURVE SMOOTH",
"467 600 OFFCURVE",
"550 553 OFFCURVE",
"550 319 CURVE SMOOTH",
"550 147 OFFCURVE",
"498 44 OFFCURVE",
"364 44 CURVE SMOOTH"
);
},
{
closed = 1;
nodes = (
"281 693 OFFCURVE",
"301 722 OFFCURVE",
"301 755 CURVE SMOOTH",
"301 788 OFFCURVE",
"281 809 OFFCURVE",
"250 809 CURVE SMOOTH",
"217 809 OFFCURVE",
"195 781 OFFCURVE",
"195 749 CURVE SMOOTH",
"195 716 OFFCURVE",
"215 693 OFFCURVE",
"246 693 CURVE SMOOTH"
);
},
{
closed = 1;
nodes = (
"492 693 OFFCURVE",
"512 722 OFFCURVE",
"512 755 CURVE SMOOTH",
"512 788 OFFCURVE",
"492 809 OFFCURVE",
"461 809 CURVE SMOOTH",
"428 809 OFFCURVE",
"406 781 OFFCURVE",
"406 749 CURVE SMOOTH",
"406 716 OFFCURVE",
"426 693 OFFCURVE",
"457 693 CURVE SMOOTH"
);
}
);
width = 696;
},
{
layerId = "4843E09C-13E2-4232-9E55-A4E7C049DCE9";
paths = (
{
closed = 1;
nodes = (
"550 -18 OFFCURVE",
"672 128 OFFCURVE",
"672 335 CURVE SMOOTH",
"672 553 OFFCURVE",
"562 666 OFFCURVE",
"366 666 CURVE SMOOTH",
"160 666 OFFCURVE",
"35 520 OFFCURVE",
"35 313 CURVE SMOOTH",
"35 95 OFFCURVE",
"145 -18 OFFCURVE",
"341 -18 CURVE SMOOTH"
);
},
{
closed = 1;
nodes = (
"249 65 OFFCURVE",
"198 138 OFFCURVE",
"198 340 CURVE SMOOTH",
"198 525 OFFCURVE",
"246 582 OFFCURVE",
"348 582 CURVE SMOOTH",
"458 582 OFFCURVE",
"508 510 OFFCURVE",
"508 309 CURVE SMOOTH",
"508 123 OFFCURVE",
"462 65 OFFCURVE",
"360 65 CURVE SMOOTH"
);
},
{
closed = 1;
nodes = (
"274 695 OFFCURVE",
"305 732 OFFCURVE",
"305 775 CURVE SMOOTH",
"305 820 OFFCURVE",
"274 847 OFFCURVE",
"234 847 CURVE SMOOTH",
"191 847 OFFCURVE",
"156 810 OFFCURVE",
"156 768 CURVE SMOOTH",
"156 725 OFFCURVE",
"186 695 OFFCURVE",
"226 695 CURVE SMOOTH"
);
},
{
closed = 1;
nodes = (
"519 695 OFFCURVE",
"550 732 OFFCURVE",
"550 775 CURVE SMOOTH",
"550 820 OFFCURVE",
"519 847 OFFCURVE",
"479 847 CURVE SMOOTH",
"436 847 OFFCURVE",
"401 810 OFFCURVE",
"401 768 CURVE SMOOTH",
"401 725 OFFCURVE",
"431 695 OFFCURVE",
"471 695 CURVE SMOOTH"
);
}
);
width = 707;
}
);
leftKerningGroup = C;
rightKerningGroup = D;
unicode = 00D6;
},
{
glyphname = Ograve;
layers = (
{
layerId = "D905F18B-B0C6-4EFF-A833-0E5BFD426C49";
paths = (
{
closed = 1;
nodes = (
"560 -13 OFFCURVE",
"651 143 OFFCURVE",
"651 338 CURVE SMOOTH",
"651 531 OFFCURVE",
"546 660 OFFCURVE",
"366 660 CURVE SMOOTH",
"160 660 OFFCURVE",
"45 504 OFFCURVE",
"45 313 CURVE SMOOTH",
"45 112 OFFCURVE",
"148 -13 OFFCURVE",
"344 -13 CURVE SMOOTH"
);
},
{
closed = 1;
nodes = (
"222 44 OFFCURVE",
"146 118 OFFCURVE",
"146 319 CURVE SMOOTH",
"146 577 OFFCURVE",
"240 600 OFFCURVE",
"352 600 CURVE SMOOTH",
"467 600 OFFCURVE",
"550 553 OFFCURVE",
"550 319 CURVE SMOOTH",
"550 147 OFFCURVE",
"498 44 OFFCURVE",
"364 44 CURVE SMOOTH"
);
},
{
closed = 1;
nodes = (
"453 716 LINE",
"322 814 LINE SMOOTH",
"305 826 OFFCURVE",
"291 836 OFFCURVE",
"280 836 CURVE SMOOTH",
"261 836 OFFCURVE",
"242 814 OFFCURVE",
"238 767 CURVE",
"431 681 LINE"
);
}
);
width = 696;
},
{
layerId = "4843E09C-13E2-4232-9E55-A4E7C049DCE9";
paths = (
{
closed = 1;
nodes = (
"550 -18 OFFCURVE",
"672 128 OFFCURVE",
"672 335 CURVE SMOOTH",
"672 553 OFFCURVE",
"562 666 OFFCURVE",
"366 666 CURVE SMOOTH",
"160 666 OFFCURVE",
"35 520 OFFCURVE",
"35 313 CURVE SMOOTH",
"35 95 OFFCURVE",
"145 -18 OFFCURVE",
"341 -18 CURVE SMOOTH"
);
},
{
closed = 1;
nodes = (
"249 65 OFFCURVE",
"198 138 OFFCURVE",
"198 340 CURVE SMOOTH",
"198 525 OFFCURVE",
"246 582 OFFCURVE",
"348 582 CURVE SMOOTH",
"458 582 OFFCURVE",
"508 510 OFFCURVE",
"508 309 CURVE SMOOTH",
"508 123 OFFCURVE",
"462 65 OFFCURVE",
"360 65 CURVE SMOOTH"
);
},
{
closed = 1;
nodes = (
"471 721 LINE",
"328 820 LINE",
"310 830 OFFCURVE",
"291 844 OFFCURVE",
"276 844 CURVE SMOOTH",
"228 844 OFFCURVE",
"212 791 OFFCURVE",
"226 739 CURVE",
"446 671 LINE"
);
}
);
width = 707;
}
);
leftKerningGroup = C;
rightKerningGroup = D;
unicode = 00D2;
},
{
glyphname = Ohungarumlaut;
layers = (
{
layerId = "D905F18B-B0C6-4EFF-A833-0E5BFD426C49";
paths = (
{
closed = 1;
nodes = (
"560 -13 OFFCURVE",
"651 143 OFFCURVE",
"651 338 CURVE SMOOTH",
"651 531 OFFCURVE",
"546 660 OFFCURVE",
"366 660 CURVE SMOOTH",
"160 660 OFFCURVE",
"45 504 OFFCURVE",
"45 313 CURVE SMOOTH",
"45 112 OFFCURVE",
"148 -13 OFFCURVE",
"344 -13 CURVE SMOOTH"
);
},
{
closed = 1;
nodes = (
"222 44 OFFCURVE",
"146 118 OFFCURVE",
"146 319 CURVE SMOOTH",
"146 577 OFFCURVE",
"240 600 OFFCURVE",
"352 600 CURVE SMOOTH",
"467 600 OFFCURVE",
"550 553 OFFCURVE",
"550 319 CURVE SMOOTH",
"550 147 OFFCURVE",
"498 44 OFFCURVE",
"364 44 CURVE SMOOTH"
);
},
{
closed = 1;
nodes = (
"364 778 LINE",
"354 817 OFFCURVE",
"336 838 OFFCURVE",
"318 838 CURVE SMOOTH",
"303 838 OFFCURVE",
"291 832 OFFCURVE",
"271 806 CURVE SMOOTH",
"192 703 LINE",
"220 676 LINE"
);
},
{
closed = 1;
nodes = (
"548 778 LINE",
"538 817 OFFCURVE",
"520 838 OFFCURVE",
"502 838 CURVE SMOOTH",
"487 838 OFFCURVE",
"475 832 OFFCURVE",
"455 806 CURVE SMOOTH",
"376 703 LINE",
"404 676 LINE"
);
}
);
width = 696;
},
{
layerId = "4843E09C-13E2-4232-9E55-A4E7C049DCE9";
paths = (
{
closed = 1;
nodes = (
"550 -18 OFFCURVE",
"672 128 OFFCURVE",
"672 335 CURVE SMOOTH",
"672 553 OFFCURVE",
"562 666 OFFCURVE",
"366 666 CURVE SMOOTH",
"160 666 OFFCURVE",
"35 520 OFFCURVE",
"35 313 CURVE SMOOTH",
"35 95 OFFCURVE",
"145 -18 OFFCURVE",
"341 -18 CURVE SMOOTH"
);
},
{
closed = 1;
nodes = (
"249 65 OFFCURVE",
"198 138 OFFCURVE",
"198 340 CURVE SMOOTH",
"198 525 OFFCURVE",
"246 582 OFFCURVE",
"348 582 CURVE SMOOTH",
"458 582 OFFCURVE",
"508 510 OFFCURVE",
"508 309 CURVE SMOOTH",
"508 123 OFFCURVE",
"462 65 OFFCURVE",
"360 65 CURVE SMOOTH"
);
},
{
closed = 1;
nodes = (
"381 782 LINE",
"375 829 OFFCURVE",
"350 855 OFFCURVE",
"325 855 CURVE SMOOTH",
"304 855 OFFCURVE",
"290 840 OFFCURVE",
"276 824 CURVE SMOOTH",
"177 713 LINE",
"212 671 LINE"
);
},
{
closed = 1;
nodes = (
"571 782 LINE",
"565 829 OFFCURVE",
"540 855 OFFCURVE",
"515 855 CURVE SMOOTH",
"494 855 OFFCURVE",
"480 840 OFFCURVE",
"466 824 CURVE SMOOTH",
"367 713 LINE",
"402 671 LINE"
);
}
);
width = 707;
}
);
leftKerningGroup = C;
rightKerningGroup = D;
unicode = 0150;
},
{
glyphname = Omacron;
layers = (
{
layerId = "D905F18B-B0C6-4EFF-A833-0E5BFD426C49";
paths = (
{
closed = 1;
nodes = (
"565 -13 OFFCURVE",
"656 143 OFFCURVE",
"656 338 CURVE SMOOTH",
"656 531 OFFCURVE",
"551 660 OFFCURVE",
"371 660 CURVE SMOOTH",
"165 660 OFFCURVE",
"50 504 OFFCURVE",
"50 313 CURVE SMOOTH",
"50 112 OFFCURVE",
"153 -13 OFFCURVE",
"349 -13 CURVE SMOOTH"
);
},
{
closed = 1;
nodes = (
"227 44 OFFCURVE",
"151 118 OFFCURVE",
"151 319 CURVE SMOOTH",
"151 577 OFFCURVE",
"245 600 OFFCURVE",
"357 600 CURVE SMOOTH",
"472 600 OFFCURVE",
"555 553 OFFCURVE",
"555 319 CURVE SMOOTH",
"555 147 OFFCURVE",
"503 44 OFFCURVE",
"369 44 CURVE SMOOTH"
);
},
{
closed = 1;
nodes = (
"524 723 LINE",
"534 781 LINE",
"202 781 LINE",
"192 723 LINE"
);
}
);
width = 706;
},
{
layerId = "4843E09C-13E2-4232-9E55-A4E7C049DCE9";
paths = (
{
closed = 1;
nodes = (
"550 -18 OFFCURVE",
"672 128 OFFCURVE",
"672 335 CURVE SMOOTH",
"672 553 OFFCURVE",
"562 666 OFFCURVE",
"366 666 CURVE SMOOTH",
"160 666 OFFCURVE",
"35 520 OFFCURVE",
"35 313 CURVE SMOOTH",
"35 95 OFFCURVE",
"145 -18 OFFCURVE",
"341 -18 CURVE SMOOTH"
);
},
{
closed = 1;
nodes = (
"249 65 OFFCURVE",
"198 138 OFFCURVE",
"198 340 CURVE SMOOTH",
"198 525 OFFCURVE",
"246 582 OFFCURVE",
"348 582 CURVE SMOOTH",
"458 582 OFFCURVE",
"508 510 OFFCURVE",
"508 309 CURVE SMOOTH",
"508 123 OFFCURVE",
"462 65 OFFCURVE",
"360 65 CURVE SMOOTH"
);
},
{
closed = 1;
nodes = (
"520 723 LINE",
"533 806 LINE",
"187 806 LINE",
"174 723 LINE"
);
}
);
width = 707;
}
);
unicode = 014C;
},
{
glyphname = Oslash;
layers = (
{
anchors = (
{
name = top;
position = "{313, 648}";
}
);
layerId = "D905F18B-B0C6-4EFF-A833-0E5BFD426C49";
paths = (
{
closed = 1;
nodes = (
"148 -45 LINE",
"210 -72 LINE",
"241 0 LINE",
"272 -8 OFFCURVE",
"306 -13 OFFCURVE",
"344 -13 CURVE SMOOTH",
"560 -13 OFFCURVE",
"651 143 OFFCURVE",
"651 338 CURVE SMOOTH",
"651 472 OFFCURVE",
"600 575 OFFCURVE",
"509 626 CURVE",
"538 693 LINE",
"478 720 LINE",
"447 650 LINE",
"422 656 OFFCURVE",
"395 660 OFFCURVE",
"366 660 CURVE SMOOTH",
"160 660 OFFCURVE",
"45 504 OFFCURVE",
"45 313 CURVE SMOOTH",
"45 179 OFFCURVE",
"90 79 OFFCURVE",
"179 27 CURVE"
);
},
{
closed = 1;
nodes = (
"481 560 LINE",
"524 522 OFFCURVE",
"550 450 OFFCURVE",
"550 319 CURVE SMOOTH",
"550 147 OFFCURVE",
"498 44 OFFCURVE",
"364 44 CURVE SMOOTH",
"327 44 OFFCURVE",
"294 49 OFFCURVE",
"266 60 CURVE"
);
},
{
closed = 1;
nodes = (
"209 98 LINE",
"168 141 OFFCURVE",
"146 212 OFFCURVE",
"146 319 CURVE SMOOTH",
"146 577 OFFCURVE",
"240 600 OFFCURVE",
"352 600 CURVE SMOOTH",
"377 600 OFFCURVE",
"401 598 OFFCURVE",
"422 592 CURVE"
);
}
);
width = 696;
},
{
anchors = (
{
name = top;
position = "{282, 648}";
}
);
layerId = "4843E09C-13E2-4232-9E55-A4E7C049DCE9";
paths = (
{
closed = 1;
nodes = (
"143 -45 LINE",
"215 -76 LINE",
"244 -7 LINE",
"274 -14 OFFCURVE",
"306 -18 OFFCURVE",
"341 -18 CURVE SMOOTH",
"550 -18 OFFCURVE",
"672 128 OFFCURVE",
"672 335 CURVE SMOOTH",
"672 487 OFFCURVE",
"618 588 OFFCURVE",
"520 635 CURVE",
"543 689 LINE",
"473 720 LINE",
"446 659 LINE",
"421 664 OFFCURVE",
"394 666 OFFCURVE",
"366 666 CURVE SMOOTH",
"160 666 OFFCURVE",
"35 520 OFFCURVE",
"35 313 CURVE SMOOTH",
"35 169 OFFCURVE",
"83 71 OFFCURVE",
"171 21 CURVE"
);
},
{
closed = 1;
nodes = (
"470 519 LINE",
"496 476 OFFCURVE",
"508 408 OFFCURVE",
"508 309 CURVE SMOOTH",
"508 123 OFFCURVE",
"462 65 OFFCURVE",
"360 65 CURVE SMOOTH",
"330 65 OFFCURVE",
"304 70 OFFCURVE",
"282 82 CURVE"
);
},
{
closed = 1;
nodes = (
"226 148 LINE",
"207 192 OFFCURVE",
"198 254 OFFCURVE",
"198 340 CURVE SMOOTH",
"198 525 OFFCURVE",
"246 582 OFFCURVE",
"348 582 CURVE SMOOTH",
"371 582 OFFCURVE",
"391 578 OFFCURVE",
"409 572 CURVE"
);
}
);
width = 707;
}
);
leftKerningGroup = C;
rightKerningGroup = D;
unicode = 00D8;
},
{
glyphname = Otilde;
layers = (
{
layerId = "D905F18B-B0C6-4EFF-A833-0E5BFD426C49";
paths = (
{
closed = 1;
nodes = (
"560 -13 OFFCURVE",
"651 143 OFFCURVE",
"651 338 CURVE SMOOTH",
"651 531 OFFCURVE",
"546 660 OFFCURVE",
"366 660 CURVE SMOOTH",
"160 660 OFFCURVE",
"45 504 OFFCURVE",
"45 313 CURVE SMOOTH",
"45 112 OFFCURVE",
"148 -13 OFFCURVE",
"344 -13 CURVE SMOOTH"
);
},
{
closed = 1;
nodes = (
"222 44 OFFCURVE",
"146 118 OFFCURVE",
"146 319 CURVE SMOOTH",
"146 577 OFFCURVE",
"240 600 OFFCURVE",
"352 600 CURVE SMOOTH",
"467 600 OFFCURVE",
"550 553 OFFCURVE",
"550 319 CURVE SMOOTH",
"550 147 OFFCURVE",
"498 44 OFFCURVE",
"364 44 CURVE SMOOTH"
);
},
{
closed = 1;
nodes = (
"459 698 OFFCURVE",
"480 706 OFFCURVE",
"495 727 CURVE SMOOTH",
"532 776 LINE",
"509 802 LINE",
"429 766 LINE",
"350 791 LINE SMOOTH",
"325 799 OFFCURVE",
"300 806 OFFCURVE",
"280 806 CURVE SMOOTH",
"255 806 OFFCURVE",
"234 798 OFFCURVE",
"219 777 CURVE SMOOTH",
"182 728 LINE",
"205 702 LINE",
"285 738 LINE",
"364 713 LINE SMOOTH",
"389 705 OFFCURVE",
"414 698 OFFCURVE",
"434 698 CURVE SMOOTH"
);
}
);
width = 696;
},
{
layerId = "4843E09C-13E2-4232-9E55-A4E7C049DCE9";
paths = (
{
closed = 1;
nodes = (
"550 -18 OFFCURVE",
"672 128 OFFCURVE",
"672 335 CURVE SMOOTH",
"672 553 OFFCURVE",
"562 666 OFFCURVE",
"366 666 CURVE SMOOTH",
"160 666 OFFCURVE",
"35 520 OFFCURVE",
"35 313 CURVE SMOOTH",
"35 95 OFFCURVE",
"145 -18 OFFCURVE",
"341 -18 CURVE SMOOTH"
);
},
{
closed = 1;
nodes = (
"249 65 OFFCURVE",
"198 138 OFFCURVE",
"198 340 CURVE SMOOTH",
"198 525 OFFCURVE",
"246 582 OFFCURVE",
"348 582 CURVE SMOOTH",
"458 582 OFFCURVE",
"508 510 OFFCURVE",
"508 309 CURVE SMOOTH",
"508 123 OFFCURVE",
"462 65 OFFCURVE",
"360 65 CURVE SMOOTH"
);
},
{
closed = 1;
nodes = (
"457 700 OFFCURVE",
"486 706 OFFCURVE",
"515 750 CURVE SMOOTH",
"550 803 LINE",
"512 839 LINE",
"440 801 LINE",
"340 834 LINE SMOOTH",
"316 842 OFFCURVE",
"303 844 OFFCURVE",
"283 844 CURVE SMOOTH",
"254 844 OFFCURVE",
"225 839 OFFCURVE",
"196 795 CURVE SMOOTH",
"161 742 LINE",
"200 705 LINE",
"271 744 LINE",
"371 711 LINE SMOOTH",
"395 703 OFFCURVE",
"408 700 OFFCURVE",
"428 700 CURVE SMOOTH"
);
}
);
width = 707;
}
);
leftKerningGroup = C;
rightKerningGroup = D;
unicode = 00D5;
},
{
glyphname = OE;
layers = (
{
anchors = (
{
name = top;
position = "{500, 648}";
}
);
layerId = "D905F18B-B0C6-4EFF-A833-0E5BFD426C49";
paths = (
{
closed = 1;
nodes = (
"841 0 LINE",
"841 164 LINE",
"792 164 LINE",
"770 57 LINE",
"650 57 LINE SMOOTH",
"613 57 OFFCURVE",
"568 61 OFFCURVE",
"543 67 CURVE",
"543 305 LINE",
"701 305 LINE",
"716 246 LINE",
"758 246 LINE",
"758 417 LINE",
"716 417 LINE",
"701 358 LINE",
"543 358 LINE",
"543 587 LINE",
"641 593 LINE",
"762 593 LINE",
"783 484 LINE",
"832 484 LINE",
"832 648 LINE",
"373 648 LINE SMOOTH",
"167 648 OFFCURVE",
"45 504 OFFCURVE",
"45 313 CURVE SMOOTH",
"45 79 OFFCURVE",
"175 0 OFFCURVE",
"360 0 CURVE SMOOTH"
);
},
{
closed = 1;
nodes = (
"232 50 OFFCURVE",
"146 125 OFFCURVE",
"146 319 CURVE SMOOTH",
"146 568 OFFCURVE",
"262 594 OFFCURVE",
"374 594 CURVE SMOOTH",
"403 594 OFFCURVE",
"436 588 OFFCURVE",
"457 578 CURVE",
"457 70 LINE",
"433 54 OFFCURVE",
"403 50 OFFCURVE",
"374 50 CURVE SMOOTH"
);
}
);
width = 891;
},
{
anchors = (
{
name = top;
position = "{525, 648}";
}
);
layerId = "4843E09C-13E2-4232-9E55-A4E7C049DCE9";
paths = (
{
closed = 1;
nodes = (
"880 0 LINE",
"880 197 LINE",
"816 197 LINE",
"788 76 LINE",
"661 76 LINE",
"639 76 OFFCURVE",
"618 76 OFFCURVE",
"596 76 CURVE",
"596 290 LINE",
"698 290 LINE",
"720 214 LINE",
"773 214 LINE",
"773 435 LINE",
"720 435 LINE",
"698 366 LINE",
"596 366 LINE",
"596 565 LINE",
"640 572 LINE",
"778 572 LINE",
"805 460 LINE",
"871 460 LINE",
"871 648 LINE",
"365 648 LINE SMOOTH",
"159 648 OFFCURVE",
"35 520 OFFCURVE",
"35 313 CURVE SMOOTH",
"35 95 OFFCURVE",
"149 0 OFFCURVE",
"345 0 CURVE SMOOTH"
);
},
{
closed = 1;
nodes = (
"247 79 OFFCURVE",
"198 138 OFFCURVE",
"198 340 CURVE SMOOTH",
"198 525 OFFCURVE",
"268 567 OFFCURVE",
"355 567 CURVE SMOOTH",
"407 567 OFFCURVE",
"440 562 OFFCURVE",
"454 559 CURVE",
"454 87 LINE",
"427 82 OFFCURVE",
"393 79 OFFCURVE",
"358 79 CURVE SMOOTH"
);
}
);
width = 920;
}
);
leftKerningGroup = C;
unicode = 0152;
},
{
glyphname = P;
layers = (
{
anchors = (
{
name = bottom;
position = "{181, 0}";
},
{
name = top;
position = "{283, 648}";
}
);
background = {
paths = (
{
closed = 1;
nodes = (
"78 0 LINE",
"310 0 LINE",
"307 37 LINE",
"224 51 LINE",
"225 596 LINE",
"225 596 OFFCURVE",
"248 601 OFFCURVE",
"274 601 CURVE SMOOTH",
"357 601 OFFCURVE",
"404 572 OFFCURVE",
"418 475 CURVE SMOOTH",
"431 382 OFFCURVE",
"405 302 OFFCURVE",
"256 302 CURVE",
"261 268 LINE",
"277 268 LINE SMOOTH",
"435 268 OFFCURVE",
"523 346 OFFCURVE",
"503 487 CURVE SMOOTH",
"488 593 OFFCURVE",
"410 648 OFFCURVE",
"276 648 CURVE SMOOTH",
"75 648 LINE",
"77 611 LINE",
"146 597 LINE",
"145 51 LINE",
"76 37 LINE"
);
},
{
closed = 1;
nodes = (
"55 0 LINE",
"335 0 LINE",
"335 46 LINE",
"224 63 LINE",
"224 254 LINE",
"302 254 LINE SMOOTH",
"451 254 OFFCURVE",
"547 338 OFFCURVE",
"547 484 CURVE SMOOTH",
"547 605 OFFCURVE",
"446 648 OFFCURVE",
"304 648 CURVE SMOOTH",
"55 648 LINE",
"55 605 LINE",
"138 588 LINE",
"138 60 LINE",
"55 43 LINE"
);
}
);
};
layerId = "D905F18B-B0C6-4EFF-A833-0E5BFD426C49";
paths = (
{
closed = 1;
nodes = (
"335 0 LINE",
"335 46 LINE",
"224 63 LINE",
"224 586 LINE",
"224 586 OFFCURVE",
"263 591 OFFCURVE",
"303 591 CURVE SMOOTH",
"395 591 OFFCURVE",
"455 554 OFFCURVE",
"455 454 CURVE SMOOTH",
"455 339 OFFCURVE",
"383 301 OFFCURVE",
"268 301 CURVE",
"273 262 LINE",
"285 260 OFFCURVE",
"297 260 OFFCURVE",
"309 260 CURVE SMOOTH",
"452 260 OFFCURVE",
"547 335 OFFCURVE",
"547 484 CURVE SMOOTH",
"547 605 OFFCURVE",
"446 648 OFFCURVE",
"304 648 CURVE SMOOTH",
"55 648 LINE",
"55 605 LINE",
"138 588 LINE",
"138 60 LINE",
"55 43 LINE",
"55 0 LINE"
);
}
);
width = 565;
},
{
anchors = (
{
name = bottom;
position = "{186, 0}";
},
{
name = top;
position = "{292, 648}";
}
);
background = {
paths = (
{
closed = 1;
nodes = (
"35 0 LINE",
"337 0 LINE",
"337 56 LINE",
"257 75 LINE",
"257 245 LINE",
"304 245 LINE SMOOTH",
"461 245 OFFCURVE",
"573 331 OFFCURVE",
"573 461 CURVE SMOOTH",
"573 604 OFFCURVE",
"488 648 OFFCURVE",
"317 648 CURVE SMOOTH",
"35 648 LINE",
"35 592 LINE",
"115 573 LINE",
"115 75 LINE",
"35 56 LINE"
);
},
{
closed = 1;
nodes = (
"257 321 LINE",
"257 568 LINE",
"257 568 OFFCURVE",
"284 572 OFFCURVE",
"312 572 CURVE SMOOTH",
"389 572 OFFCURVE",
"423 531 OFFCURVE",
"423 461 CURVE SMOOTH",
"423 370 OFFCURVE",
"388 321 OFFCURVE",
"299 321 CURVE SMOOTH"
);
},
{
closed = 1;
nodes = (
"73 0 LINE",
"371 0 LINE",
"369 58 LINE",
"277 72 LINE",
"278 576 LINE",
"278 576 OFFCURVE",
"289 579 OFFCURVE",
"306 579 CURVE SMOOTH",
"368 579 OFFCURVE",
"404 555 OFFCURVE",
"413 485 CURVE SMOOTH",
"426 392 OFFCURVE",
"403 324 OFFCURVE",
"299 310 CURVE",
"306 260 LINE",
"527 260 OFFCURVE",
"571 380 OFFCURVE",
"557 482 CURVE SMOOTH",
"540 602 OFFCURVE",
"457 648 OFFCURVE",
"318 648 CURVE SMOOTH",
"70 648 LINE",
"71 590 LINE",
"143 576 LINE",
"142 72 LINE",
"73 58 LINE"
);
}
);
};
layerId = "4843E09C-13E2-4232-9E55-A4E7C049DCE9";
paths = (
{
closed = 1;
nodes = (
"337 0 LINE",
"337 56 LINE",
"257 75 LINE",
"257 568 LINE",
"257 568 OFFCURVE",
"284 572 OFFCURVE",
"312 572 CURVE SMOOTH",
"389 572 OFFCURVE",
"423 531 OFFCURVE",
"423 461 CURVE SMOOTH",
"423 362 OFFCURVE",
"394 321 OFFCURVE",
"299 310 CURVE",
"304 263 LINE",
"314 262 OFFCURVE",
"325 261 OFFCURVE",
"335 261 CURVE SMOOTH",
"465 259 OFFCURVE",
"573 328 OFFCURVE",
"573 461 CURVE SMOOTH",
"573 604 OFFCURVE",
"488 648 OFFCURVE",
"317 648 CURVE SMOOTH",
"35 648 LINE",
"35 592 LINE",
"115 573 LINE",
"115 75 LINE",
"35 56 LINE",
"35 0 LINE"
);
}
);
width = 583;
}
);
unicode = 0050;
},
{
glyphname = Thorn;
layers = (
{
layerId = "D905F18B-B0C6-4EFF-A833-0E5BFD426C49";
paths = (
{
closed = 1;
nodes = (
"310 0 LINE",
"310 44 LINE",
"228 59 LINE",
"228 156 LINE",
"306 156 LINE SMOOTH",
"455 156 OFFCURVE",
"536 214 OFFCURVE",
"536 357 CURVE SMOOTH",
"536 475 OFFCURVE",
"459 510 OFFCURVE",
"317 510 CURVE SMOOTH",
"228 510 LINE",
"228 589 LINE",
"310 604 LINE",
"310 648 LINE",
"59 648 LINE",
"59 604 LINE",
"141 589 LINE",
"141 59 LINE",
"59 44 LINE",
"59 0 LINE"
);
},
{
closed = 1;
nodes = (
"228 453 LINE",
"256 453 OFFCURVE",
"283 453 OFFCURVE",
"311 453 CURVE SMOOTH",
"397 453 OFFCURVE",
"444 426 OFFCURVE",
"444 336 CURVE SMOOTH",
"444 237 OFFCURVE",
"395 206 OFFCURVE",
"288 206 CURVE SMOOTH",
"228 206 LINE"
);
}
);
width = 561;
},
{
layerId = "4843E09C-13E2-4232-9E55-A4E7C049DCE9";
paths = (
{
closed = 1;
nodes = (
"337 0 LINE",
"337 56 LINE",
"257 75 LINE",
"257 140 LINE",
"293 140 LINE SMOOTH",
"444 140 OFFCURVE",
"552 201 OFFCURVE",
"552 344 CURVE SMOOTH",
"552 456 OFFCURVE",
"492 511 OFFCURVE",
"339 511 CURVE SMOOTH",
"257 511 LINE",
"257 573 LINE",
"337 592 LINE",
"337 648 LINE",
"35 648 LINE",
"35 592 LINE",
"115 573 LINE",
"115 75 LINE",
"35 56 LINE",
"35 0 LINE"
);
},
{
closed = 1;
nodes = (
"257 432 LINE",
"267 433 OFFCURVE",
"284 435 OFFCURVE",
"301 435 CURVE SMOOTH",
"378 435 OFFCURVE",
"409 398 OFFCURVE",
"409 334 CURVE SMOOTH",
"409 258 OFFCURVE",
"377 216 OFFCURVE",
"288 216 CURVE SMOOTH",
"257 216 LINE"
);
}
);
width = 582;
}
);
unicode = 00DE;
},
{
glyphname = Q;
layers = (
{
anchors = (
{
name = bottom;
position = "{351, 0}";
},
{
name = top;
position = "{351, 648}";
}
);
layerId = "D905F18B-B0C6-4EFF-A833-0E5BFD426C49";
paths = (
{
closed = 1;
nodes = (
"519 -135 LINE",
"542 -150 OFFCURVE",
"564 -156 OFFCURVE",
"591 -156 CURVE SMOOTH",
"641 -156 OFFCURVE",
"696 -121 OFFCURVE",
"696 -121 CURVE",
"696 -86 LINE",
"591 -86 LINE",
"443 7 LINE",
"608 61 OFFCURVE",
"651 229 OFFCURVE",
"651 343 CURVE SMOOTH",
"651 535 OFFCURVE",
"546 660 OFFCURVE",
"366 660 CURVE SMOOTH",
"173 660 OFFCURVE",
"45 500 OFFCURVE",
"45 318 CURVE SMOOTH",
"45 125 OFFCURVE",
"136 -1 OFFCURVE",
"307 -9 CURVE",
"353 -16 OFFCURVE",
"375 -32 OFFCURVE",
"390 -43 CURVE SMOOTH"
);
},
{
closed = 1;
nodes = (
"229 45 OFFCURVE",
"146 133 OFFCURVE",
"146 324 CURVE SMOOTH",
"146 576 OFFCURVE",
"241 601 OFFCURVE",
"352 601 CURVE SMOOTH",
"464 601 OFFCURVE",
"550 558 OFFCURVE",
"550 324 CURVE SMOOTH",
"550 152 OFFCURVE",
"495 45 OFFCURVE",
"370 45 CURVE SMOOTH"
);
}
);
width = 702;
},
{
anchors = (
{
name = bottom;
position = "{354, 0}";
},
{
name = top;
position = "{354, 648}";
}
);
layerId = "4843E09C-13E2-4232-9E55-A4E7C049DCE9";
paths = (
{
closed = 1;
nodes = (
"507 -134 LINE",
"536 -154 OFFCURVE",
"566 -162 OFFCURVE",
"602 -162 CURVE SMOOTH",
"652 -162 OFFCURVE",
"708 -128 OFFCURVE",
"708 -128 CURVE",
"708 -77 LINE",
"603 -77 LINE",
"457 0 LINE",
"594 45 OFFCURVE",
"672 174 OFFCURVE",
"672 335 CURVE SMOOTH",
"672 548 OFFCURVE",
"562 666 OFFCURVE",
"366 666 CURVE SMOOTH",
"160 666 OFFCURVE",
"35 515 OFFCURVE",
"35 313 CURVE SMOOTH",
"35 125 OFFCURVE",
"118 10 OFFCURVE",
"274 -13 CURVE SMOOTH",
"319 -20 OFFCURVE",
"344 -34 OFFCURVE",
"358 -43 CURVE SMOOTH"
);
},
{
closed = 1;
nodes = (
"249 65 OFFCURVE",
"198 139 OFFCURVE",
"198 337 CURVE SMOOTH",
"198 525 OFFCURVE",
"245 582 OFFCURVE",
"347 582 CURVE SMOOTH",
"457 582 OFFCURVE",
"508 505 OFFCURVE",
"508 324 CURVE SMOOTH",
"508 118 OFFCURVE",
"462 65 OFFCURVE",
"360 65 CURVE SMOOTH"
);
}
);
width = 707;
}
);
leftKerningGroup = C;
unicode = 0051;
},
{
glyphname = R;
layers = (
{
anchors = (
{
name = bottom;
position = "{338, 0}";
},
{
name = top;
position = "{306, 648}";
}
);
layerId = "D905F18B-B0C6-4EFF-A833-0E5BFD426C49";
paths = (
{
closed = 1;
nodes = (
"307 0 LINE",
"307 43 LINE",
"224 60 LINE",
"224 273 LINE",
"310 273 LINE",
"447 30 LINE SMOOTH",
"458 10 OFFCURVE",
"480 0 OFFCURVE",
"502 0 CURVE SMOOTH",
"606 0 LINE",
"606 43 LINE",
"538 62 LINE",
"397 293 LINE",
"461 321 OFFCURVE",
"538 362 OFFCURVE",
"538 488 CURVE SMOOTH",
"538 600 OFFCURVE",
"450 648 OFFCURVE",
"339 648 CURVE SMOOTH",
"55 648 LINE",
"55 605 LINE",
"138 588 LINE",
"138 60 LINE",
"55 43 LINE",
"55 0 LINE"
);
},
{
closed = 1;
nodes = (
"224 586 LINE",
"248 589 OFFCURVE",
"281 591 OFFCURVE",
"305 591 CURVE SMOOTH",
"364 591 OFFCURVE",
"444 580 OFFCURVE",
"444 470 CURVE SMOOTH",
"444 385 OFFCURVE",
"379 328 OFFCURVE",
"287 328 CURVE SMOOTH",
"224 328 LINE"
);
}
);
width = 611;
},
{
anchors = (
{
name = bottom;
position = "{328, 0}";
},
{
name = top;
position = "{314, 648}";
}
);
layerId = "4843E09C-13E2-4232-9E55-A4E7C049DCE9";
paths = (
{
closed = 1;
nodes = (
"337 0 LINE",
"337 56 LINE",
"257 75 LINE",
"257 264 LINE",
"299 264 LINE",
"421 33 LINE SMOOTH",
"435 7 OFFCURVE",
"450 0 OFFCURVE",
"480 0 CURVE SMOOTH",
"630 0 LINE",
"630 56 LINE",
"556 73 LINE",
"432 287 LINE",
"514 317 OFFCURVE",
"564 376 OFFCURVE",
"564 465 CURVE SMOOTH",
"564 608 OFFCURVE",
"477 648 OFFCURVE",
"317 648 CURVE SMOOTH",
"35 648 LINE",
"35 592 LINE",
"115 573 LINE",
"115 75 LINE",
"35 56 LINE",
"35 0 LINE"
);
},
{
closed = 1;
nodes = (
"257 568 LINE",
"266 570 OFFCURVE",
"288 572 OFFCURVE",
"308 572 CURVE SMOOTH",
"394 572 OFFCURVE",
"415 538 OFFCURVE",
"415 465 CURVE SMOOTH",
"415 381 OFFCURVE",
"368 340 OFFCURVE",
"287 340 CURVE SMOOTH",
"257 340 LINE"
);
}
);
width = 627;
}
);
unicode = 0052;
},
{
glyphname = Racute;
layers = (
{
layerId = "D905F18B-B0C6-4EFF-A833-0E5BFD426C49";
paths = (
{
closed = 1;
nodes = (
"307 0 LINE",
"307 43 LINE",
"224 60 LINE",
"224 273 LINE",
"310 273 LINE",
"447 30 LINE SMOOTH",
"458 10 OFFCURVE",
"480 0 OFFCURVE",
"502 0 CURVE SMOOTH",
"606 0 LINE",
"606 43 LINE",
"538 62 LINE",
"397 293 LINE",
"461 321 OFFCURVE",
"538 362 OFFCURVE",
"538 488 CURVE SMOOTH",
"538 600 OFFCURVE",
"450 648 OFFCURVE",
"339 648 CURVE SMOOTH",
"55 648 LINE",
"55 605 LINE",
"138 588 LINE",
"138 60 LINE",
"55 43 LINE",
"55 0 LINE"
);
},
{
closed = 1;
nodes = (
"224 586 LINE",
"248 589 OFFCURVE",
"281 591 OFFCURVE",
"305 591 CURVE SMOOTH",
"364 591 OFFCURVE",
"444 580 OFFCURVE",
"444 470 CURVE SMOOTH",
"444 385 OFFCURVE",
"379 328 OFFCURVE",
"287 328 CURVE SMOOTH",
"224 328 LINE"
);
},
{
closed = 1;
nodes = (
"414 767 LINE",
"410 814 OFFCURVE",
"391 836 OFFCURVE",
"372 836 CURVE SMOOTH",
"361 836 OFFCURVE",
"347 826 OFFCURVE",
"330 814 CURVE SMOOTH",
"199 716 LINE",
"221 681 LINE"
);
}
);
width = 611;
},
{
layerId = "4843E09C-13E2-4232-9E55-A4E7C049DCE9";
paths = (
{
closed = 1;
nodes = (
"337 0 LINE",
"337 56 LINE",
"257 75 LINE",
"257 264 LINE",
"301 264 LINE",
"423 33 LINE SMOOTH",
"437 7 OFFCURVE",
"452 0 OFFCURVE",
"482 0 CURVE SMOOTH",
"623 0 LINE",
"623 56 LINE",
"549 73 LINE",
"431 285 LINE",
"513 315 OFFCURVE",
"564 376 OFFCURVE",
"564 465 CURVE SMOOTH",
"564 608 OFFCURVE",
"477 648 OFFCURVE",
"317 648 CURVE SMOOTH",
"35 648 LINE",
"35 592 LINE",
"115 573 LINE",
"115 75 LINE",
"35 56 LINE",
"35 0 LINE"
);
},
{
closed = 1;
nodes = (
"257 568 LINE",
"267 570 OFFCURVE",
"290 572 OFFCURVE",
"311 572 CURVE SMOOTH",
"397 572 OFFCURVE",
"416 535 OFFCURVE",
"416 465 CURVE SMOOTH",
"416 381 OFFCURVE",
"368 340 OFFCURVE",
"287 340 CURVE SMOOTH",
"257 340 LINE"
);
},
{
closed = 1;
nodes = (
"447 739 LINE",
"460 788 OFFCURVE",
"447 844 OFFCURVE",
"397 844 CURVE SMOOTH",
"382 844 OFFCURVE",
"363 830 OFFCURVE",
"345 820 CURVE",
"202 721 LINE",
"227 671 LINE"
);
}
);
width = 636;
}
);
unicode = 0154;
},
{
glyphname = Rcaron;
layers = (
{
layerId = "D905F18B-B0C6-4EFF-A833-0E5BFD426C49";
paths = (
{
closed = 1;
nodes = (
"307 0 LINE",
"307 43 LINE",
"224 60 LINE",
"224 273 LINE",
"310 273 LINE",
"447 30 LINE SMOOTH",
"458 10 OFFCURVE",
"480 0 OFFCURVE",
"502 0 CURVE SMOOTH",
"606 0 LINE",
"606 43 LINE",
"538 62 LINE",
"397 293 LINE",
"461 321 OFFCURVE",
"538 362 OFFCURVE",
"538 488 CURVE SMOOTH",
"538 600 OFFCURVE",
"450 648 OFFCURVE",
"339 648 CURVE SMOOTH",
"55 648 LINE",
"55 605 LINE",
"138 588 LINE",
"138 60 LINE",
"55 43 LINE",
"55 0 LINE"
);
},
{
closed = 1;
nodes = (
"224 586 LINE",
"248 589 OFFCURVE",
"281 591 OFFCURVE",
"305 591 CURVE SMOOTH",
"364 591 OFFCURVE",
"444 580 OFFCURVE",
"444 470 CURVE SMOOTH",
"444 385 OFFCURVE",
"379 328 OFFCURVE",
"287 328 CURVE SMOOTH",
"224 328 LINE"
);
},
{
closed = 1;
nodes = (
"315 678 OFFCURVE",
"331 695 OFFCURVE",
"377 732 CURVE SMOOTH",
"456 796 LINE",
"431 832 LINE",
"305 769 LINE",
"183 834 LINE",
"150 793 LINE",
"224 732 LINE SMOOTH",
"263 700 OFFCURVE",
"285 678 OFFCURVE",
"301 678 CURVE SMOOTH"
);
}
);
width = 611;
},
{
layerId = "4843E09C-13E2-4232-9E55-A4E7C049DCE9";
paths = (
{
closed = 1;
nodes = (
"337 0 LINE",
"337 56 LINE",
"257 75 LINE",
"257 264 LINE",
"301 264 LINE",
"423 33 LINE SMOOTH",
"437 7 OFFCURVE",
"452 0 OFFCURVE",
"482 0 CURVE SMOOTH",
"623 0 LINE",
"623 56 LINE",
"549 73 LINE",
"431 285 LINE",
"513 315 OFFCURVE",
"564 376 OFFCURVE",
"564 465 CURVE SMOOTH",
"564 608 OFFCURVE",
"477 648 OFFCURVE",
"317 648 CURVE SMOOTH",
"35 648 LINE",
"35 592 LINE",
"115 573 LINE",
"115 75 LINE",
"35 56 LINE",
"35 0 LINE"
);
},
{
closed = 1;
nodes = (
"257 568 LINE",
"267 570 OFFCURVE",
"290 572 OFFCURVE",
"311 572 CURVE SMOOTH",
"397 572 OFFCURVE",
"416 535 OFFCURVE",
"416 465 CURVE SMOOTH",
"416 381 OFFCURVE",
"368 340 OFFCURVE",
"287 340 CURVE SMOOTH",
"257 340 LINE"
);
},
{
closed = 1;
nodes = (
"330 671 OFFCURVE",
"352 689 OFFCURVE",
"368 702 CURVE SMOOTH",
"488 802 LINE",
"459 844 LINE",
"320 782 LINE",
"173 844 LINE",
"139 792 LINE",
"262 701 LINE SMOOTH",
"274 692 OFFCURVE",
"297 671 OFFCURVE",
"314 671 CURVE SMOOTH"
);
}
);
width = 636;
}
);
unicode = 0158;
},
{
glyphname = Rcommaaccent;
layers = (
{
layerId = "D905F18B-B0C6-4EFF-A833-0E5BFD426C49";
paths = (
{
closed = 1;
nodes = (
"307 0 LINE",
"307 43 LINE",
"224 60 LINE",
"224 273 LINE",
"310 273 LINE",
"447 30 LINE SMOOTH",
"458 10 OFFCURVE",
"480 0 OFFCURVE",
"502 0 CURVE SMOOTH",
"606 0 LINE",
"606 43 LINE",
"538 62 LINE",
"397 293 LINE",
"461 321 OFFCURVE",
"538 362 OFFCURVE",
"538 488 CURVE SMOOTH",
"538 600 OFFCURVE",
"450 648 OFFCURVE",
"339 648 CURVE SMOOTH",
"55 648 LINE",
"55 605 LINE",
"138 588 LINE",
"138 60 LINE",
"55 43 LINE",
"55 0 LINE"
);
},
{
closed = 1;
nodes = (
"320 -187 LINE",
"320 -187 OFFCURVE",
"373 -148 OFFCURVE",
"373 -81 CURVE SMOOTH",
"373 -57 OFFCURVE",
"360 -29 OFFCURVE",
"325 -29 CURVE SMOOTH",
"312 -29 OFFCURVE",
"294 -35 OFFCURVE",
"280 -51 CURVE",
"294 -64 OFFCURVE",
"306 -83 OFFCURVE",
"306 -108 CURVE SMOOTH",
"306 -136 OFFCURVE",
"299 -158 OFFCURVE",
"289 -187 CURVE"
);
},
{
closed = 1;
nodes = (
"224 586 LINE",
"248 589 OFFCURVE",
"281 591 OFFCURVE",
"305 591 CURVE SMOOTH",
"364 591 OFFCURVE",
"444 580 OFFCURVE",
"444 470 CURVE SMOOTH",
"444 385 OFFCURVE",
"379 328 OFFCURVE",
"287 328 CURVE SMOOTH",
"224 328 LINE"
);
}
);
width = 611;
},
{
layerId = "4843E09C-13E2-4232-9E55-A4E7C049DCE9";
paths = (
{
closed = 1;
nodes = (
"337 0 LINE",
"337 56 LINE",
"257 75 LINE",
"257 264 LINE",
"301 264 LINE",
"423 33 LINE SMOOTH",
"437 7 OFFCURVE",
"452 0 OFFCURVE",
"482 0 CURVE SMOOTH",
"623 0 LINE",
"623 56 LINE",
"549 73 LINE",
"431 285 LINE",
"513 315 OFFCURVE",
"564 376 OFFCURVE",
"564 465 CURVE SMOOTH",
"564 608 OFFCURVE",
"477 648 OFFCURVE",
"317 648 CURVE SMOOTH",
"35 648 LINE",
"35 592 LINE",
"115 573 LINE",
"115 75 LINE",
"35 56 LINE",
"35 0 LINE"
);
},
{
closed = 1;
nodes = (
"317 -212 LINE",
"317 -212 OFFCURVE",
"385 -150 OFFCURVE",
"385 -83 CURVE SMOOTH",
"385 -54 OFFCURVE",
"368 -24 OFFCURVE",
"323 -24 CURVE SMOOTH",
"297 -24 OFFCURVE",
"281 -38 OFFCURVE",
"267 -54 CURVE",
"267 -54 OFFCURVE",
"287 -73 OFFCURVE",
"287 -118 CURVE SMOOTH",
"287 -162 OFFCURVE",
"273 -212 OFFCURVE",
"273 -212 CURVE"
);
},
{
closed = 1;
nodes = (
"257 568 LINE",
"267 570 OFFCURVE",
"290 572 OFFCURVE",
"311 572 CURVE SMOOTH",
"397 572 OFFCURVE",
"416 535 OFFCURVE",
"416 465 CURVE SMOOTH",
"416 381 OFFCURVE",
"368 340 OFFCURVE",
"287 340 CURVE SMOOTH",
"257 340 LINE"
);
}
);
width = 636;
}
);
unicode = 0156;
},
{
glyphname = S;
layers = (
{
anchors = (
{
name = bottom;
position = "{257, 0}";
},
{
name = top;
position = "{257, 648}";
}
);
layerId = "D905F18B-B0C6-4EFF-A833-0E5BFD426C49";
paths = (
{
closed = 1;
nodes = (
"352 -10 OFFCURVE",
"469 43 OFFCURVE",
"469 184 CURVE SMOOTH",
"469 300 OFFCURVE",
"387 339 OFFCURVE",
"305 370 CURVE SMOOTH",
"225 400 OFFCURVE",
"146 424 OFFCURVE",
"146 505 CURVE SMOOTH",
"146 560 OFFCURVE",
"169 601 OFFCURVE",
"270 601 CURVE SMOOTH",
"331 601 OFFCURVE",
"374 578 OFFCURVE",
"374 578 CURVE",
"393 484 LINE",
"442 484 LINE",
"442 635 LINE",
"419 645 OFFCURVE",
"339 660 OFFCURVE",
"273 660 CURVE SMOOTH",
"141 660 OFFCURVE",
"59 587 OFFCURVE",
"59 477 CURVE SMOOTH",
"59 353 OFFCURVE",
"159 322 OFFCURVE",
"248 290 CURVE SMOOTH",
"319 264 OFFCURVE",
"383 237 OFFCURVE",
"383 162 CURVE SMOOTH",
"383 75 OFFCURVE",
"342 48 OFFCURVE",
"244 48 CURVE SMOOTH",
"207 48 OFFCURVE",
"156 65 OFFCURVE",
"127 87 CURVE",
"112 187 LINE",
"58 187 LINE",
"58 44 LINE",
"88 17 OFFCURVE",
"171 -10 OFFCURVE",
"250 -10 CURVE SMOOTH"
);
}
);
width = 514;
},
{
anchors = (
{
name = bottom;
position = "{268, 0}";
},
{
name = top;
position = "{268, 648}";
}
);
layerId = "4843E09C-13E2-4232-9E55-A4E7C049DCE9";
paths = (
{
closed = 1;
nodes = (
"368 -17 OFFCURVE",
"495 30 OFFCURVE",
"495 195 CURVE SMOOTH",
"495 312 OFFCURVE",
"404 359 OFFCURVE",
"290 405 CURVE SMOOTH",
"223 432 OFFCURVE",
"170 446 OFFCURVE",
"170 501 CURVE SMOOTH",
"170 554 OFFCURVE",
"195 582 OFFCURVE",
"278 582 CURVE SMOOTH",
"321 582 OFFCURVE",
"354 572 OFFCURVE",
"376 563 CURVE",
"397 459 LINE",
"466 459 LINE",
"466 641 LINE",
"431 651 OFFCURVE",
"349 666 OFFCURVE",
"274 666 CURVE SMOOTH",
"129 666 OFFCURVE",
"39 588 OFFCURVE",
"39 475 CURVE SMOOTH",
"39 334 OFFCURVE",
"150 303 OFFCURVE",
"243 262 CURVE SMOOTH",
"357 212 OFFCURVE",
"369 199 OFFCURVE",
"369 152 CURVE SMOOTH",
"369 105 OFFCURVE",
"340 65 OFFCURVE",
"249 65 CURVE SMOOTH",
"206 65 OFFCURVE",
"155 83 OFFCURVE",
"130 108 CURVE",
"109 211 LINE",
"39 211 LINE",
"39 33 LINE",
"63 18 OFFCURVE",
"139 -17 OFFCURVE",
"252 -17 CURVE SMOOTH"
);
}
);
width = 536;
}
);
unicode = 0053;
},
{
glyphname = Sacute;
layers = (
{
components = (
{
name = S;
}
);
layerId = "D905F18B-B0C6-4EFF-A833-0E5BFD426C49";
paths = (
{
closed = 1;
nodes = (
"392 767 LINE",
"388 814 OFFCURVE",
"369 836 OFFCURVE",
"350 836 CURVE SMOOTH",
"339 836 OFFCURVE",
"325 826 OFFCURVE",
"308 814 CURVE SMOOTH",
"177 716 LINE",
"199 681 LINE"
);
}
);
width = 514;
},
{
components = (
{
name = S;
}
);
layerId = "4843E09C-13E2-4232-9E55-A4E7C049DCE9";
paths = (
{
closed = 1;
nodes = (
"403 739 LINE",
"416 788 OFFCURVE",
"403 844 OFFCURVE",
"353 844 CURVE SMOOTH",
"338 844 OFFCURVE",
"319 830 OFFCURVE",
"301 820 CURVE SMOOTH",
"158 721 LINE",
"183 671 LINE"
);
}
);
width = 536;
}
);
unicode = 015A;
},
{
glyphname = Scaron;
layers = (
{
components = (
{
name = S;
}
);
layerId = "D905F18B-B0C6-4EFF-A833-0E5BFD426C49";
paths = (
{
closed = 1;
nodes = (
"273 678 OFFCURVE",
"289 695 OFFCURVE",
"335 732 CURVE SMOOTH",
"414 796 LINE",
"389 832 LINE",
"263 769 LINE",
"141 834 LINE",
"108 793 LINE",
"182 732 LINE SMOOTH",
"221 700 OFFCURVE",
"243 678 OFFCURVE",
"259 678 CURVE SMOOTH"
);
}
);
width = 514;
},
{
components = (
{
name = S;
}
);
layerId = "4843E09C-13E2-4232-9E55-A4E7C049DCE9";
paths = (
{
closed = 1;
nodes = (
"292 671 OFFCURVE",
"314 689 OFFCURVE",
"330 702 CURVE SMOOTH",
"450 802 LINE",
"421 844 LINE",
"282 782 LINE",
"135 844 LINE",
"101 792 LINE",
"224 701 LINE SMOOTH",
"244 687 OFFCURVE",
"261 671 OFFCURVE",
"275 671 CURVE SMOOTH"
);
}
);
width = 536;
}
);
unicode = 0160;
},
{
glyphname = Scedilla;
layers = (
{
layerId = "D905F18B-B0C6-4EFF-A833-0E5BFD426C49";
paths = (
{
closed = 1;
nodes = (
"301 -187 OFFCURVE",
"364 -166 OFFCURVE",
"364 -96 CURVE SMOOTH",
"364 -52 OFFCURVE",
"330 -42 OFFCURVE",
"292 -33 CURVE SMOOTH",
"275 -29 LINE",
"275 -9 LINE",
"370 -1 OFFCURVE",
"469 54 OFFCURVE",
"469 184 CURVE SMOOTH",
"469 306 OFFCURVE",
"379 343 OFFCURVE",
"294 375 CURVE SMOOTH",
"218 403 OFFCURVE",
"146 428 OFFCURVE",
"146 505 CURVE SMOOTH",
"146 560 OFFCURVE",
"169 601 OFFCURVE",
"270 601 CURVE SMOOTH",
"306 601 OFFCURVE",
"350 591 OFFCURVE",
"374 578 CURVE",
"393 484 LINE",
"442 484 LINE",
"442 635 LINE",
"419 645 OFFCURVE",
"339 660 OFFCURVE",
"273 660 CURVE SMOOTH",
"141 660 OFFCURVE",
"59 587 OFFCURVE",
"59 477 CURVE SMOOTH",
"59 350 OFFCURVE",
"164 321 OFFCURVE",
"254 288 CURVE SMOOTH",
"323 263 OFFCURVE",
"383 235 OFFCURVE",
"383 162 CURVE SMOOTH",
"383 71 OFFCURVE",
"337 48 OFFCURVE",
"244 48 CURVE SMOOTH",
"207 48 OFFCURVE",
"156 65 OFFCURVE",
"127 87 CURVE",
"112 187 LINE",
"58 187 LINE",
"58 44 LINE",
"85 19 OFFCURVE",
"157 -5 OFFCURVE",
"230 -9 CURVE",
"209 -59 LINE",
"228 -78 LINE",
"265 -86 LINE SMOOTH",
"285 -90 OFFCURVE",
"296 -93 OFFCURVE",
"296 -115 CURVE SMOOTH",
"296 -135 OFFCURVE",
"276 -145 OFFCURVE",
"237 -145 CURVE SMOOTH",
"214 -145 OFFCURVE",
"198 -140 OFFCURVE",
"183 -134 CURVE",
"167 -171 LINE",
"190 -181 OFFCURVE",
"210 -187 OFFCURVE",
"241 -187 CURVE SMOOTH"
);
}
);
width = 514;
},
{
layerId = "4843E09C-13E2-4232-9E55-A4E7C049DCE9";
paths = (
{
closed = 1;
nodes = (
"334 -194 OFFCURVE",
"376 -163 OFFCURVE",
"376 -104 CURVE SMOOTH",
"376 -58 OFFCURVE",
"349 -45 OFFCURVE",
"308 -35 CURVE SMOOTH",
"287 -30 LINE",
"287 -15 LINE",
"393 -7 OFFCURVE",
"498 45 OFFCURVE",
"498 195 CURVE SMOOTH",
"498 312 OFFCURVE",
"407 359 OFFCURVE",
"293 405 CURVE SMOOTH",
"226 432 OFFCURVE",
"173 452 OFFCURVE",
"173 501 CURVE SMOOTH",
"173 554 OFFCURVE",
"192 582 OFFCURVE",
"281 582 CURVE SMOOTH",
"314 582 OFFCURVE",
"348 575 OFFCURVE",
"379 563 CURVE",
"400 459 LINE",
"469 459 LINE",
"469 641 LINE",
"434 651 OFFCURVE",
"352 666 OFFCURVE",
"277 666 CURVE SMOOTH",
"132 666 OFFCURVE",
"42 588 OFFCURVE",
"42 475 CURVE SMOOTH",
"42 339 OFFCURVE",
"153 299 OFFCURVE",
"246 262 CURVE SMOOTH",
"360 216 OFFCURVE",
"372 199 OFFCURVE",
"372 152 CURVE SMOOTH",
"372 95 OFFCURVE",
"343 65 OFFCURVE",
"252 65 CURVE SMOOTH",
"209 65 OFFCURVE",
"158 83 OFFCURVE",
"133 108 CURVE",
"112 211 LINE",
"42 211 LINE",
"42 33 LINE",
"64 19 OFFCURVE",
"131 -12 OFFCURVE",
"230 -16 CURVE",
"209 -64 LINE",
"232 -87 LINE",
"261 -93 LINE SMOOTH",
"277 -96 OFFCURVE",
"284 -102 OFFCURVE",
"284 -116 CURVE SMOOTH",
"284 -137 OFFCURVE",
"269 -141 OFFCURVE",
"249 -141 CURVE SMOOTH",
"227 -141 OFFCURVE",
"211 -138 OFFCURVE",
"188 -128 CURVE",
"168 -175 LINE",
"193 -188 OFFCURVE",
"215 -194 OFFCURVE",
"252 -194 CURVE SMOOTH"
);
}
);
width = 536;
}
);
unicode = 015E;
},
{
glyphname = Scommaaccent;
layers = (
{
layerId = "D905F18B-B0C6-4EFF-A833-0E5BFD426C49";
paths = (
{
closed = 1;
nodes = (
"352 -10 OFFCURVE",
"469 43 OFFCURVE",
"469 184 CURVE SMOOTH",
"469 304 OFFCURVE",
"380 341 OFFCURVE",
"296 373 CURVE SMOOTH",
"219 402 OFFCURVE",
"146 427 OFFCURVE",
"146 505 CURVE SMOOTH",
"146 560 OFFCURVE",
"169 601 OFFCURVE",
"270 601 CURVE SMOOTH",
"306 601 OFFCURVE",
"350 591 OFFCURVE",
"374 578 CURVE",
"393 484 LINE",
"442 484 LINE",
"442 635 LINE",
"419 645 OFFCURVE",
"339 660 OFFCURVE",
"273 660 CURVE SMOOTH",
"141 660 OFFCURVE",
"59 587 OFFCURVE",
"59 477 CURVE SMOOTH",
"59 352 OFFCURVE",
"161 322 OFFCURVE",
"250 289 CURVE SMOOTH",
"320 264 OFFCURVE",
"383 237 OFFCURVE",
"383 162 CURVE SMOOTH",
"383 75 OFFCURVE",
"342 48 OFFCURVE",
"244 48 CURVE SMOOTH",
"207 48 OFFCURVE",
"156 65 OFFCURVE",
"127 87 CURVE",
"112 187 LINE",
"58 187 LINE",
"58 44 LINE",
"88 17 OFFCURVE",
"171 -10 OFFCURVE",
"250 -10 CURVE SMOOTH"
);
},
{
closed = 1;
nodes = (
"256 -187 LINE",
"256 -187 OFFCURVE",
"309 -148 OFFCURVE",
"309 -81 CURVE SMOOTH",
"309 -57 OFFCURVE",
"296 -29 OFFCURVE",
"261 -29 CURVE SMOOTH",
"248 -29 OFFCURVE",
"230 -35 OFFCURVE",
"216 -51 CURVE",
"230 -64 OFFCURVE",
"242 -83 OFFCURVE",
"242 -108 CURVE SMOOTH",
"242 -136 OFFCURVE",
"235 -158 OFFCURVE",
"225 -187 CURVE"
);
}
);
width = 514;
},
{
layerId = "4843E09C-13E2-4232-9E55-A4E7C049DCE9";
paths = (
{
closed = 1;
nodes = (
"371 -17 OFFCURVE",
"498 30 OFFCURVE",
"498 195 CURVE SMOOTH",
"498 312 OFFCURVE",
"407 359 OFFCURVE",
"293 405 CURVE SMOOTH",
"226 432 OFFCURVE",
"173 452 OFFCURVE",
"173 501 CURVE SMOOTH",
"173 554 OFFCURVE",
"192 582 OFFCURVE",
"281 582 CURVE SMOOTH",
"314 582 OFFCURVE",
"348 575 OFFCURVE",
"379 563 CURVE",
"400 459 LINE",
"469 459 LINE",
"469 641 LINE",
"434 651 OFFCURVE",
"352 666 OFFCURVE",
"277 666 CURVE SMOOTH",
"132 666 OFFCURVE",
"42 588 OFFCURVE",
"42 475 CURVE SMOOTH",
"42 339 OFFCURVE",
"153 299 OFFCURVE",
"246 262 CURVE SMOOTH",
"360 216 OFFCURVE",
"372 199 OFFCURVE",
"372 152 CURVE SMOOTH",
"372 95 OFFCURVE",
"343 65 OFFCURVE",
"252 65 CURVE SMOOTH",
"209 65 OFFCURVE",
"158 83 OFFCURVE",
"133 108 CURVE",
"112 211 LINE",
"42 211 LINE",
"42 33 LINE",
"66 18 OFFCURVE",
"142 -17 OFFCURVE",
"255 -17 CURVE SMOOTH"
);
},
{
closed = 1;
nodes = (
"250 -212 LINE",
"250 -212 OFFCURVE",
"318 -150 OFFCURVE",
"318 -83 CURVE SMOOTH",
"318 -54 OFFCURVE",
"301 -24 OFFCURVE",
"256 -24 CURVE SMOOTH",
"230 -24 OFFCURVE",
"214 -38 OFFCURVE",
"200 -54 CURVE",
"200 -54 OFFCURVE",
"220 -73 OFFCURVE",
"220 -118 CURVE SMOOTH",
"220 -162 OFFCURVE",
"206 -212 OFFCURVE",
"206 -212 CURVE"
);
}
);
width = 536;
}
);
unicode = 0218;
},
{
color = 6;
glyphname = Germandbls;
layers = (
{
anchors = (
{
name = bottom;
position = "{434, 0}";
},
{
name = top;
position = "{434, 648}";
}
);
background = {
anchors = (
{
name = bottom;
position = "{1090, 0}";
},
{
name = center;
position = "{1090, 324}";
},
{
name = top;
position = "{1090, 648}";
},
{
name = topright;
position = "{1418, 648}";
}
);
paths = (
{
closed = 1;
nodes = (
"532 361 LINE",
"681 566 LINE",
"681 632 LINE",
"600 652 OFFCURVE",
"506 660 OFFCURVE",
"450 660 CURVE SMOOTH",
"227 660 OFFCURVE",
"127 533 OFFCURVE",
"127 342 CURVE SMOOTH",
"127 59 LINE",
"45 44 LINE",
"45 0 LINE",
"296 0 LINE",
"296 44 LINE",
"213 59 LINE",
"213 370 LINE SMOOTH",
"213 510 OFFCURVE",
"251 601 OFFCURVE",
"429 601 CURVE SMOOTH",
"475 601 OFFCURVE",
"527 595 OFFCURVE",
"571 585 CURVE",
"571 568 LINE",
"422 349 LINE",
"422 290 LINE",
"460 290 LINE SMOOTH",
"552 290 OFFCURVE",
"635 271 OFFCURVE",
"635 156 CURVE SMOOTH",
"635 82 OFFCURVE",
"600 48 OFFCURVE",
"526 48 CURVE SMOOTH",
"462 48 OFFCURVE",
"434 73 OFFCURVE",
"419 87 CURVE",
"404 187 LINE",
"350 187 LINE",
"350 44 LINE",
"377 17 OFFCURVE",
"452 -10 OFFCURVE",
"520 -10 CURVE SMOOTH",
"615 -10 OFFCURVE",
"721 44 OFFCURVE",
"721 181 CURVE SMOOTH",
"721 311 OFFCURVE",
"626 348 OFFCURVE",
"532 351 CURVE"
);
}
);
};
layerId = "D905F18B-B0C6-4EFF-A833-0E5BFD426C49";
paths = (
{
closed = 1;
nodes = (
"596 -10 OFFCURVE",
"691 54 OFFCURVE",
"691 177 CURVE SMOOTH",
"691 302 OFFCURVE",
"594 347 OFFCURVE",
"492 351 CURVE",
"492 361 LINE",
"641 570 LINE",
"641 632 LINE",
"567 652 OFFCURVE",
"482 660 OFFCURVE",
"430 660 CURVE SMOOTH",
"221 660 OFFCURVE",
"127 533 OFFCURVE",
"127 342 CURVE SMOOTH",
"127 59 LINE",
"45 44 LINE",
"45 0 LINE",
"296 0 LINE",
"296 44 LINE",
"213 59 LINE",
"213 370 LINE SMOOTH",
"213 510 OFFCURVE",
"259 601 OFFCURVE",
"410 601 CURVE SMOOTH",
"449 601 OFFCURVE",
"493 595 OFFCURVE",
"531 585 CURVE",
"531 568 LINE",
"382 349 LINE",
"382 290 LINE",
"430 290 LINE SMOOTH",
"524 290 OFFCURVE",
"605 261 OFFCURVE",
"605 154 CURVE SMOOTH",
"605 92 OFFCURVE",
"578 48 OFFCURVE",
"512 48 CURVE SMOOTH",
"468 48 OFFCURVE",
"440 67 OFFCURVE",
"429 77 CURVE",
"414 177 LINE",
"360 177 LINE",
"360 34 LINE",
"384 12 OFFCURVE",
"452 -10 OFFCURVE",
"505 -10 CURVE SMOOTH"
);
}
);
width = 736;
},
{
anchors = (
{
name = bottom;
position = "{424, 0}";
},
{
name = top;
position = "{424, 648}";
}
);
background = {
paths = (
{
closed = 1;
nodes = (
"556 378 LINE",
"688 572 LINE",
"688 640 LINE",
"653 649 OFFCURVE",
"522 666 OFFCURVE",
"439 666 CURVE SMOOTH",
"208 666 OFFCURVE",
"83 533 OFFCURVE",
"83 343 CURVE SMOOTH",
"83 75 LINE",
"3 56 LINE",
"3 0 LINE",
"225 0 LINE",
"225 369 LINE SMOOTH",
"225 511 OFFCURVE",
"272 582 OFFCURVE",
"437 582 CURVE SMOOTH",
"476 582 OFFCURVE",
"511 578 OFFCURVE",
"541 573 CURVE",
"541 563 LINE",
"410 375 LINE",
"410 300 LINE",
"429 300 LINE SMOOTH",
"580 300 OFFCURVE",
"604 224 OFFCURVE",
"604 167 CURVE SMOOTH",
"604 112 OFFCURVE",
"581 65 OFFCURVE",
"510 65 CURVE SMOOTH",
"460 65 OFFCURVE",
"418 88 OFFCURVE",
"400 108 CURVE",
"379 211 LINE",
"309 211 LINE",
"309 33 LINE",
"330 18 OFFCURVE",
"413 -17 OFFCURVE",
"501 -17 CURVE SMOOTH",
"616 -17 OFFCURVE",
"730 43 OFFCURVE",
"730 184 CURVE SMOOTH",
"730 286 OFFCURVE",
"670 352 OFFCURVE",
"556 370 CURVE"
);
}
);
};
guideLines = (
{
position = "{173, 75}";
},
{
position = "{183, 56}";
}
);
layerId = "4843E09C-13E2-4232-9E55-A4E7C049DCE9";
paths = (
{
closed = 1;
nodes = (
"582 -17 OFFCURVE",
"690 44 OFFCURVE",
"690 183 CURVE SMOOTH",
"690 282 OFFCURVE",
"633 351 OFFCURVE",
"511 370 CURVE",
"511 378 LINE",
"648 572 LINE",
"648 640 LINE",
"614 649 OFFCURVE",
"488 666 OFFCURVE",
"411 666 CURVE SMOOTH",
"196 666 OFFCURVE",
"83 533 OFFCURVE",
"83 343 CURVE SMOOTH",
"83 75 LINE",
"3 56 LINE",
"3 0 LINE",
"225 0 LINE",
"225 56 LINE",
"225 75 LINE",
"225 369 LINE SMOOTH",
"225 511 OFFCURVE",
"263 582 OFFCURVE",
"397 582 CURVE SMOOTH",
"436 582 OFFCURVE",
"471 578 OFFCURVE",
"501 573 CURVE",
"501 563 LINE",
"370 375 LINE",
"370 300 LINE",
"389 300 LINE SMOOTH",
"540 300 OFFCURVE",
"564 224 OFFCURVE",
"564 167 CURVE SMOOTH",
"564 112 OFFCURVE",
"542 65 OFFCURVE",
"481 65 CURVE SMOOTH",
"443 65 OFFCURVE",
"413 83 OFFCURVE",
"400 98 CURVE",
"379 201 LINE",
"309 201 LINE",
"309 23 LINE",
"327 11 OFFCURVE",
"397 -17 OFFCURVE",
"471 -17 CURVE SMOOTH"
);
}
);
width = 731;
}
);
leftMetricsKey = "=U";
rightMetricsKey = "=S";
unicode = 1E9E;
},
{
color = 6;
glyphname = Schwa;
layers = (
{
anchors = (
{
name = bottom;
position = "{348, 0}";
},
{
name = center;
position = "{348, 324}";
},
{
name = top;
position = "{348, 648}";
},
{
name = topright;
position = "{676, 648}";
}
);
background = {
components = (
{
name = O;
}
);
paths = (
{
closed = 1;
nodes = (
"56 305 LINE",
"609 305 LINE",
"609 360 LINE",
"56 360 LINE"
);
},
{
closed = 1;
nodes = (
"174 567 LINE",
"174 567 OFFCURVE",
"213 604 OFFCURVE",
"313 604 CURVE SMOOTH",
"445 604 OFFCURVE",
"519 493 OFFCURVE",
"519 330 CURVE",
"620 333 LINE",
"620 545 OFFCURVE",
"526 660 OFFCURVE",
"325 660 CURVE SMOOTH",
"203 660 OFFCURVE",
"145 634 OFFCURVE",
"105 617 CURVE",
"105 465 LINE",
"154 465 LINE"
);
}
);
};
layerId = "D905F18B-B0C6-4EFF-A833-0E5BFD426C49";
paths = (
{
closed = 1;
nodes = (
"534 -13 OFFCURVE",
"620 145 OFFCURVE",
"620 333 CURVE SMOOTH",
"620 550 OFFCURVE",
"522 660 OFFCURVE",
"325 660 CURVE SMOOTH",
"203 660 OFFCURVE",
"145 634 OFFCURVE",
"105 617 CURVE",
"105 465 LINE",
"154 465 LINE",
"174 567 LINE",
"174 567 OFFCURVE",
"213 604 OFFCURVE",
"313 604 CURVE SMOOTH",
"437 604 OFFCURVE",
"510 506 OFFCURVE",
"518 360 CURVE",
"47 360 LINE",
"46 345 OFFCURVE",
"45 330 OFFCURVE",
"45 310 CURVE SMOOTH",
"45 114 OFFCURVE",
"143 -13 OFFCURVE",
"328 -13 CURVE SMOOTH"
);
},
{
closed = 1;
nodes = (
"220 44 OFFCURVE",
"149 120 OFFCURVE",
"146 305 CURVE",
"519 305 LINE",
"516 131 OFFCURVE",
"467 44 OFFCURVE",
"339 44 CURVE SMOOTH"
);
}
);
width = 665;
},
{
anchors = (
{
name = bottom;
position = "{354, 0}";
},
{
name = center;
position = "{354, 324}";
},
{
name = top;
position = "{354, 648}";
},
{
name = topright;
position = "{687, 648}";
}
);
background = {
components = (
{
name = O;
}
);
paths = (
{
closed = 1;
nodes = (
"45 296 LINE",
"645 296 LINE",
"645 373 LINE",
"45 373 LINE"
);
},
{
closed = 1;
nodes = (
"195 560 LINE",
"218 570 OFFCURVE",
"257 583 OFFCURVE",
"309 583 CURVE SMOOTH",
"422 583 OFFCURVE",
"478 538 OFFCURVE",
"478 329 CURVE",
"641 332 LINE",
"641 544 OFFCURVE",
"540 666 OFFCURVE",
"335 666 CURVE SMOOTH",
"212 666 OFFCURVE",
"138 638 OFFCURVE",
"98 621 CURVE",
"98 441 LINE",
"172 441 LINE"
);
}
);
};
layerId = "4843E09C-13E2-4232-9E55-A4E7C049DCE9";
paths = (
{
closed = 1;
nodes = (
"518 -18 OFFCURVE",
"638 115 OFFCURVE",
"641 332 CURVE SMOOTH",
"638 552 OFFCURVE",
"535 666 OFFCURVE",
"335 666 CURVE SMOOTH",
"212 666 OFFCURVE",
"138 638 OFFCURVE",
"98 621 CURVE",
"98 441 LINE",
"172 441 LINE",
"195 560 LINE",
"218 570 OFFCURVE",
"257 583 OFFCURVE",
"309 583 CURVE SMOOTH",
"414 583 OFFCURVE",
"469 544 OFFCURVE",
"477 373 CURVE",
"39 373 LINE",
"36 354 OFFCURVE",
"35 334 OFFCURVE",
"35 313 CURVE SMOOTH",
"35 94 OFFCURVE",
"142 -18 OFFCURVE",
"323 -18 CURVE SMOOTH"
);
},
{
closed = 1;
nodes = (
"252 65 OFFCURVE",
"205 126 OFFCURVE",
"199 296 CURVE",
"478 296 LINE",
"476 120 OFFCURVE",
"434 65 OFFCURVE",
"346 65 CURVE SMOOTH"
);
}
);
width = 677;
}
);
rightMetricsKey = "=O";
unicode = 018F;
},
{
glyphname = T;
layers = (
{
anchors = (
{
name = bottom;
position = "{271, 0}";
},
{
name = center;
position = "{271, 324}";
},
{
name = top;
position = "{271, 648}";
}
);
layerId = "D905F18B-B0C6-4EFF-A833-0E5BFD426C49";
paths = (
{
closed = 1;
nodes = (
"145 0 LINE",
"396 0 LINE",
"396 44 LINE",
"314 59 LINE",
"314 590 LINE",
"457 590 LINE",
"477 484 LINE",
"526 484 LINE",
"526 648 LINE",
"15 648 LINE",
"15 484 LINE",
"64 484 LINE",
"85 590 LINE",
"227 590 LINE",
"227 59 LINE",
"145 44 LINE"
);
}
);
width = 541;
},
{
anchors = (
{
name = bottom;
position = "{282, 0}";
},
{
name = center;
position = "{282, 324}";
},
{
name = top;
position = "{282, 648}";
}
);
layerId = "4843E09C-13E2-4232-9E55-A4E7C049DCE9";
paths = (
{
closed = 1;
nodes = (
"135 0 LINE",
"437 0 LINE",
"437 56 LINE",
"357 75 LINE",
"357 572 LINE",
"468 572 LINE",
"495 460 LINE",
"561 460 LINE",
"561 648 LINE",
"8 648 LINE",
"8 460 LINE",
"74 460 LINE",
"101 572 LINE",
"215 572 LINE",
"215 75 LINE",
"135 56 LINE"
);
}
);
width = 563;
}
);
rightKerningGroup = T;
unicode = 0054;
},
{
color = 6;
glyphname = Tbar;
layers = (
{
components = (
{
name = T;
}
);
layerId = "D905F18B-B0C6-4EFF-A833-0E5BFD426C49";
paths = (
{
closed = 1;
nodes = (
"491 305 LINE",
"491 362 LINE",
"50 362 LINE",
"50 305 LINE"
);
}
);
width = 541;
},
{
components = (
{
name = T;
}
);
layerId = "4843E09C-13E2-4232-9E55-A4E7C049DCE9";
paths = (
{
closed = 1;
nodes = (
"532 296 LINE",
"532 373 LINE",
"31 373 LINE",
"31 296 LINE"
);
}
);
width = 563;
}
);
unicode = 0166;
},
{
glyphname = Tcaron;
layers = (
{
layerId = "D905F18B-B0C6-4EFF-A833-0E5BFD426C49";
paths = (
{
closed = 1;
nodes = (
"145 0 LINE",
"396 0 LINE",
"396 44 LINE",
"314 59 LINE",
"314 590 LINE",
"457 590 LINE",
"477 484 LINE",
"526 484 LINE",
"526 648 LINE",
"15 648 LINE",
"15 484 LINE",
"64 484 LINE",
"85 590 LINE",
"227 590 LINE",
"227 59 LINE",
"145 44 LINE"
);
},
{
closed = 1;
nodes = (
"115 793 LINE",
"189 732 LINE SMOOTH",
"228 700 OFFCURVE",
"250 678 OFFCURVE",
"266 678 CURVE SMOOTH",
"280 678 OFFCURVE",
"296 695 OFFCURVE",
"342 732 CURVE SMOOTH",
"421 796 LINE",
"396 832 LINE",
"270 769 LINE",
"148 834 LINE"
);
}
);
width = 541;
},
{
layerId = "4843E09C-13E2-4232-9E55-A4E7C049DCE9";
paths = (
{
closed = 1;
nodes = (
"137 0 LINE",
"439 0 LINE",
"439 56 LINE",
"359 75 LINE",
"359 572 LINE",
"470 572 LINE",
"497 460 LINE",
"563 460 LINE",
"563 648 LINE",
"10 648 LINE",
"10 460 LINE",
"76 460 LINE",
"103 572 LINE",
"217 572 LINE",
"217 75 LINE",
"137 56 LINE"
);
},
{
closed = 1;
nodes = (
"118 792 LINE",
"241 701 LINE SMOOTH",
"253 692 OFFCURVE",
"276 671 OFFCURVE",
"293 671 CURVE SMOOTH",
"314 671 OFFCURVE",
"333 691 OFFCURVE",
"347 702 CURVE SMOOTH",
"467 802 LINE",
"438 844 LINE",
"299 782 LINE",
"152 844 LINE"
);
}
);
width = 573;
}
);
rightKerningGroup = T;
unicode = 0164;
},
{
glyphname = Tcedilla;
layers = (
{
layerId = "D905F18B-B0C6-4EFF-A833-0E5BFD426C49";
paths = (
{
closed = 1;
nodes = (
"319 -187 OFFCURVE",
"382 -166 OFFCURVE",
"382 -96 CURVE SMOOTH",
"382 -52 OFFCURVE",
"348 -42 OFFCURVE",
"310 -33 CURVE SMOOTH",
"293 -29 LINE",
"293 0 LINE",
"396 0 LINE",
"396 44 LINE",
"314 59 LINE",
"314 590 LINE",
"457 590 LINE",
"477 484 LINE",
"526 484 LINE",
"526 648 LINE",
"15 648 LINE",
"15 484 LINE",
"64 484 LINE",
"85 590 LINE",
"227 590 LINE",
"227 59 LINE",
"145 44 LINE",
"145 0 LINE",
"252 0 LINE",
"227 -59 LINE",
"246 -78 LINE",
"283 -86 LINE SMOOTH",
"303 -90 OFFCURVE",
"314 -93 OFFCURVE",
"314 -115 CURVE SMOOTH",
"314 -135 OFFCURVE",
"294 -145 OFFCURVE",
"255 -145 CURVE SMOOTH",
"232 -145 OFFCURVE",
"216 -140 OFFCURVE",
"201 -134 CURVE",
"185 -171 LINE",
"208 -181 OFFCURVE",
"228 -187 OFFCURVE",
"259 -187 CURVE SMOOTH"
);
}
);
width = 541;
},
{
layerId = "4843E09C-13E2-4232-9E55-A4E7C049DCE9";
paths = (
{
closed = 1;
nodes = (
"358 -194 OFFCURVE",
"400 -163 OFFCURVE",
"400 -104 CURVE SMOOTH",
"400 -58 OFFCURVE",
"373 -45 OFFCURVE",
"332 -35 CURVE SMOOTH",
"311 -30 LINE",
"311 0 LINE",
"439 0 LINE",
"439 56 LINE",
"359 75 LINE",
"359 572 LINE",
"470 572 LINE",
"497 460 LINE",
"563 460 LINE",
"563 648 LINE",
"10 648 LINE",
"10 460 LINE",
"76 460 LINE",
"103 572 LINE",
"217 572 LINE",
"217 75 LINE",
"137 56 LINE",
"137 0 LINE",
"262 0 LINE",
"233 -64 LINE",
"256 -87 LINE",
"285 -93 LINE SMOOTH",
"301 -96 OFFCURVE",
"308 -102 OFFCURVE",
"308 -116 CURVE SMOOTH",
"308 -137 OFFCURVE",
"293 -141 OFFCURVE",
"273 -141 CURVE SMOOTH",
"251 -141 OFFCURVE",
"235 -138 OFFCURVE",
"212 -128 CURVE",
"192 -175 LINE",
"217 -188 OFFCURVE",
"239 -194 OFFCURVE",
"276 -194 CURVE SMOOTH"
);
}
);
width = 573;
}
);
unicode = 0162;
},
{
glyphname = Tcommaaccent;
layers = (
{
layerId = "D905F18B-B0C6-4EFF-A833-0E5BFD426C49";
paths = (
{
closed = 1;
nodes = (
"396 0 LINE",
"396 44 LINE",
"314 59 LINE",
"314 590 LINE",
"457 590 LINE",
"477 484 LINE",
"526 484 LINE",
"526 648 LINE",
"15 648 LINE",
"15 484 LINE",
"64 484 LINE",
"85 590 LINE",
"227 590 LINE",
"227 59 LINE",
"145 44 LINE",
"145 0 LINE"
);
},
{
closed = 1;
nodes = (
"265 -187 LINE",
"265 -187 OFFCURVE",
"318 -148 OFFCURVE",
"318 -81 CURVE SMOOTH",
"318 -57 OFFCURVE",
"305 -29 OFFCURVE",
"270 -29 CURVE SMOOTH",
"257 -29 OFFCURVE",
"239 -35 OFFCURVE",
"225 -51 CURVE",
"239 -64 OFFCURVE",
"251 -83 OFFCURVE",
"251 -108 CURVE SMOOTH",
"251 -136 OFFCURVE",
"244 -158 OFFCURVE",
"234 -187 CURVE"
);
}
);
width = 541;
},
{
layerId = "4843E09C-13E2-4232-9E55-A4E7C049DCE9";
paths = (
{
closed = 1;
nodes = (
"439 0 LINE",
"439 56 LINE",
"359 75 LINE",
"359 572 LINE",
"470 572 LINE",
"497 460 LINE",
"563 460 LINE",
"563 648 LINE",
"10 648 LINE",
"10 460 LINE",
"76 460 LINE",
"103 572 LINE",
"217 572 LINE",
"217 75 LINE",
"137 56 LINE",
"137 0 LINE"
);
},
{
closed = 1;
nodes = (
"279 -212 LINE",
"279 -212 OFFCURVE",
"347 -150 OFFCURVE",
"347 -83 CURVE SMOOTH",
"347 -54 OFFCURVE",
"330 -24 OFFCURVE",
"285 -24 CURVE SMOOTH",
"259 -24 OFFCURVE",
"243 -38 OFFCURVE",
"229 -54 CURVE",
"229 -54 OFFCURVE",
"249 -73 OFFCURVE",
"249 -118 CURVE SMOOTH",
"249 -162 OFFCURVE",
"235 -212 OFFCURVE",
"235 -212 CURVE"
);
}
);
width = 573;
}
);
unicode = 021A;
},
{
glyphname = U;
layers = (
{
anchors = (
{
name = bottom;
position = "{366, 0}";
},
{
name = ogonek;
position = "{510, 10}";
},
{
name = top;
position = "{366, 648}";
},
{
name = topright;
position = "{737, 658}";
}
);
layerId = "D905F18B-B0C6-4EFF-A833-0E5BFD426C49";
paths = (
{
closed = 1;
nodes = (
"127 278 LINE SMOOTH",
"127 85 OFFCURVE",
"170 -13 OFFCURVE",
"359 -13 CURVE SMOOTH",
"567 -13 OFFCURVE",
"615 88 OFFCURVE",
"615 278 CURVE SMOOTH",
"615 587 LINE",
"697 603 LINE",
"697 648 LINE",
"468 648 LINE",
"468 603 LINE",
"550 587 LINE",
"550 278 LINE SMOOTH",
"550 132 OFFCURVE",
"515 53 OFFCURVE",
"390 53 CURVE SMOOTH",
"248 53 OFFCURVE",
"214 101 OFFCURVE",
"214 278 CURVE SMOOTH",
"214 589 LINE",
"296 604 LINE",
"296 648 LINE",
"45 648 LINE",
"45 604 LINE",
"127 589 LINE"
);
}
);
width = 732;
},
{
anchors = (
{
name = bottom;
position = "{342, 0}";
},
{
name = ogonek;
position = "{505, 10}";
},
{
name = top;
position = "{342, 648}";
},
{
name = topright;
position = "{704, 638}";
}
);
layerId = "4843E09C-13E2-4232-9E55-A4E7C049DCE9";
paths = (
{
closed = 1;
nodes = (
"83 278 LINE SMOOTH",
"83 60 OFFCURVE",
"147 -18 OFFCURVE",
"352 -18 CURVE SMOOTH",
"540 -18 OFFCURVE",
"601 71 OFFCURVE",
"601 278 CURVE SMOOTH",
"601 573 LINE",
"681 591 LINE",
"681 648 LINE",
"422 648 LINE",
"422 591 LINE",
"501 573 LINE",
"501 278 LINE SMOOTH",
"501 108 OFFCURVE",
"467 69 OFFCURVE",
"371 69 CURVE SMOOTH",
"260 69 OFFCURVE",
"225 103 OFFCURVE",
"225 278 CURVE SMOOTH",
"225 573 LINE",
"299 592 LINE",
"299 648 LINE",
"3 648 LINE",
"3 592 LINE",
"83 573 LINE"
);
}
);
width = 684;
}
);
rightKerningGroup = U;
unicode = 0055;
},
{
glyphname = Uacute;
layers = (
{
layerId = "D905F18B-B0C6-4EFF-A833-0E5BFD426C49";
paths = (
{
closed = 1;
nodes = (
"567 -13 OFFCURVE",
"615 88 OFFCURVE",
"615 278 CURVE SMOOTH",
"615 587 LINE",
"697 603 LINE",
"697 648 LINE",
"468 648 LINE",
"468 603 LINE",
"550 587 LINE",
"550 278 LINE SMOOTH",
"550 132 OFFCURVE",
"515 53 OFFCURVE",
"390 53 CURVE SMOOTH",
"248 53 OFFCURVE",
"214 101 OFFCURVE",
"214 278 CURVE SMOOTH",
"214 589 LINE",
"296 604 LINE",
"296 648 LINE",
"45 648 LINE",
"45 604 LINE",
"127 589 LINE",
"127 278 LINE SMOOTH",
"127 85 OFFCURVE",
"170 -13 OFFCURVE",
"359 -13 CURVE SMOOTH"
);
},
{
closed = 1;
nodes = (
"512 767 LINE",
"508 814 OFFCURVE",
"489 836 OFFCURVE",
"470 836 CURVE SMOOTH",
"459 836 OFFCURVE",
"445 826 OFFCURVE",
"428 814 CURVE SMOOTH",
"297 716 LINE",
"319 681 LINE"
);
}
);
width = 732;
},
{
layerId = "4843E09C-13E2-4232-9E55-A4E7C049DCE9";
paths = (
{
closed = 1;
nodes = (
"525 -18 OFFCURVE",
"601 71 OFFCURVE",
"601 278 CURVE SMOOTH",
"601 573 LINE",
"681 591 LINE",
"681 648 LINE",
"422 648 LINE",
"422 591 LINE",
"500 573 LINE",
"500 278 LINE SMOOTH",
"500 108 OFFCURVE",
"472 69 OFFCURVE",
"371 69 CURVE SMOOTH",
"260 69 OFFCURVE",
"225 103 OFFCURVE",
"225 278 CURVE SMOOTH",
"225 573 LINE",
"299 592 LINE",
"299 648 LINE",
"3 648 LINE",
"3 592 LINE",
"83 573 LINE",
"83 278 LINE SMOOTH",
"83 60 OFFCURVE",
"147 -18 OFFCURVE",
"352 -18 CURVE SMOOTH"
);
},
{
closed = 1;
nodes = (
"488 739 LINE",
"501 788 OFFCURVE",
"488 844 OFFCURVE",
"438 844 CURVE SMOOTH",
"423 844 OFFCURVE",
"404 830 OFFCURVE",
"386 820 CURVE",
"243 721 LINE",
"268 671 LINE"
);
}
);
width = 684;
}
);
rightKerningGroup = U;
unicode = 00DA;
},
{
glyphname = Ucircumflex;
layers = (
{
layerId = "D905F18B-B0C6-4EFF-A833-0E5BFD426C49";
paths = (
{
closed = 1;
nodes = (
"127 278 LINE SMOOTH",
"127 85 OFFCURVE",
"170 -13 OFFCURVE",
"359 -13 CURVE SMOOTH",
"567 -13 OFFCURVE",
"615 88 OFFCURVE",
"615 278 CURVE SMOOTH",
"615 587 LINE",
"697 603 LINE",
"697 648 LINE",
"468 648 LINE",
"468 603 LINE",
"550 587 LINE",
"550 278 LINE SMOOTH",
"550 132 OFFCURVE",
"515 53 OFFCURVE",
"390 53 CURVE SMOOTH",
"248 53 OFFCURVE",
"214 101 OFFCURVE",
"214 278 CURVE SMOOTH",
"214 589 LINE",
"296 604 LINE",
"296 648 LINE",
"45 648 LINE",
"45 604 LINE",
"127 589 LINE"
);
},
{
closed = 1;
nodes = (
"251 680 LINE",
"377 743 LINE",
"499 678 LINE",
"532 719 LINE",
"458 780 LINE SMOOTH",
"419 812 OFFCURVE",
"397 834 OFFCURVE",
"381 834 CURVE SMOOTH",
"367 834 OFFCURVE",
"351 817 OFFCURVE",
"305 780 CURVE SMOOTH",
"226 716 LINE"
);
}
);
width = 732;
},
{
layerId = "4843E09C-13E2-4232-9E55-A4E7C049DCE9";
paths = (
{
closed = 1;
nodes = (
"83 278 LINE SMOOTH",
"83 60 OFFCURVE",
"147 -18 OFFCURVE",
"352 -18 CURVE SMOOTH",
"525 -18 OFFCURVE",
"601 71 OFFCURVE",
"601 278 CURVE SMOOTH",
"601 573 LINE",
"681 591 LINE",
"681 648 LINE",
"422 648 LINE",
"422 591 LINE",
"500 573 LINE",
"500 278 LINE SMOOTH",
"500 108 OFFCURVE",
"472 69 OFFCURVE",
"371 69 CURVE SMOOTH",
"260 69 OFFCURVE",
"225 103 OFFCURVE",
"225 278 CURVE SMOOTH",
"225 573 LINE",
"299 592 LINE",
"299 648 LINE",
"3 648 LINE",
"3 592 LINE",
"83 573 LINE"
);
},
{
closed = 1;
nodes = (
"214 671 LINE",
"355 733 LINE",
"503 671 LINE",
"534 721 LINE",
"413 814 LINE SMOOTH",
"397 826 OFFCURVE",
"378 844 OFFCURVE",
"363 844 CURVE SMOOTH",
"355 844 OFFCURVE",
"347 844 OFFCURVE",
"309 813 CURVE SMOOTH",
"187 712 LINE"
);
}
);
width = 684;
}
);
rightKerningGroup = U;
unicode = 00DB;
},
{
glyphname = Udieresis;
layers = (
{
layerId = "D905F18B-B0C6-4EFF-A833-0E5BFD426C49";
paths = (
{
closed = 1;
nodes = (
"567 -13 OFFCURVE",
"615 88 OFFCURVE",
"615 278 CURVE SMOOTH",
"615 587 LINE",
"697 603 LINE",
"697 648 LINE",
"468 648 LINE",
"468 603 LINE",
"550 587 LINE",
"550 278 LINE SMOOTH",
"550 132 OFFCURVE",
"515 53 OFFCURVE",
"390 53 CURVE SMOOTH",
"248 53 OFFCURVE",
"214 101 OFFCURVE",
"214 278 CURVE SMOOTH",
"214 589 LINE",
"296 604 LINE",
"296 648 LINE",
"45 648 LINE",
"45 604 LINE",
"127 589 LINE",
"127 278 LINE SMOOTH",
"127 85 OFFCURVE",
"170 -13 OFFCURVE",
"359 -13 CURVE SMOOTH"
);
},
{
closed = 1;
nodes = (
"311 703 OFFCURVE",
"331 732 OFFCURVE",
"331 765 CURVE SMOOTH",
"331 798 OFFCURVE",
"311 819 OFFCURVE",
"280 819 CURVE SMOOTH",
"247 819 OFFCURVE",
"225 791 OFFCURVE",
"225 759 CURVE SMOOTH",
"225 726 OFFCURVE",
"245 703 OFFCURVE",
"276 703 CURVE SMOOTH"
);
},
{
closed = 1;
nodes = (
"522 703 OFFCURVE",
"542 732 OFFCURVE",
"542 765 CURVE SMOOTH",
"542 798 OFFCURVE",
"522 819 OFFCURVE",
"491 819 CURVE SMOOTH",
"458 819 OFFCURVE",
"436 791 OFFCURVE",
"436 759 CURVE SMOOTH",
"436 726 OFFCURVE",
"456 703 OFFCURVE",
"487 703 CURVE SMOOTH"
);
}
);
width = 732;
},
{
layerId = "4843E09C-13E2-4232-9E55-A4E7C049DCE9";
paths = (
{
closed = 1;
nodes = (
"525 -18 OFFCURVE",
"601 71 OFFCURVE",
"601 278 CURVE SMOOTH",
"601 573 LINE",
"681 591 LINE",
"681 648 LINE",
"422 648 LINE",
"422 591 LINE",
"500 573 LINE",
"500 278 LINE SMOOTH",
"500 108 OFFCURVE",
"472 69 OFFCURVE",
"371 69 CURVE SMOOTH",
"260 69 OFFCURVE",
"225 103 OFFCURVE",
"225 278 CURVE SMOOTH",
"225 573 LINE",
"299 592 LINE",
"299 648 LINE",
"3 648 LINE",
"3 592 LINE",
"83 573 LINE",
"83 278 LINE SMOOTH",
"83 60 OFFCURVE",
"147 -18 OFFCURVE",
"352 -18 CURVE SMOOTH"
);
},
{
closed = 1;
nodes = (
"266 695 OFFCURVE",
"297 732 OFFCURVE",
"297 775 CURVE SMOOTH",
"297 820 OFFCURVE",
"266 847 OFFCURVE",
"226 847 CURVE SMOOTH",
"183 847 OFFCURVE",
"148 810 OFFCURVE",
"148 768 CURVE SMOOTH",
"148 725 OFFCURVE",
"178 695 OFFCURVE",
"218 695 CURVE SMOOTH"
);
},
{
closed = 1;
nodes = (
"511 695 OFFCURVE",
"542 732 OFFCURVE",
"542 775 CURVE SMOOTH",
"542 820 OFFCURVE",
"511 847 OFFCURVE",
"471 847 CURVE SMOOTH",
"428 847 OFFCURVE",
"393 810 OFFCURVE",
"393 768 CURVE SMOOTH",
"393 725 OFFCURVE",
"423 695 OFFCURVE",
"463 695 CURVE SMOOTH"
);
}
);
width = 684;
}
);
rightKerningGroup = U;
unicode = 00DC;
},
{
glyphname = Ugrave;
layers = (
{
layerId = "D905F18B-B0C6-4EFF-A833-0E5BFD426C49";
paths = (
{
closed = 1;
nodes = (
"567 -13 OFFCURVE",
"615 88 OFFCURVE",
"615 278 CURVE SMOOTH",
"615 587 LINE",
"697 603 LINE",
"697 648 LINE",
"468 648 LINE",
"468 603 LINE",
"550 587 LINE",
"550 278 LINE SMOOTH",
"550 132 OFFCURVE",
"515 53 OFFCURVE",
"390 53 CURVE SMOOTH",
"248 53 OFFCURVE",
"214 101 OFFCURVE",
"214 278 CURVE SMOOTH",
"214 589 LINE",
"296 604 LINE",
"296 648 LINE",
"45 648 LINE",
"45 604 LINE",
"127 589 LINE",
"127 278 LINE SMOOTH",
"127 85 OFFCURVE",
"170 -13 OFFCURVE",
"359 -13 CURVE SMOOTH"
);
},
{
closed = 1;
nodes = (
"460 716 LINE",
"329 814 LINE SMOOTH",
"312 826 OFFCURVE",
"298 836 OFFCURVE",
"287 836 CURVE SMOOTH",
"268 836 OFFCURVE",
"249 814 OFFCURVE",
"245 767 CURVE",
"438 681 LINE"
);
}
);
width = 732;
},
{
layerId = "4843E09C-13E2-4232-9E55-A4E7C049DCE9";
paths = (
{
closed = 1;
nodes = (
"525 -18 OFFCURVE",
"601 71 OFFCURVE",
"601 278 CURVE SMOOTH",
"601 573 LINE",
"681 591 LINE",
"681 648 LINE",
"422 648 LINE",
"422 591 LINE",
"500 573 LINE",
"500 278 LINE SMOOTH",
"500 108 OFFCURVE",
"472 69 OFFCURVE",
"371 69 CURVE SMOOTH",
"260 69 OFFCURVE",
"225 103 OFFCURVE",
"225 278 CURVE SMOOTH",
"225 573 LINE",
"299 592 LINE",
"299 648 LINE",
"3 648 LINE",
"3 592 LINE",
"83 573 LINE",
"83 278 LINE SMOOTH",
"83 60 OFFCURVE",
"147 -18 OFFCURVE",
"352 -18 CURVE SMOOTH"
);
},
{
closed = 1;
nodes = (
"480 721 LINE",
"337 820 LINE",
"319 830 OFFCURVE",
"300 844 OFFCURVE",
"285 844 CURVE SMOOTH",
"237 844 OFFCURVE",
"221 791 OFFCURVE",
"235 739 CURVE",
"455 671 LINE"
);
}
);
width = 684;
}
);
rightKerningGroup = U;
unicode = 00D9;
},
{
color = 6;
glyphname = Uhorn;
layers = (
{
anchors = (
{
name = bottom;
position = "{366, 0}";
},
{
name = ogonek;
position = "{510, 10}";
},
{
name = top;
position = "{366, 648}";
}
);
background = {
paths = (
{
closed = 1;
nodes = (
"746 599 OFFCURVE",
"790 669 OFFCURVE",
"790 714 CURVE",
"790 755 OFFCURVE",
"771 766 OFFCURVE",
"758 776 CURVE",
"703 737 LINE",
"703 722 LINE",
"716 713 OFFCURVE",
"724 705 OFFCURVE",
"724 688 CURVE SMOOTH",
"724 633 OFFCURVE",
"650 581 OFFCURVE",
"600 551 CURVE",
"602 521 LINE"
);
}
);
};
layerId = "D905F18B-B0C6-4EFF-A833-0E5BFD426C49";
paths = (
{
closed = 1;
nodes = (
"567 -13 OFFCURVE",
"615 88 OFFCURVE",
"615 278 CURVE SMOOTH",
"615 584 LINE",
"758 619 OFFCURVE",
"790 684 OFFCURVE",
"790 714 CURVE SMOOTH",
"790 755 OFFCURVE",
"771 766 OFFCURVE",
"758 776 CURVE",
"703 737 LINE",
"703 722 LINE",
"716 713 OFFCURVE",
"724 705 OFFCURVE",
"724 688 CURVE SMOOTH",
"724 657 OFFCURVE",
"704 648 OFFCURVE",
"661 648 CURVE SMOOTH",
"468 648 LINE",
"468 603 LINE",
"550 587 LINE",
"550 278 LINE SMOOTH",
"550 132 OFFCURVE",
"515 53 OFFCURVE",
"390 53 CURVE SMOOTH",
"248 53 OFFCURVE",
"214 101 OFFCURVE",
"214 278 CURVE SMOOTH",
"214 589 LINE",
"296 604 LINE",
"296 648 LINE",
"45 648 LINE",
"45 604 LINE",
"127 589 LINE",
"127 278 LINE SMOOTH",
"127 85 OFFCURVE",
"170 -13 OFFCURVE",
"359 -13 CURVE SMOOTH"
);
}
);
width = 732;
},
{
anchors = (
{
name = bottom;
position = "{342, 0}";
},
{
name = ogonek;
position = "{505, 10}";
},
{
name = top;
position = "{342, 648}";
}
);
background = {
paths = (
{
closed = 1;
nodes = (
"760 599 OFFCURVE",
"807 666 OFFCURVE",
"807 718 CURVE SMOOTH",
"807 759 OFFCURVE",
"779 775 OFFCURVE",
"774 779 CURVE",
"701 731 LINE",
"701 716 LINE",
"709 709 OFFCURVE",
"715 702 OFFCURVE",
"715 687 CURVE SMOOTH",
"715 636 OFFCURVE",
"641 582 OFFCURVE",
"578 550 CURVE",
"578 510 LINE"
);
}
);
};
layerId = "4843E09C-13E2-4232-9E55-A4E7C049DCE9";
paths = (
{
closed = 1;
nodes = (
"540 -18 OFFCURVE",
"601 71 OFFCURVE",
"601 278 CURVE SMOOTH",
"601 576 LINE",
"713 624 OFFCURVE",
"737 683 OFFCURVE",
"737 718 CURVE SMOOTH",
"737 759 OFFCURVE",
"709 775 OFFCURVE",
"704 779 CURVE",
"631 731 LINE",
"631 716 LINE",
"639 709 OFFCURVE",
"645 702 OFFCURVE",
"645 687 CURVE SMOOTH",
"645 656 OFFCURVE",
"639 648 OFFCURVE",
"576 648 CURVE SMOOTH",
"422 648 LINE",
"422 591 LINE",
"501 573 LINE",
"501 278 LINE SMOOTH",
"501 108 OFFCURVE",
"467 69 OFFCURVE",
"371 69 CURVE SMOOTH",
"260 69 OFFCURVE",
"225 103 OFFCURVE",
"225 278 CURVE SMOOTH",
"225 573 LINE",
"299 592 LINE",
"299 648 LINE",
"3 648 LINE",
"3 592 LINE",
"83 573 LINE",
"83 278 LINE SMOOTH",
"83 60 OFFCURVE",
"147 -18 OFFCURVE",
"352 -18 CURVE SMOOTH"
);
}
);
width = 684;
}
);
unicode = 01AF;
},
{
glyphname = Uhungarumlaut;
layers = (
{
layerId = "D905F18B-B0C6-4EFF-A833-0E5BFD426C49";
paths = (
{
closed = 1;
nodes = (
"567 -13 OFFCURVE",
"615 88 OFFCURVE",
"615 278 CURVE SMOOTH",
"615 587 LINE",
"697 603 LINE",
"697 648 LINE",
"468 648 LINE",
"468 603 LINE",
"550 587 LINE",
"550 278 LINE SMOOTH",
"550 132 OFFCURVE",
"515 53 OFFCURVE",
"390 53 CURVE SMOOTH",
"248 53 OFFCURVE",
"214 101 OFFCURVE",
"214 278 CURVE SMOOTH",
"214 589 LINE",
"296 604 LINE",
"296 648 LINE",
"45 648 LINE",
"45 604 LINE",
"127 589 LINE",
"127 278 LINE SMOOTH",
"127 85 OFFCURVE",
"170 -13 OFFCURVE",
"359 -13 CURVE SMOOTH"
);
},
{
closed = 1;
nodes = (
"394 778 LINE",
"384 817 OFFCURVE",
"366 838 OFFCURVE",
"348 838 CURVE SMOOTH",
"333 838 OFFCURVE",
"321 832 OFFCURVE",
"301 806 CURVE SMOOTH",
"222 703 LINE",
"250 676 LINE"
);
},
{
closed = 1;
nodes = (
"578 778 LINE",
"568 817 OFFCURVE",
"550 838 OFFCURVE",
"532 838 CURVE SMOOTH",
"517 838 OFFCURVE",
"505 832 OFFCURVE",
"485 806 CURVE SMOOTH",
"406 703 LINE",
"434 676 LINE"
);
}
);
width = 732;
},
{
layerId = "4843E09C-13E2-4232-9E55-A4E7C049DCE9";
paths = (
{
closed = 1;
nodes = (
"525 -18 OFFCURVE",
"601 71 OFFCURVE",
"601 278 CURVE SMOOTH",
"601 573 LINE",
"681 591 LINE",
"681 648 LINE",
"422 648 LINE",
"422 591 LINE",
"501 573 LINE",
"499 278 LINE SMOOTH",
"498 108 OFFCURVE",
"472 69 OFFCURVE",
"371 69 CURVE SMOOTH",
"260 69 OFFCURVE",
"225 103 OFFCURVE",
"225 278 CURVE SMOOTH",
"225 573 LINE",
"299 592 LINE",
"299 648 LINE",
"3 648 LINE",
"3 592 LINE",
"83 573 LINE",
"83 278 LINE SMOOTH",
"83 60 OFFCURVE",
"147 -18 OFFCURVE",
"352 -18 CURVE SMOOTH"
);
},
{
closed = 1;
nodes = (
"379 782 LINE",
"373 829 OFFCURVE",
"348 855 OFFCURVE",
"323 855 CURVE SMOOTH",
"302 855 OFFCURVE",
"288 840 OFFCURVE",
"274 824 CURVE SMOOTH",
"175 713 LINE",
"210 671 LINE"
);
},
{
closed = 1;
nodes = (
"569 782 LINE",
"563 829 OFFCURVE",
"538 855 OFFCURVE",
"513 855 CURVE SMOOTH",
"492 855 OFFCURVE",
"478 840 OFFCURVE",
"464 824 CURVE SMOOTH",
"365 713 LINE",
"400 671 LINE"
);
}
);
width = 684;
}
);
rightKerningGroup = U;
unicode = 0170;
},
{
glyphname = Umacron;
layers = (
{
layerId = "D905F18B-B0C6-4EFF-A833-0E5BFD426C49";
paths = (
{
closed = 1;
nodes = (
"127 278 LINE SMOOTH",
"127 85 OFFCURVE",
"170 -13 OFFCURVE",
"359 -13 CURVE SMOOTH",
"567 -13 OFFCURVE",
"615 88 OFFCURVE",
"615 278 CURVE SMOOTH",
"615 587 LINE",
"697 603 LINE",
"697 648 LINE",
"468 648 LINE",
"468 603 LINE",
"550 587 LINE",
"550 278 LINE SMOOTH",
"550 132 OFFCURVE",
"515 53 OFFCURVE",
"390 53 CURVE SMOOTH",
"248 53 OFFCURVE",
"214 101 OFFCURVE",
"214 278 CURVE SMOOTH",
"214 589 LINE",
"296 604 LINE",
"296 648 LINE",
"45 648 LINE",
"45 604 LINE",
"127 589 LINE"
);
},
{
closed = 1;
nodes = (
"208 723 LINE",
"540 723 LINE",
"550 781 LINE",
"218 781 LINE"
);
}
);
width = 732;
},
{
layerId = "4843E09C-13E2-4232-9E55-A4E7C049DCE9";
paths = (
{
closed = 1;
nodes = (
"83 278 LINE SMOOTH",
"83 60 OFFCURVE",
"147 -18 OFFCURVE",
"352 -18 CURVE SMOOTH",
"525 -18 OFFCURVE",
"601 71 OFFCURVE",
"601 278 CURVE SMOOTH",
"601 573 LINE",
"681 591 LINE",
"681 648 LINE",
"422 648 LINE",
"422 591 LINE",
"501 573 LINE",
"499 278 LINE SMOOTH",
"498 108 OFFCURVE",
"472 69 OFFCURVE",
"371 69 CURVE SMOOTH",
"260 69 OFFCURVE",
"225 103 OFFCURVE",
"225 278 CURVE SMOOTH",
"225 573 LINE",
"299 592 LINE",
"299 648 LINE",
"3 648 LINE",
"3 592 LINE",
"83 573 LINE"
);
},
{
closed = 1;
nodes = (
"179 723 LINE",
"525 723 LINE",
"538 806 LINE",
"192 806 LINE"
);
}
);
width = 684;
}
);
rightKerningGroup = U;
unicode = 016A;
},
{
glyphname = Uogonek;
layers = (
{
layerId = "D905F18B-B0C6-4EFF-A833-0E5BFD426C49";
paths = (
{
closed = 1;
nodes = (
"490 -187 OFFCURVE",
"530 -158 OFFCURVE",
"549 -136 CURVE",
"531 -106 LINE",
"512 -117 OFFCURVE",
"490 -127 OFFCURVE",
"474 -127 CURVE SMOOTH",
"446 -127 OFFCURVE",
"431 -113 OFFCURVE",
"431 -83 CURVE SMOOTH",
"431 -39 OFFCURVE",
"490 3 OFFCURVE",
"504 13 CURVE",
"591 54 OFFCURVE",
"615 144 OFFCURVE",
"615 278 CURVE SMOOTH",
"615 587 LINE",
"697 603 LINE",
"697 648 LINE",
"468 648 LINE",
"468 603 LINE",
"550 587 LINE",
"550 278 LINE SMOOTH",
"550 132 OFFCURVE",
"515 53 OFFCURVE",
"390 53 CURVE SMOOTH",
"248 53 OFFCURVE",
"214 101 OFFCURVE",
"214 278 CURVE SMOOTH",
"214 589 LINE",
"296 604 LINE",
"296 648 LINE",
"45 648 LINE",
"45 604 LINE",
"127 589 LINE",
"127 278 LINE SMOOTH",
"127 85 OFFCURVE",
"170 -13 OFFCURVE",
"359 -13 CURVE SMOOTH",
"384 -13 OFFCURVE",
"406 -12 OFFCURVE",
"427 -9 CURVE",
"393 -33 OFFCURVE",
"365 -68 OFFCURVE",
"365 -113 CURVE SMOOTH",
"365 -162 OFFCURVE",
"400 -187 OFFCURVE",
"448 -187 CURVE SMOOTH"
);
}
);
width = 732;
},
{
layerId = "4843E09C-13E2-4232-9E55-A4E7C049DCE9";
paths = (
{
closed = 1;
nodes = (
"476 -187 OFFCURVE",
"521 -166 OFFCURVE",
"545 -136 CURVE",
"521 -95 LINE",
"503 -106 OFFCURVE",
"484 -115 OFFCURVE",
"469 -115 CURVE SMOOTH",
"443 -115 OFFCURVE",
"434 -100 OFFCURVE",
"434 -81 CURVE SMOOTH",
"434 -66 OFFCURVE",
"438 -21 OFFCURVE",
"494 13 CURVE SMOOTH",
"569 58 OFFCURVE",
"601 143 OFFCURVE",
"601 278 CURVE SMOOTH",
"601 573 LINE",
"681 591 LINE",
"681 648 LINE",
"422 648 LINE",
"422 591 LINE",
"501 573 LINE",
"499 278 LINE SMOOTH",
"498 108 OFFCURVE",
"472 69 OFFCURVE",
"371 69 CURVE SMOOTH",
"260 69 OFFCURVE",
"225 103 OFFCURVE",
"225 278 CURVE SMOOTH",
"225 573 LINE",
"299 592 LINE",
"299 648 LINE",
"3 648 LINE",
"3 592 LINE",
"83 573 LINE",
"83 278 LINE SMOOTH",
"83 60 OFFCURVE",
"147 -18 OFFCURVE",
"352 -18 CURVE SMOOTH",
"367 -18 OFFCURVE",
"381 -17 OFFCURVE",
"394 -16 CURVE",
"365 -40 OFFCURVE",
"341 -72 OFFCURVE",
"341 -113 CURVE SMOOTH",
"341 -162 OFFCURVE",
"382 -187 OFFCURVE",
"438 -187 CURVE SMOOTH"
);
}
);
width = 684;
}
);
rightKerningGroup = U;
unicode = 0172;
},
{
glyphname = Uring;
layers = (
{
layerId = "D905F18B-B0C6-4EFF-A833-0E5BFD426C49";
paths = (
{
closed = 1;
nodes = (
"127 278 LINE SMOOTH",
"127 85 OFFCURVE",
"170 -13 OFFCURVE",
"359 -13 CURVE SMOOTH",
"567 -13 OFFCURVE",
"615 88 OFFCURVE",
"615 278 CURVE SMOOTH",
"615 587 LINE",
"697 603 LINE",
"697 648 LINE",
"468 648 LINE",
"468 603 LINE",
"550 587 LINE",
"550 278 LINE SMOOTH",
"550 132 OFFCURVE",
"515 53 OFFCURVE",
"390 53 CURVE SMOOTH",
"248 53 OFFCURVE",
"214 101 OFFCURVE",
"214 278 CURVE SMOOTH",
"214 589 LINE",
"296 604 LINE",
"296 648 LINE",
"45 648 LINE",
"45 604 LINE",
"127 589 LINE"
);
},
{
closed = 1;
nodes = (
"294 672 OFFCURVE",
"330 649 OFFCURVE",
"381 649 CURVE SMOOTH",
"431 649 OFFCURVE",
"476 676 OFFCURVE",
"476 740 CURVE SMOOTH",
"476 800 OFFCURVE",
"437 823 OFFCURVE",
"387 823 CURVE SMOOTH",
"336 823 OFFCURVE",
"294 794 OFFCURVE",
"294 733 CURVE SMOOTH"
);
},
{
closed = 1;
nodes = (
"347 692 OFFCURVE",
"342 708 OFFCURVE",
"342 737 CURVE SMOOTH",
"342 768 OFFCURVE",
"353 780 OFFCURVE",
"386 780 CURVE SMOOTH",
"423 780 OFFCURVE",
"428 763 OFFCURVE",
"428 735 CURVE SMOOTH",
"428 704 OFFCURVE",
"418 692 OFFCURVE",
"386 692 CURVE SMOOTH"
);
}
);
width = 732;
},
{
layerId = "4843E09C-13E2-4232-9E55-A4E7C049DCE9";
paths = (
{
closed = 1;
nodes = (
"83 278 LINE SMOOTH",
"83 60 OFFCURVE",
"147 -18 OFFCURVE",
"352 -18 CURVE SMOOTH",
"525 -18 OFFCURVE",
"601 71 OFFCURVE",
"601 278 CURVE SMOOTH",
"601 573 LINE",
"681 591 LINE",
"681 648 LINE",
"422 648 LINE",
"422 591 LINE",
"501 573 LINE",
"499 278 LINE SMOOTH",
"498 108 OFFCURVE",
"472 69 OFFCURVE",
"371 69 CURVE SMOOTH",
"260 69 OFFCURVE",
"225 103 OFFCURVE",
"225 278 CURVE SMOOTH",
"225 573 LINE",
"299 592 LINE",
"299 648 LINE",
"3 648 LINE",
"3 592 LINE",
"83 573 LINE"
);
},
{
closed = 1;
nodes = (
"266 688 OFFCURVE",
"291 648 OFFCURVE",
"366 648 CURVE SMOOTH",
"441 648 OFFCURVE",
"472 693 OFFCURVE",
"472 739 CURVE SMOOTH",
"472 783 OFFCURVE",
"447 826 OFFCURVE",
"373 826 CURVE SMOOTH",
"295 826 OFFCURVE",
"266 778 OFFCURVE",
"266 733 CURVE SMOOTH"
);
},
{
closed = 1;
nodes = (
"348 698 OFFCURVE",
"342 701 OFFCURVE",
"342 737 CURVE SMOOTH",
"342 766 OFFCURVE",
"345 774 OFFCURVE",
"368 774 CURVE SMOOTH",
"393 774 OFFCURVE",
"395 768 OFFCURVE",
"395 732 CURVE SMOOTH",
"395 709 OFFCURVE",
"394 698 OFFCURVE",
"370 698 CURVE SMOOTH"
);
}
);
width = 684;
}
);
rightKerningGroup = U;
unicode = 016E;
},
{
glyphname = V;
layers = (
{
anchors = (
{
name = bottom;
position = "{301, 0}";
},
{
name = top;
position = "{301, 648}";
}
);
layerId = "D905F18B-B0C6-4EFF-A833-0E5BFD426C49";
paths = (
{
closed = 1;
nodes = (
"332 -5 LINE",
"552 591 LINE",
"611 607 LINE",
"611 648 LINE",
"400 648 LINE",
"400 607 LINE",
"480 591 LINE",
"480 573 LINE",
"334 159 LINE",
"320 121 LINE",
"308 155 LINE",
"156 576 LINE",
"156 591 LINE",
"231 607 LINE",
"231 648 LINE",
"-9 648 LINE",
"-9 607 LINE",
"52 591 LINE",
"283 -5 LINE"
);
}
);
width = 602;
},
{
anchors = (
{
name = bottom;
position = "{311, 0}";
},
{
name = top;
position = "{311, 648}";
}
);
layerId = "4843E09C-13E2-4232-9E55-A4E7C049DCE9";
paths = (
{
closed = 1;
nodes = (
"380 -12 LINE",
"579 574 LINE",
"645 586 LINE",
"645 648 LINE",
"399 648 LINE",
"399 586 LINE",
"482 574 LINE",
"351 173 LINE",
"347 146 LINE",
"342 146 LINE",
"339 173 LINE",
"218 566 LINE",
"218 574 LINE",
"297 586 LINE",
"297 648 LINE",
"-13 648 LINE",
"-13 587 LINE",
"55 574 LINE",
"270 -12 LINE"
);
}
);
width = 622;
}
);
leftKerningGroup = V;
rightKerningGroup = V;
unicode = 0056;
},
{
glyphname = W;
layers = (
{
anchors = (
{
name = bottom;
position = "{473, 0}";
},
{
name = top;
position = "{473, 648}";
}
);
background = {
paths = (
{
closed = 1;
nodes = (
"273 -5 LINE",
"322 -5 LINE",
"473 430 LINE",
"636 -5 LINE",
"685 -5 LINE",
"886 591 LINE",
"945 607 LINE",
"945 648 LINE",
"734 648 LINE",
"734 607 LINE",
"814 591 LINE",
"814 573 LINE",
"676 129 LINE",
"518 573 LINE",
"518 591 LINE",
"593 607 LINE",
"593 648 LINE",
"340 648 LINE",
"340 607 LINE",
"414 591 LINE",
"442 515 LINE",
"314 129 LINE",
"165 573 LINE",
"165 591 LINE",
"240 607 LINE",
"240 648 LINE",
"0 648 LINE",
"0 607 LINE",
"61 591 LINE"
);
}
);
};
layerId = "D905F18B-B0C6-4EFF-A833-0E5BFD426C49";
paths = (
{
closed = 1;
nodes = (
"315 -5 LINE",
"463 402 LINE",
"470 421 LINE",
"477 421 LINE",
"483 405 LINE",
"643 -5 LINE",
"702 -5 LINE",
"886 591 LINE",
"945 607 LINE",
"945 648 LINE",
"734 648 LINE",
"734 607 LINE",
"814 591 LINE",
"814 573 LINE",
"695 153 LINE",
"686 122 LINE",
"681 122 LINE",
"670 153 LINE",
"518 573 LINE",
"518 591 LINE",
"593 607 LINE",
"593 648 LINE",
"340 648 LINE",
"340 607 LINE",
"414 591 LINE",
"442 515 LINE",
"315 153 LINE",
"304 120 LINE",
"301 120 LINE",
"291 152 LINE",
"165 573 LINE",
"165 591 LINE",
"240 607 LINE",
"240 648 LINE",
"0 648 LINE",
"0 607 LINE",
"61 591 LINE",
"256 -5 LINE"
);
}
);
width = 945;
},
{
anchors = (
{
name = bottom;
position = "{505, 0}";
},
{
name = top;
position = "{505, 648}";
}
);
background = {
paths = (
{
closed = 1;
nodes = (
"246 -12 LINE",
"371 -12 LINE",
"501 453 LINE",
"503 477 LINE",
"508 477 LINE",
"512 453 LINE",
"656 -12 LINE",
"784 -12 LINE",
"967 574 LINE",
"1031 586 LINE",
"1031 648 LINE",
"775 648 LINE",
"775 586 LINE",
"861 574 LINE",
"746 174 LINE",
"742 150 LINE",
"737 150 LINE",
"735 174 LINE",
"606 648 LINE",
"452 648 LINE",
"332 174 LINE",
"328 150 LINE",
"323 150 LINE",
"321 174 LINE",
"206 574 LINE",
"288 586 LINE",
"288 648 LINE",
"-13 648 LINE",
"-13 587 LINE",
"53 574 LINE"
);
}
);
};
layerId = "4843E09C-13E2-4232-9E55-A4E7C049DCE9";
paths = (
{
closed = 1;
nodes = (
"354 -12 LINE",
"507 383 LINE",
"509 407 LINE",
"514 407 LINE",
"518 383 LINE",
"676 -12 LINE",
"804 -12 LINE",
"967 574 LINE",
"1031 586 LINE",
"1031 648 LINE",
"775 648 LINE",
"775 586 LINE",
"861 574 LINE",
"858 560 LINE",
"763 174 LINE",
"759 150 LINE",
"754 150 LINE",
"752 174 LINE",
"601 562 LINE",
"596 574 LINE",
"678 586 LINE",
"678 648 LINE",
"377 648 LINE",
"377 587 LINE",
"443 574 LINE",
"456 542 LINE",
"312 174 LINE",
"308 150 LINE",
"303 150 LINE",
"301 174 LINE",
"210 558 LINE",
"206 574 LINE",
"288 586 LINE",
"288 648 LINE",
"-13 648 LINE",
"-13 587 LINE",
"53 574 LINE",
"226 -12 LINE"
);
}
);
width = 1009;
},
{
anchors = (
{
name = bottom;
position = "{505, 0}";
},
{
name = top;
position = "{505, 648}";
}
);
associatedMasterId = "4843E09C-13E2-4232-9E55-A4E7C049DCE9";
background = {
paths = (
{
closed = 1;
nodes = (
"246 -12 LINE",
"371 -12 LINE",
"501 453 LINE",
"503 477 LINE",
"508 477 LINE",
"512 453 LINE",
"656 -12 LINE",
"784 -12 LINE",
"967 574 LINE",
"1031 586 LINE",
"1031 648 LINE",
"775 648 LINE",
"775 586 LINE",
"861 574 LINE",
"746 174 LINE",
"742 150 LINE",
"737 150 LINE",
"735 174 LINE",
"606 648 LINE",
"452 648 LINE",
"332 174 LINE",
"328 150 LINE",
"323 150 LINE",
"321 174 LINE",
"206 574 LINE",
"288 586 LINE",
"288 648 LINE",
"-13 648 LINE",
"-13 587 LINE",
"53 574 LINE"
);
}
);
};
layerId = "45EFF18C-C5A7-4B66-9EBA-C82560715DF6";
name = "Bold [114]";
paths = (
{
closed = 1;
nodes = (
"354 -12 LINE",
"507 473 LINE",
"509 497 LINE",
"514 497 LINE",
"518 473 LINE",
"676 -12 LINE",
"804 -12 LINE",
"967 574 LINE",
"1031 586 LINE",
"1031 648 LINE",
"775 648 LINE",
"775 586 LINE",
"861 574 LINE",
"859 565 LINE",
"763 174 LINE",
"759 150 LINE",
"754 150 LINE",
"752 174 LINE",
"603 648 LINE",
"452 648 LINE",
"312 174 LINE",
"308 150 LINE",
"303 150 LINE",
"301 174 LINE",
"208 564 LINE",
"206 574 LINE",
"288 586 LINE",
"288 648 LINE",
"-13 648 LINE",
"-13 587 LINE",
"53 574 LINE",
"226 -12 LINE"
);
}
);
width = 1009;
},
{
anchors = (
{
name = bottom;
position = "{473, 0}";
},
{
name = top;
position = "{473, 648}";
}
);
associatedMasterId = "D905F18B-B0C6-4EFF-A833-0E5BFD426C49";
background = {
paths = (
{
closed = 1;
nodes = (
"273 -5 LINE",
"322 -5 LINE",
"473 430 LINE",
"636 -5 LINE",
"685 -5 LINE",
"886 591 LINE",
"945 607 LINE",
"945 648 LINE",
"734 648 LINE",
"734 607 LINE",
"814 591 LINE",
"814 573 LINE",
"676 129 LINE",
"518 573 LINE",
"518 591 LINE",
"593 607 LINE",
"593 648 LINE",
"340 648 LINE",
"340 607 LINE",
"414 591 LINE",
"442 515 LINE",
"314 129 LINE",
"165 573 LINE",
"165 591 LINE",
"240 607 LINE",
"240 648 LINE",
"0 648 LINE",
"0 607 LINE",
"61 591 LINE"
);
}
);
};
layerId = "AC409130-453C-4617-9866-97721555A7B8";
name = "Regular [114]";
paths = (
{
closed = 1;
nodes = (
"315 -5 LINE",
"467 488 LINE",
"474 507 LINE",
"481 507 LINE",
"487 491 LINE",
"643 -5 LINE",
"702 -5 LINE",
"886 591 LINE",
"945 607 LINE",
"945 648 LINE",
"734 648 LINE",
"734 607 LINE",
"814 591 LINE",
"814 573 LINE",
"695 153 LINE",
"686 122 LINE",
"681 122 LINE",
"670 153 LINE",
"516 648 LINE",
"462 648 LINE",
"315 153 LINE",
"304 120 LINE",
"301 120 LINE",
"291 152 LINE",
"165 573 LINE",
"165 591 LINE",
"240 607 LINE",
"240 648 LINE",
"0 648 LINE",
"0 607 LINE",
"61 591 LINE",
"256 -5 LINE"
);
}
);
width = 945;
}
);
leftKerningGroup = V;
rightKerningGroup = V;
unicode = 0057;
},
{
glyphname = X;
layers = (
{
anchors = (
{
name = bottom;
position = "{285, 0}";
},
{
name = top;
position = "{311, 648}";
}
);
layerId = "D905F18B-B0C6-4EFF-A833-0E5BFD426C49";
paths = (
{
closed = 1;
nodes = (
"5 0 LINE",
"213 0 LINE",
"213 43 LINE",
"148 56 LINE",
"148 74 LINE",
"286 272 LINE",
"426 71 LINE",
"426 59 LINE",
"356 45 LINE",
"356 0 LINE",
"608 0 LINE",
"608 45 LINE",
"537 59 LINE",
"346 342 LINE",
"526 592 LINE",
"592 606 LINE",
"592 648 LINE",
"371 648 LINE",
"371 605 LINE",
"440 592 LINE",
"440 574 LINE",
"312 394 LINE",
"190 571 LINE",
"190 590 LINE",
"250 603 LINE",
"250 648 LINE",
"8 648 LINE",
"8 603 LINE",
"71 582 LINE",
"251 323 LINE",
"68 58 LINE",
"5 45 LINE"
);
}
);
width = 593;
},
{
anchors = (
{
name = bottom;
position = "{292, 0}";
},
{
name = top;
position = "{355, 648}";
}
);
layerId = "4843E09C-13E2-4232-9E55-A4E7C049DCE9";
paths = (
{
closed = 1;
nodes = (
"-3 0 LINE",
"242 0 LINE",
"242 56 LINE",
"186 70 LINE",
"186 82 LINE",
"300 241 LINE",
"405 83 LINE",
"405 71 LINE",
"342 56 LINE",
"342 0 LINE",
"645 0 LINE",
"645 56 LINE",
"573 73 LINE",
"393 347 LINE",
"563 573 LINE",
"636 592 LINE",
"636 648 LINE",
"391 648 LINE",
"391 592 LINE",
"458 577 LINE",
"458 567 LINE",
"346 418 LINE",
"251 562 LINE",
"251 576 LINE",
"318 592 LINE",
"318 648 LINE",
"7 648 LINE",
"7 592 LINE",
"79 575 LINE",
"252 313 LINE",
"81 74 LINE",
"-3 56 LINE"
);
}
);
width = 620;
}
);
unicode = 0058;
},
{
glyphname = Y;
layers = (
{
anchors = (
{
name = bottom;
position = "{305, 0}";
},
{
name = top;
position = "{314, 648}";
}
);
layerId = "D905F18B-B0C6-4EFF-A833-0E5BFD426C49";
paths = (
{
closed = 1;
nodes = (
"179 0 LINE",
"430 0 LINE",
"430 44 LINE",
"348 59 LINE",
"348 244 LINE",
"538 591 LINE",
"598 607 LINE",
"598 648 LINE",
"387 648 LINE",
"387 607 LINE",
"466 591 LINE",
"466 573 LINE",
"324 299 LINE",
"310 299 LINE",
"165 573 LINE",
"165 591 LINE",
"240 607 LINE",
"240 648 LINE",
"-1 648 LINE",
"-1 607 LINE",
"61 591 LINE",
"261 232 LINE",
"261 59 LINE",
"179 44 LINE"
);
}
);
width = 584;
},
{
anchors = (
{
name = bottom;
position = "{313, 0}";
},
{
name = top;
position = "{326, 648}";
}
);
layerId = "4843E09C-13E2-4232-9E55-A4E7C049DCE9";
paths = (
{
closed = 1;
nodes = (
"162 0 LINE",
"464 0 LINE",
"464 56 LINE",
"384 75 LINE",
"384 249 LINE",
"560 574 LINE",
"632 592 LINE",
"632 648 LINE",
"385 648 LINE",
"385 592 LINE",
"456 576 LINE",
"456 568 LINE",
"334 332 LINE",
"324 332 LINE",
"203 562 LINE",
"203 577 LINE",
"266 592 LINE",
"266 648 LINE",
"-11 648 LINE",
"-11 592 LINE",
"54 576 LINE",
"242 249 LINE",
"242 75 LINE",
"162 56 LINE"
);
}
);
width = 613;
}
);
rightKerningGroup = Y;
unicode = 0059;
},
{
glyphname = Yacute;
layers = (
{
layerId = "D905F18B-B0C6-4EFF-A833-0E5BFD426C49";
paths = (
{
closed = 1;
nodes = (
"426 0 LINE",
"426 44 LINE",
"344 59 LINE",
"344 244 LINE",
"534 591 LINE",
"594 607 LINE",
"594 648 LINE",
"383 648 LINE",
"383 607 LINE",
"462 591 LINE",
"462 573 LINE",
"320 299 LINE",
"306 299 LINE",
"161 573 LINE",
"161 591 LINE",
"236 607 LINE",
"236 648 LINE",
"-5 648 LINE",
"-5 607 LINE",
"57 591 LINE",
"257 232 LINE",
"257 59 LINE",
"175 44 LINE",
"175 0 LINE"
);
},
{
closed = 1;
nodes = (
"437 767 LINE",
"433 814 OFFCURVE",
"414 836 OFFCURVE",
"395 836 CURVE SMOOTH",
"384 836 OFFCURVE",
"370 826 OFFCURVE",
"353 814 CURVE SMOOTH",
"222 716 LINE",
"244 681 LINE"
);
}
);
width = 584;
},
{
layerId = "4843E09C-13E2-4232-9E55-A4E7C049DCE9";
paths = (
{
closed = 1;
nodes = (
"464 0 LINE",
"464 56 LINE",
"384 75 LINE",
"384 249 LINE",
"560 574 LINE",
"632 592 LINE",
"632 648 LINE",
"385 648 LINE",
"385 592 LINE",
"456 576 LINE",
"456 568 LINE",
"334 332 LINE",
"324 332 LINE",
"203 562 LINE",
"203 577 LINE",
"266 592 LINE",
"266 648 LINE",
"-11 648 LINE",
"-11 592 LINE",
"54 576 LINE",
"242 249 LINE",
"242 75 LINE",
"162 56 LINE",
"162 0 LINE"
);
},
{
closed = 1;
nodes = (
"445 739 LINE",
"458 788 OFFCURVE",
"445 844 OFFCURVE",
"395 844 CURVE SMOOTH",
"380 844 OFFCURVE",
"361 830 OFFCURVE",
"343 820 CURVE",
"200 721 LINE",
"225 671 LINE"
);
}
);
width = 613;
}
);
rightKerningGroup = Y;
unicode = 00DD;
},
{
glyphname = Ydieresis;
layers = (
{
layerId = "D905F18B-B0C6-4EFF-A833-0E5BFD426C49";
paths = (
{
closed = 1;
nodes = (
"175 0 LINE",
"426 0 LINE",
"426 44 LINE",
"344 59 LINE",
"344 244 LINE",
"534 591 LINE",
"594 607 LINE",
"594 648 LINE",
"383 648 LINE",
"383 607 LINE",
"462 591 LINE",
"462 573 LINE",
"320 299 LINE",
"306 299 LINE",
"161 573 LINE",
"161 591 LINE",
"236 607 LINE",
"236 648 LINE",
"-5 648 LINE",
"-5 607 LINE",
"57 591 LINE",
"257 232 LINE",
"257 59 LINE",
"175 44 LINE"
);
},
{
closed = 1;
nodes = (
"237 694 OFFCURVE",
"257 723 OFFCURVE",
"257 756 CURVE SMOOTH",
"257 789 OFFCURVE",
"237 810 OFFCURVE",
"206 810 CURVE SMOOTH",
"173 810 OFFCURVE",
"151 782 OFFCURVE",
"151 750 CURVE SMOOTH",
"151 717 OFFCURVE",
"171 694 OFFCURVE",
"202 694 CURVE SMOOTH"
);
},
{
closed = 1;
nodes = (
"448 694 OFFCURVE",
"468 723 OFFCURVE",
"468 756 CURVE SMOOTH",
"468 789 OFFCURVE",
"448 810 OFFCURVE",
"417 810 CURVE SMOOTH",
"384 810 OFFCURVE",
"362 782 OFFCURVE",
"362 750 CURVE SMOOTH",
"362 717 OFFCURVE",
"382 694 OFFCURVE",
"413 694 CURVE SMOOTH"
);
}
);
width = 584;
},
{
layerId = "4843E09C-13E2-4232-9E55-A4E7C049DCE9";
paths = (
{
closed = 1;
nodes = (
"162 0 LINE",
"464 0 LINE",
"464 56 LINE",
"384 75 LINE",
"384 249 LINE",
"560 574 LINE",
"632 592 LINE",
"632 648 LINE",
"385 648 LINE",
"385 592 LINE",
"456 576 LINE",
"456 568 LINE",
"334 332 LINE",
"324 332 LINE",
"203 562 LINE",
"203 577 LINE",
"266 592 LINE",
"266 648 LINE",
"-11 648 LINE",
"-11 592 LINE",
"54 576 LINE",
"242 249 LINE",
"242 75 LINE",
"162 56 LINE"
);
},
{
closed = 1;
nodes = (
"231 695 OFFCURVE",
"262 732 OFFCURVE",
"262 775 CURVE SMOOTH",
"262 820 OFFCURVE",
"231 847 OFFCURVE",
"191 847 CURVE SMOOTH",
"148 847 OFFCURVE",
"113 810 OFFCURVE",
"113 768 CURVE SMOOTH",
"113 725 OFFCURVE",
"143 695 OFFCURVE",
"183 695 CURVE SMOOTH"
);
},
{
closed = 1;
nodes = (
"476 695 OFFCURVE",
"507 732 OFFCURVE",
"507 775 CURVE SMOOTH",
"507 820 OFFCURVE",
"476 847 OFFCURVE",
"436 847 CURVE SMOOTH",
"393 847 OFFCURVE",
"358 810 OFFCURVE",
"358 768 CURVE SMOOTH",
"358 725 OFFCURVE",
"388 695 OFFCURVE",
"428 695 CURVE SMOOTH"
);
}
);
width = 613;
}
);
rightKerningGroup = Y;
unicode = 0178;
},
{
glyphname = Z;
layers = (
{
anchors = (
{
name = bottom;
position = "{280, 0}";
},
{
name = top;
position = "{280, 648}";
}
);
layerId = "D905F18B-B0C6-4EFF-A833-0E5BFD426C49";
paths = (
{
closed = 1;
nodes = (
"35 0 LINE",
"524 0 LINE",
"524 163 LINE",
"475 163 LINE",
"446 59 LINE",
"145 59 LINE",
"145 71 LINE",
"515 582 LINE",
"515 648 LINE",
"45 648 LINE",
"45 485 LINE",
"94 485 LINE",
"123 589 LINE",
"395 589 LINE",
"395 570 LINE",
"35 59 LINE"
);
}
);
width = 559;
},
{
anchors = (
{
name = bottom;
position = "{260, 0}";
},
{
name = top;
position = "{260, 648}";
}
);
layerId = "4843E09C-13E2-4232-9E55-A4E7C049DCE9";
paths = (
{
closed = 1;
nodes = (
"5 0 LINE",
"513 0 LINE",
"513 178 LINE",
"443 178 LINE",
"422 76 LINE",
"175 76 LINE",
"175 87 LINE",
"507 572 LINE",
"507 648 LINE",
"14 648 LINE",
"14 470 LINE",
"84 470 LINE",
"104 572 LINE",
"337 572 LINE",
"337 559 LINE",
"5 76 LINE"
);
}
);
width = 520;
}
);
unicode = 005A;
},
{
glyphname = Zacute;
layers = (
{
layerId = "D905F18B-B0C6-4EFF-A833-0E5BFD426C49";
paths = (
{
closed = 1;
nodes = (
"524 0 LINE",
"524 163 LINE",
"475 163 LINE",
"446 59 LINE",
"145 59 LINE",
"145 71 LINE",
"515 582 LINE",
"515 648 LINE",
"45 648 LINE",
"45 485 LINE",
"94 485 LINE",
"123 589 LINE",
"395 589 LINE",
"395 570 LINE",
"35 59 LINE",
"35 0 LINE"
);
},
{
closed = 1;
nodes = (
"409 767 LINE",
"405 814 OFFCURVE",
"386 836 OFFCURVE",
"367 836 CURVE SMOOTH",
"356 836 OFFCURVE",
"342 826 OFFCURVE",
"325 814 CURVE SMOOTH",
"194 716 LINE",
"216 681 LINE"
);
}
);
width = 559;
},
{
layerId = "4843E09C-13E2-4232-9E55-A4E7C049DCE9";
paths = (
{
closed = 1;
nodes = (
"514 0 LINE",
"514 178 LINE",
"444 178 LINE",
"423 76 LINE",
"176 76 LINE",
"176 87 LINE",
"508 572 LINE",
"508 648 LINE",
"15 648 LINE",
"15 470 LINE",
"85 470 LINE",
"105 572 LINE",
"338 572 LINE",
"338 559 LINE",
"6 76 LINE",
"5 0 LINE"
);
},
{
closed = 1;
nodes = (
"380 739 LINE",
"393 788 OFFCURVE",
"380 844 OFFCURVE",
"330 844 CURVE SMOOTH",
"315 844 OFFCURVE",
"296 830 OFFCURVE",
"278 820 CURVE",
"135 721 LINE",
"160 671 LINE"
);
}
);
width = 521;
}
);
unicode = 0179;
},
{
glyphname = Zcaron;
layers = (
{
layerId = "D905F18B-B0C6-4EFF-A833-0E5BFD426C49";
paths = (
{
closed = 1;
nodes = (
"35 0 LINE",
"524 0 LINE",
"524 163 LINE",
"475 163 LINE",
"446 59 LINE",
"145 59 LINE",
"145 71 LINE",
"515 582 LINE",
"515 648 LINE",
"45 648 LINE",
"45 485 LINE",
"94 485 LINE",
"123 589 LINE",
"395 589 LINE",
"395 570 LINE",
"35 59 LINE"
);
},
{
closed = 1;
nodes = (
"127 793 LINE",
"201 732 LINE SMOOTH",
"240 700 OFFCURVE",
"262 678 OFFCURVE",
"278 678 CURVE SMOOTH",
"292 678 OFFCURVE",
"308 695 OFFCURVE",
"354 732 CURVE SMOOTH",
"433 796 LINE",
"408 832 LINE",
"282 769 LINE",
"160 834 LINE"
);
}
);
width = 559;
},
{
layerId = "4843E09C-13E2-4232-9E55-A4E7C049DCE9";
paths = (
{
closed = 1;
nodes = (
"5 0 LINE",
"514 0 LINE",
"514 178 LINE",
"444 178 LINE",
"423 76 LINE",
"176 76 LINE",
"176 87 LINE",
"508 572 LINE",
"508 648 LINE",
"15 648 LINE",
"15 470 LINE",
"85 470 LINE",
"105 572 LINE",
"338 572 LINE",
"338 559 LINE",
"6 76 LINE"
);
},
{
closed = 1;
nodes = (
"107 822 LINE",
"198 734 LINE SMOOTH",
"227 706 OFFCURVE",
"245 690 OFFCURVE",
"257 690 CURVE SMOOTH",
"269 690 OFFCURVE",
"287 706 OFFCURVE",
"316 734 CURVE SMOOTH",
"414 829 LINE",
"382 871 LINE",
"265 796 LINE",
"150 871 LINE"
);
}
);
width = 521;
}
);
unicode = 017D;
},
{
glyphname = Zdotaccent;
layers = (
{
layerId = "D905F18B-B0C6-4EFF-A833-0E5BFD426C49";
paths = (
{
closed = 1;
nodes = (
"35 0 LINE",
"524 0 LINE",
"524 163 LINE",
"475 163 LINE",
"446 59 LINE",
"145 59 LINE",
"145 71 LINE",
"515 582 LINE",
"515 648 LINE",
"45 648 LINE",
"45 485 LINE",
"94 485 LINE",
"123 589 LINE",
"395 589 LINE",
"395 570 LINE",
"35 59 LINE"
);
},
{
closed = 1;
nodes = (
"311 687 OFFCURVE",
"333 719 OFFCURVE",
"333 755 CURVE SMOOTH",
"333 792 OFFCURVE",
"311 815 OFFCURVE",
"277 815 CURVE SMOOTH",
"241 815 OFFCURVE",
"216 784 OFFCURVE",
"216 749 CURVE SMOOTH",
"216 712 OFFCURVE",
"238 687 OFFCURVE",
"272 687 CURVE SMOOTH"
);
}
);
width = 559;
},
{
layerId = "4843E09C-13E2-4232-9E55-A4E7C049DCE9";
paths = (
{
closed = 1;
nodes = (
"5 0 LINE",
"514 0 LINE",
"514 178 LINE",
"444 178 LINE",
"423 76 LINE",
"176 76 LINE",
"176 87 LINE",
"508 572 LINE",
"508 648 LINE",
"15 648 LINE",
"15 470 LINE",
"85 470 LINE",
"105 572 LINE",
"338 572 LINE",
"338 559 LINE",
"6 76 LINE"
);
},
{
closed = 1;
nodes = (
"308 691 OFFCURVE",
"342 732 OFFCURVE",
"342 779 CURVE SMOOTH",
"342 828 OFFCURVE",
"308 857 OFFCURVE",
"264 857 CURVE SMOOTH",
"217 857 OFFCURVE",
"179 817 OFFCURVE",
"179 771 CURVE SMOOTH",
"179 724 OFFCURVE",
"212 691 OFFCURVE",
"256 691 CURVE SMOOTH"
);
}
);
width = 521;
}
);
unicode = 017B;
},
{
color = 6;
glyphname = Y.loclGUA;
layers = (
{
anchors = (
{
name = bottom;
position = "{366, 0}";
},
{
name = top;
position = "{366, 648}";
},
{
name = topright;
position = "{697, 648}";
}
);
background = {
paths = (
{
closed = 1;
nodes = (
"576 394 LINE",
"528 293 OFFCURVE",
"474 260 OFFCURVE",
"375 260 CURVE SMOOTH",
"248 260 OFFCURVE",
"214 312 OFFCURVE",
"214 465 CURVE SMOOTH",
"214 589 LINE",
"296 604 LINE",
"296 648 LINE",
"45 648 LINE",
"45 604 LINE",
"127 589 LINE",
"127 465 LINE SMOOTH",
"127 287 OFFCURVE",
"170 194 OFFCURVE",
"358 194 CURVE SMOOTH",
"458 194 OFFCURVE",
"523 221 OFFCURVE",
"563 294 CURVE"
);
}
);
};
layerId = "D905F18B-B0C6-4EFF-A833-0E5BFD426C49";
paths = (
{
closed = 1;
nodes = (
"499 -14 OFFCURVE",
"595 59 OFFCURVE",
"595 251 CURVE SMOOTH",
"595 589 LINE",
"668 604 LINE",
"668 648 LINE",
"413 648 LINE",
"413 604 LINE",
"508 587 LINE",
"508 337 LINE",
"465 289 OFFCURVE",
"415 262 OFFCURVE",
"352 262 CURVE SMOOTH",
"239 262 OFFCURVE",
"214 346 OFFCURVE",
"214 465 CURVE SMOOTH",
"214 589 LINE",
"296 604 LINE",
"296 648 LINE",
"45 648 LINE",
"45 604 LINE",
"127 589 LINE",
"127 445 LINE SMOOTH",
"127 295 OFFCURVE",
"171 199 OFFCURVE",
"331 199 CURVE SMOOTH",
"410 199 OFFCURVE",
"467 223 OFFCURVE",
"529 276 CURVE",
"508 296 LINE",
"508 239 LINE SMOOTH",
"508 131 OFFCURVE",
"469 37 OFFCURVE",
"341 37 CURVE SMOOTH",
"294 37 OFFCURVE",
"249 50 OFFCURVE",
"200 77 CURVE",
"171 187 LINE",
"123 187 LINE",
"123 43 LINE",
"197 3 OFFCURVE",
"265 -14 OFFCURVE",
"341 -14 CURVE SMOOTH"
);
}
);
width = 713;
},
{
anchors = (
{
name = bottom;
position = "{342, 0}";
},
{
name = top;
position = "{342, 648}";
},
{
name = topright;
position = "{664, 648}";
}
);
background = {
paths = (
{
closed = 1;
nodes = (
"484 362 LINE",
"465 318 OFFCURVE",
"429 305 OFFCURVE",
"371 305 CURVE SMOOTH",
"260 305 OFFCURVE",
"225 336 OFFCURVE",
"225 494 CURVE SMOOTH",
"225 573 LINE",
"299 592 LINE",
"299 648 LINE",
"3 648 LINE",
"3 592 LINE",
"83 573 LINE",
"83 494 LINE SMOOTH",
"83 291 OFFCURVE",
"147 218 OFFCURVE",
"352 218 CURVE SMOOTH",
"444 218 OFFCURVE",
"506 238 OFFCURVE",
"544 281 CURVE"
);
}
);
};
layerId = "4843E09C-13E2-4232-9E55-A4E7C049DCE9";
paths = (
{
closed = 1;
nodes = (
"559 -18 OFFCURVE",
"601 110 OFFCURVE",
"601 250 CURVE SMOOTH",
"601 573 LINE",
"681 592 LINE",
"681 648 LINE",
"379 648 LINE",
"379 592 LINE",
"459 573 LINE",
"459 322 LINE",
"426 309 OFFCURVE",
"390 302 OFFCURVE",
"358 302 CURVE SMOOTH",
"245 302 OFFCURVE",
"225 371 OFFCURVE",
"225 494 CURVE SMOOTH",
"225 573 LINE",
"299 592 LINE",
"299 648 LINE",
"3 648 LINE",
"3 592 LINE",
"83 573 LINE",
"83 494 LINE SMOOTH",
"83 300 OFFCURVE",
"147 215 OFFCURVE",
"346 215 CURVE SMOOTH",
"399 215 OFFCURVE",
"451 224 OFFCURVE",
"494 242 CURVE",
"459 283 LINE",
"459 251 LINE SMOOTH",
"458 130 OFFCURVE",
"438 65 OFFCURVE",
"311 65 CURVE SMOOTH",
"264 65 OFFCURVE",
"217 74 OFFCURVE",
"188 87 CURVE",
"162 208 LINE",
"92 208 LINE",
"92 30 LINE",
"131 8 OFFCURVE",
"218 -18 OFFCURVE",
"324 -18 CURVE SMOOTH"
);
}
);
width = 687;
}
);
rightMetricsKey = "=J";
},
{
glyphname = a;
layers = (
{
anchors = (
{
name = bottom;
position = "{240, 0}";
},
{
name = ogonek;
position = "{460, 10}";
},
{
name = top;
position = "{240, 494}";
}
);
layerId = "D905F18B-B0C6-4EFF-A833-0E5BFD426C49";
paths = (
{
closed = 1;
nodes = (
"244 -7 OFFCURVE",
"297 30 OFFCURVE",
"308 42 CURVE",
"312 42 LINE",
"314 21 OFFCURVE",
"323 -4 OFFCURVE",
"360 -4 CURVE SMOOTH",
"414 -4 OFFCURVE",
"460 16 OFFCURVE",
"460 16 CURVE",
"460 54 LINE",
"389 68 LINE",
"389 389 LINE SMOOTH",
"389 452 OFFCURVE",
"345 504 OFFCURVE",
"258 504 CURVE SMOOTH",
"204 504 OFFCURVE",
"54 462 OFFCURVE",
"54 379 CURVE SMOOTH",
"54 351 OFFCURVE",
"77 333 OFFCURVE",
"100 333 CURVE SMOOTH",
"123 333 OFFCURVE",
"132 340 OFFCURVE",
"132 340 CURVE",
"147 432 LINE",
"147 432 OFFCURVE",
"174 440 OFFCURVE",
"209 440 CURVE SMOOTH",
"272 440 OFFCURVE",
"307 415 OFFCURVE",
"307 356 CURVE SMOOTH",
"307 281 LINE",
"217 268 LINE SMOOTH",
"97 251 OFFCURVE",
"38 200 OFFCURVE",
"38 117 CURVE SMOOTH",
"38 51 OFFCURVE",
"78 -7 OFFCURVE",
"180 -7 CURVE SMOOTH"
);
},
{
closed = 1;
nodes = (
"158 56 OFFCURVE",
"126 91 OFFCURVE",
"126 132 CURVE SMOOTH",
"126 196 OFFCURVE",
"183 224 OFFCURVE",
"307 233 CURVE",
"307 74 LINE",
"307 74 OFFCURVE",
"268 56 OFFCURVE",
"218 56 CURVE SMOOTH"
);
}
);
width = 480;
},
{
anchors = (
{
name = bottom;
position = "{260, 0}";
},
{
name = ogonek;
position = "{512, 10}";
},
{
name = top;
position = "{260, 494}";
}
);
layerId = "4843E09C-13E2-4232-9E55-A4E7C049DCE9";
paths = (
{
closed = 1;
nodes = (
"250 -12 OFFCURVE",
"297 27 OFFCURVE",
"311 41 CURVE",
"320 41 LINE",
"330 12 OFFCURVE",
"344 -6 OFFCURVE",
"400 -6 CURVE SMOOTH",
"454 -6 OFFCURVE",
"512 16 OFFCURVE",
"512 16 CURVE",
"512 67 LINE",
"439 81 LINE",
"439 373 LINE SMOOTH",
"439 476 OFFCURVE",
"378 509 OFFCURVE",
"266 509 CURVE SMOOTH",
"182 509 OFFCURVE",
"51 469 OFFCURVE",
"51 379 CURVE SMOOTH",
"51 334 OFFCURVE",
"76 320 OFFCURVE",
"120 320 CURVE SMOOTH",
"148 320 OFFCURVE",
"173 330 OFFCURVE",
"173 330 CURVE",
"187 421 LINE",
"187 421 OFFCURVE",
"198 426 OFFCURVE",
"233 426 CURVE SMOOTH",
"296 426 OFFCURVE",
"307 397 OFFCURVE",
"307 350 CURVE SMOOTH",
"307 284 LINE",
"200 266 LINE SMOOTH",
"109 251 OFFCURVE",
"33 208 OFFCURVE",
"33 118 CURVE SMOOTH",
"33 50 OFFCURVE",
"75 -12 OFFCURVE",
"179 -12 CURVE SMOOTH"
);
},
{
closed = 1;
nodes = (
"193 74 OFFCURVE",
"174 98 OFFCURVE",
"174 135 CURVE SMOOTH",
"174 175 OFFCURVE",
"189 205 OFFCURVE",
"307 215 CURVE",
"307 91 LINE",
"294 84 OFFCURVE",
"272 74 OFFCURVE",
"248 74 CURVE SMOOTH"
);
}
);
width = 520;
}
);
leftKerningGroup = a;
unicode = 0061;
},
{
glyphname = aacute;
layers = (
{
layerId = "D905F18B-B0C6-4EFF-A833-0E5BFD426C49";
paths = (
{
closed = 1;
nodes = (
"239 -7 OFFCURVE",
"292 30 OFFCURVE",
"303 42 CURVE",
"307 42 LINE",
"309 21 OFFCURVE",
"318 -4 OFFCURVE",
"355 -4 CURVE SMOOTH",
"409 -4 OFFCURVE",
"455 16 OFFCURVE",
"455 16 CURVE",
"455 54 LINE",
"384 68 LINE",
"384 389 LINE SMOOTH",
"384 452 OFFCURVE",
"340 504 OFFCURVE",
"253 504 CURVE SMOOTH",
"199 504 OFFCURVE",
"49 462 OFFCURVE",
"49 379 CURVE SMOOTH",
"49 351 OFFCURVE",
"72 333 OFFCURVE",
"95 333 CURVE SMOOTH",
"118 333 OFFCURVE",
"127 340 OFFCURVE",
"127 340 CURVE",
"142 432 LINE",
"142 432 OFFCURVE",
"169 440 OFFCURVE",
"204 440 CURVE SMOOTH",
"267 440 OFFCURVE",
"302 415 OFFCURVE",
"302 356 CURVE SMOOTH",
"302 281 LINE",
"212 268 LINE SMOOTH",
"92 251 OFFCURVE",
"33 200 OFFCURVE",
"33 117 CURVE SMOOTH",
"33 51 OFFCURVE",
"73 -7 OFFCURVE",
"175 -7 CURVE SMOOTH"
);
},
{
closed = 1;
nodes = (
"153 56 OFFCURVE",
"121 91 OFFCURVE",
"121 132 CURVE SMOOTH",
"121 196 OFFCURVE",
"178 224 OFFCURVE",
"302 233 CURVE",
"302 74 LINE",
"302 74 OFFCURVE",
"263 56 OFFCURVE",
"213 56 CURVE SMOOTH"
);
},
{
closed = 1;
nodes = (
"340 655 LINE",
"328 696 OFFCURVE",
"306 717 OFFCURVE",
"289 717 CURVE SMOOTH",
"275 717 OFFCURVE",
"263 704 OFFCURVE",
"247 686 CURVE SMOOTH",
"138 565 LINE",
"166 535 LINE"
);
}
);
width = 475;
},
{
layerId = "4843E09C-13E2-4232-9E55-A4E7C049DCE9";
paths = (
{
closed = 1;
nodes = (
"250 -12 OFFCURVE",
"297 27 OFFCURVE",
"311 41 CURVE",
"320 41 LINE",
"330 12 OFFCURVE",
"344 -6 OFFCURVE",
"400 -6 CURVE SMOOTH",
"454 -6 OFFCURVE",
"512 16 OFFCURVE",
"512 16 CURVE",
"512 67 LINE",
"439 81 LINE",
"439 373 LINE SMOOTH",
"439 476 OFFCURVE",
"378 509 OFFCURVE",
"266 509 CURVE SMOOTH",
"182 509 OFFCURVE",
"51 469 OFFCURVE",
"51 379 CURVE SMOOTH",
"51 334 OFFCURVE",
"76 320 OFFCURVE",
"120 320 CURVE SMOOTH",
"148 320 OFFCURVE",
"173 330 OFFCURVE",
"173 330 CURVE",
"187 421 LINE",
"187 421 OFFCURVE",
"198 426 OFFCURVE",
"233 426 CURVE SMOOTH",
"296 426 OFFCURVE",
"307 397 OFFCURVE",
"307 350 CURVE SMOOTH",
"307 284 LINE",
"200 266 LINE SMOOTH",
"109 251 OFFCURVE",
"33 208 OFFCURVE",
"33 118 CURVE SMOOTH",
"33 50 OFFCURVE",
"75 -12 OFFCURVE",
"179 -12 CURVE SMOOTH"
);
},
{
closed = 1;
nodes = (
"193 74 OFFCURVE",
"174 98 OFFCURVE",
"174 135 CURVE SMOOTH",
"174 175 OFFCURVE",
"189 205 OFFCURVE",
"307 215 CURVE",
"307 91 LINE",
"294 84 OFFCURVE",
"272 74 OFFCURVE",
"248 74 CURVE SMOOTH"
);
},
{
closed = 1;
nodes = (
"372 644 LINE",
"372 700 OFFCURVE",
"334 731 OFFCURVE",
"310 731 CURVE SMOOTH",
"289 731 OFFCURVE",
"271 711 OFFCURVE",
"256 693 CURVE SMOOTH",
"160 578 LINE",
"196 535 LINE"
);
}
);
width = 520;
}
);
leftKerningGroup = a;
unicode = 00E1;
},
{
glyphname = abreve;
layers = (
{
layerId = "D905F18B-B0C6-4EFF-A833-0E5BFD426C49";
paths = (
{
closed = 1;
nodes = (
"239 -7 OFFCURVE",
"292 30 OFFCURVE",
"303 42 CURVE",
"307 42 LINE",
"309 21 OFFCURVE",
"318 -4 OFFCURVE",
"355 -4 CURVE SMOOTH",
"409 -4 OFFCURVE",
"455 16 OFFCURVE",
"455 16 CURVE",
"455 54 LINE",
"384 68 LINE",
"384 389 LINE SMOOTH",
"384 452 OFFCURVE",
"340 504 OFFCURVE",
"253 504 CURVE SMOOTH",
"199 504 OFFCURVE",
"49 462 OFFCURVE",
"49 379 CURVE SMOOTH",
"49 351 OFFCURVE",
"72 333 OFFCURVE",
"95 333 CURVE SMOOTH",
"118 333 OFFCURVE",
"127 340 OFFCURVE",
"127 340 CURVE",
"142 432 LINE",
"142 432 OFFCURVE",
"169 440 OFFCURVE",
"204 440 CURVE SMOOTH",
"267 440 OFFCURVE",
"302 415 OFFCURVE",
"302 356 CURVE SMOOTH",
"302 281 LINE",
"212 268 LINE SMOOTH",
"92 251 OFFCURVE",
"33 200 OFFCURVE",
"33 117 CURVE SMOOTH",
"33 51 OFFCURVE",
"73 -7 OFFCURVE",
"175 -7 CURVE SMOOTH"
);
},
{
closed = 1;
nodes = (
"153 56 OFFCURVE",
"121 91 OFFCURVE",
"121 132 CURVE SMOOTH",
"121 196 OFFCURVE",
"178 224 OFFCURVE",
"302 233 CURVE",
"302 74 LINE",
"302 74 OFFCURVE",
"263 56 OFFCURVE",
"213 56 CURVE SMOOTH"
);
},
{
closed = 1;
nodes = (
"367 553 OFFCURVE",
"372 700 OFFCURVE",
"372 700 CURVE",
"338 708 LINE",
"338 708 OFFCURVE",
"329 618 OFFCURVE",
"230 618 CURVE SMOOTH",
"129 618 OFFCURVE",
"121 706 OFFCURVE",
"121 706 CURVE",
"70 693 LINE",
"70 693 OFFCURVE",
"79 553 OFFCURVE",
"223 553 CURVE SMOOTH"
);
}
);
width = 475;
},
{
layerId = "4843E09C-13E2-4232-9E55-A4E7C049DCE9";
paths = (
{
closed = 1;
nodes = (
"250 -12 OFFCURVE",
"297 27 OFFCURVE",
"311 41 CURVE",
"320 41 LINE",
"330 12 OFFCURVE",
"344 -6 OFFCURVE",
"400 -6 CURVE SMOOTH",
"454 -6 OFFCURVE",
"512 16 OFFCURVE",
"512 16 CURVE",
"512 67 LINE",
"439 81 LINE",
"439 373 LINE SMOOTH",
"439 476 OFFCURVE",
"378 509 OFFCURVE",
"266 509 CURVE SMOOTH",
"182 509 OFFCURVE",
"51 469 OFFCURVE",
"51 379 CURVE SMOOTH",
"51 334 OFFCURVE",
"76 320 OFFCURVE",
"120 320 CURVE SMOOTH",
"148 320 OFFCURVE",
"173 330 OFFCURVE",
"173 330 CURVE",
"187 421 LINE",
"187 421 OFFCURVE",
"198 426 OFFCURVE",
"233 426 CURVE SMOOTH",
"296 426 OFFCURVE",
"307 397 OFFCURVE",
"307 350 CURVE SMOOTH",
"307 284 LINE",
"200 266 LINE SMOOTH",
"109 251 OFFCURVE",
"33 208 OFFCURVE",
"33 118 CURVE SMOOTH",
"33 50 OFFCURVE",
"75 -12 OFFCURVE",
"179 -12 CURVE SMOOTH"
);
},
{
closed = 1;
nodes = (
"193 74 OFFCURVE",
"174 98 OFFCURVE",
"174 135 CURVE SMOOTH",
"174 175 OFFCURVE",
"189 205 OFFCURVE",
"307 215 CURVE",
"307 91 LINE",
"294 84 OFFCURVE",
"272 74 OFFCURVE",
"248 74 CURVE SMOOTH"
);
},
{
closed = 1;
nodes = (
"391 550 OFFCURVE",
"415 702 OFFCURVE",
"415 702 CURVE",
"374 719 LINE",
"374 719 OFFCURVE",
"350 639 OFFCURVE",
"262 639 CURVE SMOOTH",
"177 639 OFFCURVE",
"159 719 OFFCURVE",
"159 719 CURVE",
"84 689 LINE",
"84 689 OFFCURVE",
"112 550 OFFCURVE",
"256 550 CURVE SMOOTH"
);
}
);
width = 520;
}
);
leftKerningGroup = a;
unicode = 0103;
},
{
glyphname = acircumflex;
layers = (
{
layerId = "D905F18B-B0C6-4EFF-A833-0E5BFD426C49";
paths = (
{
closed = 1;
nodes = (
"239 -7 OFFCURVE",
"292 30 OFFCURVE",
"303 42 CURVE",
"307 42 LINE",
"309 21 OFFCURVE",
"318 -4 OFFCURVE",
"355 -4 CURVE SMOOTH",
"409 -4 OFFCURVE",
"455 16 OFFCURVE",
"455 16 CURVE",
"455 54 LINE",
"384 68 LINE",
"384 389 LINE SMOOTH",
"384 452 OFFCURVE",
"340 504 OFFCURVE",
"253 504 CURVE SMOOTH",
"199 504 OFFCURVE",
"49 462 OFFCURVE",
"49 379 CURVE SMOOTH",
"49 351 OFFCURVE",
"72 333 OFFCURVE",
"95 333 CURVE SMOOTH",
"118 333 OFFCURVE",
"127 340 OFFCURVE",
"127 340 CURVE",
"142 432 LINE",
"142 432 OFFCURVE",
"169 440 OFFCURVE",
"204 440 CURVE SMOOTH",
"267 440 OFFCURVE",
"302 415 OFFCURVE",
"302 356 CURVE SMOOTH",
"302 281 LINE",
"212 268 LINE SMOOTH",
"92 251 OFFCURVE",
"33 200 OFFCURVE",
"33 117 CURVE SMOOTH",
"33 51 OFFCURVE",
"73 -7 OFFCURVE",
"175 -7 CURVE SMOOTH"
);
},
{
closed = 1;
nodes = (
"153 56 OFFCURVE",
"121 91 OFFCURVE",
"121 132 CURVE SMOOTH",
"121 196 OFFCURVE",
"178 224 OFFCURVE",
"302 233 CURVE",
"302 74 LINE",
"302 74 OFFCURVE",
"263 56 OFFCURVE",
"213 56 CURVE SMOOTH"
);
},
{
closed = 1;
nodes = (
"374 579 LINE",
"268 689 LINE SMOOTH",
"253 704 OFFCURVE",
"241 710 OFFCURVE",
"230 710 CURVE SMOOTH",
"218 710 OFFCURVE",
"202 701 OFFCURVE",
"184 683 CURVE SMOOTH",
"78 577 LINE",
"106 545 LINE",
"221 628 LINE",
"339 544 LINE"
);
}
);
width = 475;
},
{
layerId = "4843E09C-13E2-4232-9E55-A4E7C049DCE9";
paths = (
{
closed = 1;
nodes = (
"250 -12 OFFCURVE",
"297 27 OFFCURVE",
"311 41 CURVE",
"320 41 LINE",
"330 12 OFFCURVE",
"344 -6 OFFCURVE",
"400 -6 CURVE SMOOTH",
"454 -6 OFFCURVE",
"512 16 OFFCURVE",
"512 16 CURVE",
"512 67 LINE",
"439 81 LINE",
"439 373 LINE SMOOTH",
"439 476 OFFCURVE",
"378 509 OFFCURVE",
"266 509 CURVE SMOOTH",
"182 509 OFFCURVE",
"51 469 OFFCURVE",
"51 379 CURVE SMOOTH",
"51 334 OFFCURVE",
"76 320 OFFCURVE",
"120 320 CURVE SMOOTH",
"148 320 OFFCURVE",
"173 330 OFFCURVE",
"173 330 CURVE",
"187 421 LINE",
"187 421 OFFCURVE",
"198 426 OFFCURVE",
"233 426 CURVE SMOOTH",
"296 426 OFFCURVE",
"307 397 OFFCURVE",
"307 350 CURVE SMOOTH",
"307 284 LINE",
"200 266 LINE SMOOTH",
"109 251 OFFCURVE",
"33 208 OFFCURVE",
"33 118 CURVE SMOOTH",
"33 50 OFFCURVE",
"75 -12 OFFCURVE",
"179 -12 CURVE SMOOTH"
);
},
{
closed = 1;
nodes = (
"193 74 OFFCURVE",
"174 98 OFFCURVE",
"174 135 CURVE SMOOTH",
"174 175 OFFCURVE",
"189 205 OFFCURVE",
"307 215 CURVE",
"307 91 LINE",
"294 84 OFFCURVE",
"272 74 OFFCURVE",
"248 74 CURVE SMOOTH"
);
},
{
closed = 1;
nodes = (
"408 585 LINE",
"300 693 LINE SMOOTH",
"285 708 OFFCURVE",
"270 720 OFFCURVE",
"255 720 CURVE SMOOTH",
"236 720 OFFCURVE",
"217 703 OFFCURVE",
"199 685 CURVE SMOOTH",
"98 581 LINE",
"130 539 LINE",
"247 610 LINE",
"368 538 LINE"
);
}
);
width = 520;
}
);
leftKerningGroup = a;
unicode = 00E2;
},
{
glyphname = adieresis;
layers = (
{
layerId = "D905F18B-B0C6-4EFF-A833-0E5BFD426C49";
paths = (
{
closed = 1;
nodes = (
"239 -7 OFFCURVE",
"292 30 OFFCURVE",
"303 42 CURVE",
"307 42 LINE",
"309 21 OFFCURVE",
"318 -4 OFFCURVE",
"355 -4 CURVE SMOOTH",
"409 -4 OFFCURVE",
"455 16 OFFCURVE",
"455 16 CURVE",
"455 54 LINE",
"384 68 LINE",
"384 389 LINE SMOOTH",
"384 452 OFFCURVE",
"340 504 OFFCURVE",
"253 504 CURVE SMOOTH",
"199 504 OFFCURVE",
"49 462 OFFCURVE",
"49 379 CURVE SMOOTH",
"49 351 OFFCURVE",
"72 333 OFFCURVE",
"95 333 CURVE SMOOTH",
"118 333 OFFCURVE",
"127 340 OFFCURVE",
"127 340 CURVE",
"142 432 LINE",
"142 432 OFFCURVE",
"169 440 OFFCURVE",
"204 440 CURVE SMOOTH",
"267 440 OFFCURVE",
"302 415 OFFCURVE",
"302 356 CURVE SMOOTH",
"302 281 LINE",
"212 268 LINE SMOOTH",
"92 251 OFFCURVE",
"33 200 OFFCURVE",
"33 117 CURVE SMOOTH",
"33 51 OFFCURVE",
"73 -7 OFFCURVE",
"175 -7 CURVE SMOOTH"
);
},
{
closed = 1;
nodes = (
"153 56 OFFCURVE",
"121 91 OFFCURVE",
"121 132 CURVE SMOOTH",
"121 196 OFFCURVE",
"178 224 OFFCURVE",
"302 233 CURVE",
"302 74 LINE",
"302 74 OFFCURVE",
"263 56 OFFCURVE",
"213 56 CURVE SMOOTH"
);
},
{
closed = 1;
nodes = (
"143 575 OFFCURVE",
"163 604 OFFCURVE",
"163 637 CURVE SMOOTH",
"163 670 OFFCURVE",
"143 691 OFFCURVE",
"112 691 CURVE SMOOTH",
"79 691 OFFCURVE",
"57 663 OFFCURVE",
"57 631 CURVE SMOOTH",
"57 598 OFFCURVE",
"77 575 OFFCURVE",
"108 575 CURVE SMOOTH"
);
},
{
closed = 1;
nodes = (
"354 575 OFFCURVE",
"374 604 OFFCURVE",
"374 637 CURVE SMOOTH",
"374 670 OFFCURVE",
"354 691 OFFCURVE",
"323 691 CURVE SMOOTH",
"290 691 OFFCURVE",
"268 663 OFFCURVE",
"268 631 CURVE SMOOTH",
"268 598 OFFCURVE",
"288 575 OFFCURVE",
"319 575 CURVE SMOOTH"
);
}
);
width = 475;
},
{
layerId = "4843E09C-13E2-4232-9E55-A4E7C049DCE9";
paths = (
{
closed = 1;
nodes = (
"250 -12 OFFCURVE",
"297 27 OFFCURVE",
"311 41 CURVE",
"320 41 LINE",
"330 12 OFFCURVE",
"344 -6 OFFCURVE",
"400 -6 CURVE SMOOTH",
"454 -6 OFFCURVE",
"512 16 OFFCURVE",
"512 16 CURVE",
"512 67 LINE",
"439 81 LINE",
"439 373 LINE SMOOTH",
"439 476 OFFCURVE",
"378 509 OFFCURVE",
"266 509 CURVE SMOOTH",
"182 509 OFFCURVE",
"51 469 OFFCURVE",
"51 379 CURVE SMOOTH",
"51 334 OFFCURVE",
"76 320 OFFCURVE",
"120 320 CURVE SMOOTH",
"148 320 OFFCURVE",
"173 330 OFFCURVE",
"173 330 CURVE",
"187 421 LINE",
"187 421 OFFCURVE",
"198 426 OFFCURVE",
"233 426 CURVE SMOOTH",
"296 426 OFFCURVE",
"307 397 OFFCURVE",
"307 350 CURVE SMOOTH",
"307 284 LINE",
"200 266 LINE SMOOTH",
"109 251 OFFCURVE",
"33 208 OFFCURVE",
"33 118 CURVE SMOOTH",
"33 50 OFFCURVE",
"75 -12 OFFCURVE",
"179 -12 CURVE SMOOTH"
);
},
{
closed = 1;
nodes = (
"193 74 OFFCURVE",
"174 98 OFFCURVE",
"174 135 CURVE SMOOTH",
"174 175 OFFCURVE",
"189 205 OFFCURVE",
"307 215 CURVE",
"307 91 LINE",
"294 84 OFFCURVE",
"272 74 OFFCURVE",
"248 74 CURVE SMOOTH"
);
},
{
closed = 1;
nodes = (
"181 561 OFFCURVE",
"212 598 OFFCURVE",
"212 641 CURVE SMOOTH",
"212 686 OFFCURVE",
"181 713 OFFCURVE",
"141 713 CURVE SMOOTH",
"98 713 OFFCURVE",
"63 676 OFFCURVE",
"63 634 CURVE SMOOTH",
"63 591 OFFCURVE",
"93 561 OFFCURVE",
"133 561 CURVE SMOOTH"
);
},
{
closed = 1;
nodes = (
"406 561 OFFCURVE",
"437 598 OFFCURVE",
"437 641 CURVE SMOOTH",
"437 686 OFFCURVE",
"406 713 OFFCURVE",
"366 713 CURVE SMOOTH",
"323 713 OFFCURVE",
"288 676 OFFCURVE",
"288 634 CURVE SMOOTH",
"288 591 OFFCURVE",
"318 561 OFFCURVE",
"358 561 CURVE SMOOTH"
);
}
);
width = 520;
}
);
leftKerningGroup = a;
unicode = 00E4;
},
{
glyphname = agrave;
layers = (
{
layerId = "D905F18B-B0C6-4EFF-A833-0E5BFD426C49";
paths = (
{
closed = 1;
nodes = (
"239 -7 OFFCURVE",
"292 30 OFFCURVE",
"303 42 CURVE",
"307 42 LINE",
"309 21 OFFCURVE",
"318 -4 OFFCURVE",
"355 -4 CURVE SMOOTH",
"409 -4 OFFCURVE",
"455 16 OFFCURVE",
"455 16 CURVE",
"455 54 LINE",
"384 68 LINE",
"384 389 LINE SMOOTH",
"384 452 OFFCURVE",
"340 504 OFFCURVE",
"253 504 CURVE SMOOTH",
"199 504 OFFCURVE",
"49 462 OFFCURVE",
"49 379 CURVE SMOOTH",
"49 351 OFFCURVE",
"72 333 OFFCURVE",
"95 333 CURVE SMOOTH",
"118 333 OFFCURVE",
"127 340 OFFCURVE",
"127 340 CURVE",
"142 432 LINE",
"142 432 OFFCURVE",
"169 440 OFFCURVE",
"204 440 CURVE SMOOTH",
"267 440 OFFCURVE",
"302 415 OFFCURVE",
"302 356 CURVE SMOOTH",
"302 281 LINE",
"212 268 LINE SMOOTH",
"92 251 OFFCURVE",
"33 200 OFFCURVE",
"33 117 CURVE SMOOTH",
"33 51 OFFCURVE",
"73 -7 OFFCURVE",
"175 -7 CURVE SMOOTH"
);
},
{
closed = 1;
nodes = (
"153 56 OFFCURVE",
"121 91 OFFCURVE",
"121 132 CURVE SMOOTH",
"121 196 OFFCURVE",
"178 224 OFFCURVE",
"302 233 CURVE",
"302 74 LINE",
"302 74 OFFCURVE",
"263 56 OFFCURVE",
"213 56 CURVE SMOOTH"
);
},
{
closed = 1;
nodes = (
"320 565 LINE",
"211 686 LINE SMOOTH",
"195 704 OFFCURVE",
"183 717 OFFCURVE",
"169 717 CURVE SMOOTH",
"152 717 OFFCURVE",
"130 696 OFFCURVE",
"118 655 CURVE",
"292 535 LINE"
);
}
);
width = 475;
},
{
layerId = "4843E09C-13E2-4232-9E55-A4E7C049DCE9";
paths = (
{
closed = 1;
nodes = (
"250 -12 OFFCURVE",
"297 27 OFFCURVE",
"311 41 CURVE",
"320 41 LINE",
"330 12 OFFCURVE",
"344 -6 OFFCURVE",
"400 -6 CURVE SMOOTH",
"454 -6 OFFCURVE",
"512 16 OFFCURVE",
"512 16 CURVE",
"512 67 LINE",
"439 81 LINE",
"439 373 LINE SMOOTH",
"439 476 OFFCURVE",
"378 509 OFFCURVE",
"266 509 CURVE SMOOTH",
"182 509 OFFCURVE",
"51 469 OFFCURVE",
"51 379 CURVE SMOOTH",
"51 334 OFFCURVE",
"76 320 OFFCURVE",
"120 320 CURVE SMOOTH",
"148 320 OFFCURVE",
"173 330 OFFCURVE",
"173 330 CURVE",
"187 421 LINE",
"187 421 OFFCURVE",
"198 426 OFFCURVE",
"233 426 CURVE SMOOTH",
"296 426 OFFCURVE",
"307 397 OFFCURVE",
"307 350 CURVE SMOOTH",
"307 284 LINE",
"200 266 LINE SMOOTH",
"109 251 OFFCURVE",
"33 208 OFFCURVE",
"33 118 CURVE SMOOTH",
"33 50 OFFCURVE",
"75 -12 OFFCURVE",
"179 -12 CURVE SMOOTH"
);
},
{
closed = 1;
nodes = (
"193 74 OFFCURVE",
"174 98 OFFCURVE",
"174 135 CURVE SMOOTH",
"174 175 OFFCURVE",
"189 205 OFFCURVE",
"307 215 CURVE",
"307 91 LINE",
"294 84 OFFCURVE",
"272 74 OFFCURVE",
"248 74 CURVE SMOOTH"
);
},
{
closed = 1;
nodes = (
"355 578 LINE",
"259 693 LINE SMOOTH",
"243 711 OFFCURVE",
"225 731 OFFCURVE",
"205 731 CURVE SMOOTH",
"180 731 OFFCURVE",
"143 700 OFFCURVE",
"143 644 CURVE",
"319 535 LINE"
);
}
);
width = 520;
}
);
leftKerningGroup = a;
unicode = 00E0;
},
{
glyphname = amacron;
layers = (
{
layerId = "D905F18B-B0C6-4EFF-A833-0E5BFD426C49";
paths = (
{
closed = 1;
nodes = (
"239 -7 OFFCURVE",
"292 30 OFFCURVE",
"303 42 CURVE",
"307 42 LINE",
"309 21 OFFCURVE",
"318 -4 OFFCURVE",
"355 -4 CURVE SMOOTH",
"409 -4 OFFCURVE",
"455 16 OFFCURVE",
"455 16 CURVE",
"455 54 LINE",
"384 68 LINE",
"384 389 LINE SMOOTH",
"384 452 OFFCURVE",
"340 504 OFFCURVE",
"253 504 CURVE SMOOTH",
"199 504 OFFCURVE",
"49 462 OFFCURVE",
"49 379 CURVE SMOOTH",
"49 351 OFFCURVE",
"72 333 OFFCURVE",
"95 333 CURVE SMOOTH",
"118 333 OFFCURVE",
"127 340 OFFCURVE",
"127 340 CURVE",
"142 432 LINE",
"142 432 OFFCURVE",
"169 440 OFFCURVE",
"204 440 CURVE SMOOTH",
"267 440 OFFCURVE",
"302 415 OFFCURVE",
"302 356 CURVE SMOOTH",
"302 281 LINE",
"212 268 LINE SMOOTH",
"92 251 OFFCURVE",
"33 200 OFFCURVE",
"33 117 CURVE SMOOTH",
"33 51 OFFCURVE",
"73 -7 OFFCURVE",
"175 -7 CURVE SMOOTH"
);
},
{
closed = 1;
nodes = (
"153 56 OFFCURVE",
"121 91 OFFCURVE",
"121 132 CURVE SMOOTH",
"121 196 OFFCURVE",
"178 224 OFFCURVE",
"302 233 CURVE",
"302 74 LINE",
"302 74 OFFCURVE",
"263 56 OFFCURVE",
"213 56 CURVE SMOOTH"
);
},
{
closed = 1;
nodes = (
"381 606 LINE",
"391 663 LINE",
"59 663 LINE",
"49 606 LINE"
);
}
);
width = 475;
},
{
layerId = "4843E09C-13E2-4232-9E55-A4E7C049DCE9";
paths = (
{
closed = 1;
nodes = (
"250 -12 OFFCURVE",
"297 27 OFFCURVE",
"311 41 CURVE",
"320 41 LINE",
"330 12 OFFCURVE",
"344 -6 OFFCURVE",
"400 -6 CURVE SMOOTH",
"454 -6 OFFCURVE",
"512 16 OFFCURVE",
"512 16 CURVE",
"512 67 LINE",
"439 81 LINE",
"439 373 LINE SMOOTH",
"439 476 OFFCURVE",
"378 509 OFFCURVE",
"266 509 CURVE SMOOTH",
"182 509 OFFCURVE",
"51 469 OFFCURVE",
"51 379 CURVE SMOOTH",
"51 334 OFFCURVE",
"76 320 OFFCURVE",
"120 320 CURVE SMOOTH",
"148 320 OFFCURVE",
"173 330 OFFCURVE",
"173 330 CURVE",
"187 421 LINE",
"187 421 OFFCURVE",
"198 426 OFFCURVE",
"233 426 CURVE SMOOTH",
"296 426 OFFCURVE",
"307 397 OFFCURVE",
"307 350 CURVE SMOOTH",
"307 284 LINE",
"200 266 LINE SMOOTH",
"109 251 OFFCURVE",
"33 208 OFFCURVE",
"33 118 CURVE SMOOTH",
"33 50 OFFCURVE",
"75 -12 OFFCURVE",
"179 -12 CURVE SMOOTH"
);
},
{
closed = 1;
nodes = (
"193 74 OFFCURVE",
"174 98 OFFCURVE",
"174 135 CURVE SMOOTH",
"174 175 OFFCURVE",
"189 205 OFFCURVE",
"307 215 CURVE",
"307 91 LINE",
"294 84 OFFCURVE",
"272 74 OFFCURVE",
"248 74 CURVE SMOOTH"
);
},
{
closed = 1;
nodes = (
"416 586 LINE",
"429 669 LINE",
"83 669 LINE",
"70 586 LINE"
);
}
);
width = 520;
}
);
leftKerningGroup = a;
unicode = 0101;
},
